GeoramaExtended-Italic.ufo
<glyph name="exclam" format="2">
  <advance width="282.666"/>
  <unicode hex="0021"/>
  <outline>
    <contour>
      <point x="100.838" y="262.45" type="line"/>
      <point x="176.374" y="262.45" type="line"/>
      <point x="257.791" y="740.0" type="line"/>
      <point x="171.715" y="740.0" type="line"/>
    </contour>
    <contour>
      <point x="51.895999999999994" y="30.273999999999997" type="curve" smooth="yes"/>
      <point x="51.205999999999996" y="6.725"/>
      <point x="63.72999999999998" y="-3.1"/>
      <point x="96.319" y="-3.1" type="curve" smooth="yes"/>
      <point x="138.147" y="-3.1"/>
      <point x="155.92799999999997" y="14.237"/>
      <point x="157.998" y="58.534" type="curve" smooth="yes"/>
      <point x="158.688" y="82.29"/>
      <point x="145.75" y="91.908"/>
      <point x="113.585" y="91.908" type="curve" smooth="yes"/>
      <point x="71.27199999999999" y="91.908"/>
      <point x="53.96599999999999" y="73.672"/>
    </contour>
  </outline>
</glyph>
<glyph name="numbersign" format="2">
  <advance width="818.082"/>
  <unicode hex="0023"/>
  <outline>
    <contour>
      <point x="175.296" y="457.186" type="line"/>
      <point x="289.904" y="457.186" type="line"/>
      <point x="210.594" y="236.337" type="line"/>
      <point x="102.33699999999999" y="236.337" type="line"/>
      <point x="92.35900000000001" y="174.459" type="line"/>
      <point x="190.61599999999999" y="174.459" type="line"/>
      <point x="129.444" y="0.0" type="line"/>
      <point x="214.93699999999998" y="0.0" type="line"/>
      <point x="275.419" y="174.459" type="line"/>
      <point x="446.3359999999999" y="174.459" type="line"/>
      <point x="385.85400000000004" y="0.0" type="line"/>
      <point x="471.047" y="0.0" type="line"/>
      <point x="531.5289999999999" y="174.459" type="line"/>
      <point x="656.1139999999999" y="174.459" type="line"/>
      <point x="665.6679999999999" y="236.337" type="line"/>
      <point x="552.424" y="236.337" type="line"/>
      <point x="630.8169999999999" y="457.186" type="line"/>
      <point x="738.627" y="457.186" type="line"/>
      <point x="748.974" y="518.816" type="line"/>
      <point x="651.2779999999999" y="518.816" type="line"/>
      <point x="715.469" y="700.0" type="line"/>
      <point x="630.1829999999999" y="700.0" type="line"/>
      <point x="565.992" y="518.816" type="line"/>
      <point x="395.075" y="518.816" type="line"/>
      <point x="459.26599999999996" y="700.0" type="line"/>
      <point x="374.073" y="700.0" type="line"/>
      <point x="309.882" y="518.816" type="line"/>
      <point x="185.426" y="518.816" type="line"/>
    </contour>
    <contour>
      <point x="375.097" y="457.186" type="line"/>
      <point x="546.014" y="457.186" type="line"/>
      <point x="466.79699999999997" y="236.337" type="line"/>
      <point x="295.88" y="236.337" type="line"/>
    </contour>
  </outline>
</glyph>
<glyph name="dollar" format="2">
  <advance width="818.082"/>
  <unicode hex="0024"/>
  <outline>
    <contour>
      <point x="738.976" y="670.756" type="line"/>
      <point x="700.525" y="683.3820000000001"/>
      <point x="626.296" y="706.068"/>
      <point x="525.84" y="709.411" type="curve"/>
      <point x="541.5400000000001" y="804.814" type="line"/>
      <point x="475.17999999999995" y="804.814" type="line"/>
      <point x="459.477" y="707.561" type="line"/>
      <point x="316.017" y="700.607"/>
      <point x="151.694" y="645.1819999999999"/>
      <point x="151.694" y="493.332" type="curve" smooth="yes"/>
      <point x="151.694" y="271.656"/>
      <point x="615.3499999999999" y="344.034"/>
      <point x="615.3499999999999" y="192.521" type="curve" smooth="yes"/>
      <point x="615.3499999999999" y="90.28800000000001"/>
      <point x="470.932" y="60.419"/>
      <point x="375.787" y="60.419" type="curve" smooth="yes"/>
      <point x="264.16299999999995" y="60.419"/>
      <point x="135.573" y="93.601"/>
      <point x="82.64800000000001" y="114.19" type="curve"/>
      <point x="54.032" y="42.865" type="line"/>
      <point x="112.61299999999999" y="23.582"/>
      <point x="221.81599999999997" y="-6.719"/>
      <point x="338.387" y="-9.225000000000001" type="curve"/>
      <point x="323.387" y="-105.0" type="line"/>
      <point x="389.53000000000003" y="-105.0" type="line"/>
      <point x="404.53000000000003" y="-7.654" type="line"/>
      <point x="547.3299999999999" y="1.7490000000000012"/>
      <point x="711.4859999999999" y="52.72599999999999"/>
      <point x="711.4859999999999" y="206.81599999999997" type="curve" smooth="yes"/>
      <point x="711.4859999999999" y="425.361"/>
      <point x="247.00599999999997" y="351.73699999999997"/>
      <point x="247.00599999999997" y="506.15600000000006" type="curve" smooth="yes"/>
      <point x="247.00599999999997" y="607.5440000000001"/>
      <point x="388.722" y="638.3829999999999"/>
      <point x="476.775" y="638.3829999999999" type="curve" smooth="yes"/>
      <point x="578.4" y="638.3829999999999"/>
      <point x="654.351" y="621.006"/>
      <point x="711.962" y="600.124" type="curve"/>
    </contour>
  </outline>
</glyph>
<glyph name="ampersand" format="2">
  <advance width="862.5459999999999"/>
  <unicode hex="0026"/>
  <outline>
    <contour>
      <point x="339.87899999999996" y="-10.0" type="curve" smooth="yes"/>
      <point x="530.758" y="-10.0"/>
      <point x="684.4970000000001" y="91.044"/>
      <point x="729.255" y="293.575" type="curve"/>
      <point x="656.571" y="296.42" type="line"/>
      <point x="627.0649999999999" y="136.934"/>
      <point x="487.80699999999996" y="56.53300000000001"/>
      <point x="348.88" y="56.53300000000001" type="curve" smooth="yes"/>
      <point x="210.86900000000003" y="56.53300000000001"/>
      <point x="138.004" y="108.956"/>
      <point x="138.004" y="181.914" type="curve" smooth="yes"/>
      <point x="138.004" y="300.389"/>
      <point x="267.94300000000004" y="346.896"/>
      <point x="397.63" y="346.896" type="curve" smooth="yes"/>
      <point x="424.732" y="346.896" type="line"/>
      <point x="434.994" y="398.691" type="line"/>
      <point x="422.429" y="399.9309999999999" type="line" smooth="yes"/>
      <point x="318.777" y="405.697"/>
      <point x="249.094" y="445.72299999999996"/>
      <point x="249.094" y="522.7019999999999" type="curve" smooth="yes"/>
      <point x="249.094" y="586.069"/>
      <point x="304.159" y="647.7860000000001"/>
      <point x="408.73" y="647.7860000000001" type="curve" smooth="yes"/>
      <point x="471.095" y="647.7860000000001"/>
      <point x="534.7869999999999" y="623.359"/>
      <point x="576.9739999999999" y="585.0590000000001" type="curve"/>
      <point x="624.579" y="635.1230000000002" type="line"/>
      <point x="571.5559999999999" y="681.945"/>
      <point x="487.565" y="710.0"/>
      <point x="400.12600000000003" y="710.0" type="curve" smooth="yes"/>
      <point x="244.107" y="710.0"/>
      <point x="158.528" y="625.783"/>
      <point x="158.528" y="534.3159999999999" type="curve" smooth="yes"/>
      <point x="158.528" y="456.417"/>
      <point x="217.70899999999997" y="397.344"/>
      <point x="303.137" y="382.58" type="curve"/>
      <point x="153.557" y="370.73999999999995"/>
      <point x="45.763999999999996" y="303.17900000000003"/>
      <point x="45.763999999999996" y="174.949" type="curve" smooth="yes"/>
      <point x="45.763999999999996" y="66.416"/>
      <point x="141.073" y="-10.0"/>
    </contour>
    <contour>
      <point x="500.28" y="228.99" type="line"/>
      <point x="505.585" y="275.973"/>
      <point x="539.271" y="294.286"/>
      <point x="576.7750000000001" y="294.286" type="curve" smooth="yes"/>
      <point x="649.4630000000001" y="294.286"/>
      <point x="689.9439999999998" y="266.126"/>
      <point x="760.7309999999999" y="266.126" type="curve" smooth="yes"/>
      <point x="832.5049999999999" y="266.126"/>
      <point x="879.812" y="323.061"/>
      <point x="879.536" y="397.81800000000004" type="curve"/>
      <point x="823.771" y="399.681" type="line"/>
      <point x="822.136" y="350.536"/>
      <point x="790.7120000000001" y="324.54699999999997"/>
      <point x="738.862" y="324.54699999999997" type="curve" smooth="yes"/>
      <point x="674.16" y="324.54699999999997"/>
      <point x="638.596" y="355.311"/>
      <point x="570.148" y="355.311" type="curve" smooth="yes"/>
      <point x="505.1479999999999" y="355.311"/>
      <point x="455.64099999999996" y="312.301"/>
      <point x="449.508" y="245.01900000000003" type="curve"/>
    </contour>
  </outline>
</glyph>
<glyph name="quotesingle" format="2">
  <advance width="190.721"/>
  <unicode hex="0027"/>
  <outline>
    <contour>
      <point x="84.91399999999999" y="427.0" type="line"/>
      <point x="152.908" y="427.0" type="line"/>
      <point x="201.768" y="700.0" type="line"/>
      <point x="122.953" y="700.0" type="line"/>
    </contour>
  </outline>
</glyph>
<glyph name="parenleft" format="2">
  <advance width="386.44100000000003"/>
  <unicode hex="0028"/>
  <outline>
    <contour>
      <point x="88.19599999999998" y="94.35999999999999" type="curve" smooth="yes"/>
      <point x="88.19599999999998" y="-63.732000000000006"/>
      <point x="141.95099999999996" y="-193.097"/>
      <point x="275.77799999999996" y="-220.0" type="curve"/>
      <point x="288.071" y="-158.57999999999998" type="line"/>
      <point x="203.77199999999996" y="-134.423"/>
      <point x="160.371" y="-40.121"/>
      <point x="160.371" y="94.684" type="curve" smooth="yes"/>
      <point x="160.371" y="322.693"/>
      <point x="259.925" y="647.357"/>
      <point x="420.428" y="686.016" type="curve"/>
      <point x="428.395" y="749.793" type="line"/>
      <point x="186.358" y="707.3779999999999"/>
      <point x="88.19599999999998" y="339.82300000000004"/>
    </contour>
  </outline>
</glyph>
<glyph name="parenright" format="2">
  <advance width="386.44100000000003"/>
  <unicode hex="0029"/>
  <outline>
    <contour>
      <point x="295.235" y="434.674" type="curve" smooth="yes"/>
      <point x="295.235" y="596.749"/>
      <point x="240.72099999999998" y="723.097"/>
      <point x="106.411" y="750.0" type="curve"/>
      <point x="94.532" y="685.9079999999999" type="line"/>
      <point x="184.075" y="659.543"/>
      <point x="223.06" y="563.309"/>
      <point x="223.06" y="435.956" type="curve" smooth="yes"/>
      <point x="223.06" y="217.53799999999998"/>
      <point x="126.67999999999998" y="-114.114"/>
      <point x="-38.17" y="-155.464" type="curve"/>
      <point x="-45.93" y="-220.0" type="line"/>
      <point x="177.822" y="-177.988"/>
      <point x="295.235" y="168.12800000000001"/>
    </contour>
  </outline>
</glyph>
<glyph name="asterisk" format="2">
  <advance width="394.70199999999994"/>
  <unicode hex="002A"/>
  <outline>
    <contour>
      <point x="119.32799999999999" y="333.39000000000004" type="line"/>
      <point x="226.804" y="462.002" type="line"/>
      <point x="291.914" y="333.59700000000004" type="line"/>
      <point x="329.53899999999993" y="358.131" type="line"/>
      <point x="272.11400000000003" y="495.68299999999994" type="line"/>
      <point x="413.57099999999997" y="551.068" type="line"/>
      <point x="407.01599999999996" y="592.222" type="line"/>
      <point x="266.575" y="548.582" type="line"/>
      <point x="288.19" y="710.0229999999999" type="line"/>
      <point x="245.02899999999997" y="710.0229999999999" type="line"/>
      <point x="215.29199999999997" y="548.789" type="line"/>
      <point x="87.592" y="592.429" type="line"/>
      <point x="68.964" y="551.482" type="line"/>
      <point x="191.893" y="496.097" type="line"/>
      <point x="89.327" y="359.097" type="line"/>
    </contour>
  </outline>
</glyph>
<glyph name="plus" format="2">
  <advance width="514.6809999999999"/>
  <unicode hex="002B"/>
  <outline>
    <contour>
      <point x="189.311" y="83.718" type="line"/>
      <point x="265.457" y="83.718" type="line"/>
      <point x="293.386" y="263.20799999999997" type="line"/>
      <point x="457.18399999999997" y="263.20799999999997" type="line"/>
      <point x="468.957" y="335.2" type="line"/>
      <point x="305.159" y="335.2" type="line"/>
      <point x="333.78799999999995" y="514.68" type="line"/>
      <point x="258.07599999999996" y="514.68" type="line"/>
      <point x="229.013" y="335.2" type="line"/>
      <point x="65.659" y="335.2" type="line"/>
      <point x="53.885999999999996" y="263.20799999999997" type="line"/>
      <point x="217.674" y="263.20799999999997" type="line"/>
    </contour>
  </outline>
</glyph>
<glyph name="comma" format="2">
  <advance width="220.652"/>
  <unicode hex="002C"/>
  <outline>
    <contour>
      <point x="36.533" y="54.972" type="line"/>
      <point x="38.362" y="37.925"/>
      <point x="38.088" y="20.436000000000003"/>
      <point x="36.940999999999995" y="4.952000000000001" type="curve" smooth="yes"/>
      <point x="33.065999999999995" y="-59.581"/>
      <point x="-5.787" y="-139.987"/>
      <point x="-64.978" y="-178.827" type="curve"/>
      <point x="-4.480000000000004" y="-198.482" type="line"/>
      <point x="74.99" y="-150.02100000000002"/>
      <point x="122.565" y="-53.517"/>
      <point x="122.565" y="21.602" type="curve" smooth="yes"/>
      <point x="122.565" y="35.593"/>
      <point x="120.806" y="48.801"/>
      <point x="117.326" y="61.07800000000001" type="curve"/>
    </contour>
  </outline>
</glyph>
<glyph name="hyphen" format="2">
  <advance width="390.858"/>
  <unicode hex="002D"/>
  <outline>
    <contour>
      <point x="51.62499999999999" y="243.73600000000002" type="line"/>
      <point x="329.02700000000004" y="243.73600000000002" type="line"/>
      <point x="341.37899999999996" y="318.16399999999993" type="line"/>
      <point x="63.977000000000004" y="318.16399999999993" type="line"/>
    </contour>
  </outline>
</glyph>
<glyph name="period" format="2">
  <advance width="223.473"/>
  <unicode hex="002E"/>
  <outline>
    <contour>
      <point x="21.948" y="30.553" type="curve" smooth="yes"/>
      <point x="21.258" y="6.911"/>
      <point x="33.68899999999999" y="-2.8209999999999997"/>
      <point x="66.371" y="-2.8209999999999997" type="curve" smooth="yes"/>
      <point x="108.199" y="-2.8209999999999997"/>
      <point x="125.887" y="14.515999999999998"/>
      <point x="127.95700000000001" y="58.999" type="curve" smooth="yes"/>
      <point x="128.647" y="82.662"/>
      <point x="115.802" y="92.187"/>
      <point x="83.637" y="92.187" type="curve" smooth="yes"/>
      <point x="41.230999999999995" y="92.187"/>
      <point x="24.018" y="73.95100000000001"/>
    </contour>
  </outline>
</glyph>
<glyph name="slash" format="2">
  <advance width="414.89500000000004"/>
  <unicode hex="002F"/>
  <outline>
    <contour>
      <point x="-68.653" y="-210.0" type="line"/>
      <point x="5.622000000000002" y="-210.0" type="line"/>
      <point x="480.548" y="740.0" type="line"/>
      <point x="405.87" y="740.0" type="line"/>
    </contour>
  </outline>
</glyph>
<glyph name="zero" format="2">
  <advance width="818.454"/>
  <unicode hex="0030"/>
  <outline>
    <contour>
      <point x="391.3179999999999" y="-10.620000000000001" type="curve" smooth="yes"/>
      <point x="632.2479999999999" y="-10.620000000000001"/>
      <point x="779.5999999999999" y="179.264"/>
      <point x="779.5999999999999" y="420.67" type="curve" smooth="yes"/>
      <point x="779.5999999999999" y="609.9019999999999"/>
      <point x="663.132" y="710.31"/>
      <point x="450.33199999999994" y="710.31" type="curve" smooth="yes"/>
      <point x="206.036" y="710.31"/>
      <point x="62.315999999999995" y="520.338"/>
      <point x="62.315999999999995" y="280.792" type="curve" smooth="yes"/>
      <point x="62.315999999999995" y="91.87"/>
      <point x="179.67" y="-10.620000000000001"/>
    </contour>
    <contour>
      <point x="394.72799999999995" y="59.21999999999999" type="curve" smooth="yes"/>
      <point x="241.47199999999998" y="59.21999999999999"/>
      <point x="157.15200000000002" y="137.78"/>
      <point x="157.266" y="282.538" type="curve" smooth="yes"/>
      <point x="157.494" y="473.318"/>
      <point x="257.438" y="640.78"/>
      <point x="447.232" y="640.78" type="curve" smooth="yes"/>
      <point x="601.0200000000001" y="640.78"/>
      <point x="684.7639999999999" y="563.682"/>
      <point x="684.65" y="418.924" type="curve" smooth="yes"/>
      <point x="684.4219999999999" y="229.34"/>
      <point x="583.326" y="59.21999999999999"/>
    </contour>
  </outline>
</glyph>
<glyph name="one" format="2">
  <advance width="818.082"/>
  <unicode hex="0031"/>
  <outline>
    <contour>
      <point x="82.044" y="0.0" type="line"/>
      <point x="705.453" y="0.0" type="line"/>
      <point x="717.1019999999999" y="71.597" type="line"/>
      <point x="473.041" y="71.597" type="line"/>
      <point x="574.4119999999999" y="704.83" type="line"/>
      <point x="528.351" y="704.83" type="line"/>
      <point x="150.082" y="538.924" type="line"/>
      <point x="162.76399999999998" y="466.0760000000001" type="line"/>
      <point x="465.735" y="602.2130000000001" type="line"/>
      <point x="381.767" y="71.597" type="line"/>
      <point x="93.6" y="71.597" type="line"/>
    </contour>
  </outline>
</glyph>
<glyph name="two" format="2">
  <advance width="818.454"/>
  <unicode hex="0032"/>
  <outline>
    <contour>
      <point x="77.24199999999999" y="56.37" type="curve"/>
      <point x="70.96000000000001" y="0.0" type="line"/>
      <point x="693.626" y="0.0" type="line"/>
      <point x="704.5079999999999" y="71.08" type="line"/>
      <point x="234.498" y="71.08" type="line"/>
      <point x="554.502" y="253.08199999999994"/>
      <point x="669.536" y="372.77199999999993"/>
      <point x="669.536" y="527.414" type="curve" smooth="yes"/>
      <point x="669.536" y="643.5559999999999"/>
      <point x="571.218" y="710.0"/>
      <point x="424.82599999999996" y="710.0" type="curve" smooth="yes"/>
      <point x="332.984" y="710.0"/>
      <point x="231.286" y="683.3239999999998"/>
      <point x="160.156" y="642.648" type="curve"/>
      <point x="178.436" y="574.378" type="line"/>
      <point x="247.168" y="608.828"/>
      <point x="324.956" y="633.252"/>
      <point x="406.5919999999999" y="633.252" type="curve" smooth="yes"/>
      <point x="507.264" y="633.252"/>
      <point x="574.5859999999999" y="589.9900000000001"/>
      <point x="574.5859999999999" y="509.74199999999996" type="curve" smooth="yes"/>
      <point x="574.472" y="372.618"/>
      <point x="406.7059999999999" y="237.89"/>
    </contour>
  </outline>
</glyph>
<glyph name="three" format="2">
  <advance width="818.5299999999999"/>
  <unicode hex="0033"/>
  <outline>
    <contour>
      <point x="24.169999999999995" y="61.69999999999999" type="line"/>
      <point x="111.86" y="13.47"/>
      <point x="218.29000000000002" y="-10.0"/>
      <point x="350.7999999999999" y="-10.0" type="curve" smooth="yes"/>
      <point x="553.3199999999998" y="-10.0"/>
      <point x="713.4599999999999" y="65.24000000000001"/>
      <point x="713.4599999999999" y="222.82" type="curve" smooth="yes"/>
      <point x="713.4599999999999" y="309.30999999999995"/>
      <point x="655.93" y="355.9"/>
      <point x="562.35" y="371.31" type="curve"/>
      <point x="646.54" y="390.34"/>
      <point x="720.4299999999997" y="450.89"/>
      <point x="720.4299999999997" y="549.62" type="curve" smooth="yes"/>
      <point x="720.4299999999997" y="649.62"/>
      <point x="624.62" y="710.0"/>
      <point x="436.87999999999994" y="710.0" type="curve" smooth="yes"/>
      <point x="346.72999999999996" y="710.0"/>
      <point x="234.85999999999999" y="694.52"/>
      <point x="157.22000000000003" y="663.8700000000001" type="curve"/>
      <point x="174.14" y="596.3399999999999" type="line"/>
      <point x="248.29999999999998" y="622.46"/>
      <point x="341.77" y="636.63"/>
      <point x="415.35" y="636.63" type="curve" smooth="yes"/>
      <point x="548.65" y="636.63"/>
      <point x="626.5300000000001" y="597.4600000000002"/>
      <point x="626.5300000000001" y="526.68" type="curve" smooth="yes"/>
      <point x="626.5300000000001" y="442.48999999999995"/>
      <point x="547.27" y="396.16999999999996"/>
      <point x="435.0999999999999" y="396.16999999999996" type="curve" smooth="yes"/>
      <point x="253.64" y="396.16999999999996" type="line"/>
      <point x="242.57999999999998" y="330.05000000000007" type="line"/>
      <point x="423.2399999999999" y="330.05000000000007" type="line" smooth="yes"/>
      <point x="555.71" y="330.05000000000007"/>
      <point x="619.2999999999998" y="292.53999999999996"/>
      <point x="619.2999999999998" y="216.65" type="curve" smooth="yes"/>
      <point x="619.2999999999998" y="118.86"/>
      <point x="523.1699999999998" y="63.37"/>
      <point x="359.02" y="63.37" type="curve" smooth="yes"/>
      <point x="233.44999999999996" y="63.37"/>
      <point x="135.77999999999997" y="85.03"/>
      <point x="57.00999999999999" y="126.99000000000002" type="curve"/>
    </contour>
  </outline>
</glyph>
<glyph name="four" format="2">
  <advance width="818.5299999999999"/>
  <unicode hex="0034"/>
  <outline>
    <contour>
      <point x="42.39999999999999" y="165.54" type="line"/>
      <point x="503.3200000000001" y="165.54" type="line"/>
      <point x="476.5199999999999" y="-3.4499999999999997" type="line"/>
      <point x="569.1099999999999" y="-3.4499999999999997" type="line"/>
      <point x="595.72" y="165.54" type="line"/>
      <point x="744.27" y="165.54" type="line"/>
      <point x="754.7099999999998" y="231.85000000000002" type="line"/>
      <point x="606.47" y="231.85000000000002" type="line"/>
      <point x="680.85" y="696.8599999999998" type="line"/>
      <point x="617.46" y="702.5699999999999" type="line"/>
      <point x="48.839999999999996" y="221.40999999999997" type="line"/>
    </contour>
    <contour>
      <point x="152.81" y="231.85000000000002" type="line"/>
      <point x="571.62" y="584.75" type="line"/>
      <point x="514.69" y="231.85000000000002" type="line"/>
    </contour>
  </outline>
</glyph>
<glyph name="five" format="2">
  <advance width="818.454"/>
  <unicode hex="0035"/>
  <outline>
    <contour>
      <point x="49.65799999999999" y="61.88399999999999" type="line"/>
      <point x="125.15599999999999" y="14.799999999999997"/>
      <point x="216.812" y="-10.0"/>
      <point x="347.746" y="-10.0" type="curve" smooth="yes"/>
      <point x="615.076" y="-10.0"/>
      <point x="718.3140000000001" y="107.84999999999997"/>
      <point x="718.3140000000001" y="248.64799999999997" type="curve" smooth="yes"/>
      <point x="718.3140000000001" y="359.242"/>
      <point x="648.806" y="414.704"/>
      <point x="487.8279999999999" y="414.704" type="curve" smooth="yes"/>
      <point x="232.39" y="414.704" type="line"/>
      <point x="292.92999999999995" y="625.706" type="line"/>
      <point x="728.1899999999999" y="625.706" type="line"/>
      <point x="740.7560000000001" y="700.0" type="line"/>
      <point x="240.33199999999997" y="700.0" type="line"/>
      <point x="139.24799999999996" y="357.654" type="line"/>
      <point x="146.78599999999997" y="347.84999999999997" type="line"/>
      <point x="445.5239999999999" y="347.84999999999997" type="line" smooth="yes"/>
      <point x="575.3679999999999" y="347.84999999999997"/>
      <point x="628.412" y="314.908"/>
      <point x="628.412" y="235.85999999999999" type="curve" smooth="yes"/>
      <point x="628.412" y="142.31799999999998"/>
      <point x="534.94" y="62.32"/>
      <point x="354.536" y="62.32" type="curve" smooth="yes"/>
      <point x="232.53" y="62.32"/>
      <point x="144.994" y="90.518"/>
      <point x="80.56200000000001" y="128.17999999999998" type="curve"/>
    </contour>
  </outline>
</glyph>
<glyph name="six" format="2">
  <advance width="818.53"/>
  <unicode hex="0036"/>
  <note>
14
</note>
  <outline>
    <contour>
      <point x="399.77" y="-10.0" type="curve" smooth="yes"/>
      <point x="605.3699999999999" y="-10.0"/>
      <point x="755.1" y="68.05"/>
      <point x="755.1" y="238.87000000000003" type="curve" smooth="yes"/>
      <point x="755.1" y="368.1"/>
      <point x="659.24" y="438.84999999999997"/>
      <point x="483.85999999999996" y="438.84999999999997" type="curve" smooth="yes"/>
      <point x="373.38" y="438.84999999999997"/>
      <point x="245.51" y="409.03"/>
      <point x="161.26" y="349.95" type="curve"/>
      <point x="156.89999999999998" y="281.15000000000003" type="line"/>
      <point x="229.21" y="336.98"/>
      <point x="347.00000000000006" y="370.25"/>
      <point x="454.03" y="370.25" type="curve" smooth="yes"/>
      <point x="599.14" y="370.25"/>
      <point x="663.99" y="322.27"/>
      <point x="663.99" y="232.36" type="curve" smooth="yes"/>
      <point x="663.99" y="125.24"/>
      <point x="571.6000000000001" y="60.769999999999996"/>
      <point x="412.71" y="60.769999999999996" type="curve" smooth="yes"/>
      <point x="247.22" y="60.769999999999996"/>
      <point x="164.61999999999998" y="124.77"/>
      <point x="164.61999999999998" y="268.18" type="curve" smooth="yes"/>
      <point x="164.61999999999998" y="393.69"/>
      <point x="208.23" y="496.07000000000005"/>
      <point x="287.80999999999995" y="559.84" type="curve" smooth="yes"/>
      <point x="350.06" y="609.97"/>
      <point x="433.4" y="637.0600000000001"/>
      <point x="533.24" y="637.0600000000001" type="curve" smooth="yes"/>
      <point x="615.5400000000001" y="637.0600000000001"/>
      <point x="687.5100000000001" y="625.6800000000001"/>
      <point x="759.7399999999999" y="601.59" type="curve"/>
      <point x="787.46" y="669.6899999999999" type="line"/>
      <point x="719.2100000000002" y="694.3299999999999"/>
      <point x="629.68" y="710.0"/>
      <point x="532.64" y="710.0" type="curve" smooth="yes"/>
      <point x="252.89" y="710.0"/>
      <point x="75.48999999999998" y="541.3100000000001"/>
      <point x="75.48999999999998" y="263.42" type="curve" smooth="yes"/>
      <point x="75.48999999999998" y="77.19"/>
      <point x="189.65" y="-10.0"/>
    </contour>
  </outline>
</glyph>
<glyph name="seven" format="2">
  <advance width="818.082"/>
  <unicode hex="0037"/>
  <note>
9
</note>
  <outline>
    <contour>
      <point x="221.731" y="0.0" type="curve"/>
      <point x="318.179" y="0.0" type="line"/>
      <point x="341.717" y="136.311"/>
      <point x="405.304" y="227.44900000000004"/>
      <point x="559.037" y="406.04699999999997" type="curve" smooth="yes"/>
      <point x="758.9730000000001" y="638.125" type="line"/>
      <point x="769.196" y="700.0" type="line"/>
      <point x="143.88299999999998" y="700.0" type="line"/>
      <point x="132.141" y="623.6109999999999" type="line"/>
      <point x="647.4689999999999" y="623.6109999999999" type="line"/>
      <point x="463.21399999999994" y="415.53499999999997" type="line" smooth="yes"/>
      <point x="314.7579999999999" y="247.949"/>
      <point x="246.19500000000002" y="152.415"/>
    </contour>
  </outline>
</glyph>
<glyph name="eight" format="2">
  <advance width="818.53"/>
  <unicode hex="0038"/>
  <outline>
    <contour>
      <point x="376.71" y="-10.0" type="curve" smooth="yes"/>
      <point x="581.48" y="-10.0"/>
      <point x="745.56" y="44.45000000000001"/>
      <point x="745.56" y="210.51" type="curve" smooth="yes"/>
      <point x="745.56" y="461.34999999999997"/>
      <point x="222.54999999999998" y="337.2"/>
      <point x="222.54999999999998" y="521.9399999999999" type="curve" smooth="yes"/>
      <point x="222.54999999999998" y="606.8699999999999"/>
      <point x="320.6799999999999" y="642.64"/>
      <point x="458.18999999999994" y="642.64" type="curve" smooth="yes"/>
      <point x="607.42" y="642.64"/>
      <point x="669.7499999999999" y="601.18"/>
      <point x="669.7499999999999" y="533.85" type="curve" smooth="yes"/>
      <point x="669.7499999999999" y="454.90999999999997"/>
      <point x="619.0600000000002" y="413.76"/>
      <point x="523.38" y="374.63" type="curve"/>
      <point x="591.33" y="352.01" type="line"/>
      <point x="686.6" y="390.86"/>
      <point x="754.4699999999999" y="446.31"/>
      <point x="754.4699999999999" y="546.4399999999999" type="curve" smooth="yes"/>
      <point x="754.4699999999999" y="644.61"/>
      <point x="668.5899999999999" y="710.0"/>
      <point x="463.15" y="710.0" type="curve" smooth="yes"/>
      <point x="281.83" y="710.0"/>
      <point x="135.03999999999996" y="657.52"/>
      <point x="135.03999999999996" y="511.62" type="curve" smooth="yes"/>
      <point x="135.03999999999996" y="260.48999999999995"/>
      <point x="649.99" y="396.04"/>
      <point x="649.99" y="198.66" type="curve" smooth="yes"/>
      <point x="649.99" y="90.31000000000002"/>
      <point x="533.78" y="53.64"/>
      <point x="383.90999999999997" y="53.64" type="curve" smooth="yes"/>
      <point x="213.26999999999998" y="53.64"/>
      <point x="137.89999999999998" y="101.97999999999999"/>
      <point x="137.89999999999998" y="184.78" type="curve" smooth="yes"/>
      <point x="137.89999999999998" y="273.0799999999999"/>
      <point x="206.15" y="328.17"/>
      <point x="312.5" y="358.17999999999995" type="curve"/>
      <point x="241.29000000000002" y="387.07000000000005" type="line"/>
      <point x="127.87" y="355.61"/>
      <point x="45.74" y="282.68000000000006"/>
      <point x="45.74" y="174.20000000000002" type="curve" smooth="yes"/>
      <point x="45.74" y="59.15"/>
      <point x="146.07" y="-10.0"/>
    </contour>
  </outline>
</glyph>
<glyph name="nine" format="2">
  <advance width="818.53"/>
  <unicode hex="0039"/>
  <outline>
    <contour>
      <point x="448.8299999999999" y="710.0" type="curve" smooth="yes"/>
      <point x="228.04" y="710.0"/>
      <point x="95.4" y="621.41"/>
      <point x="95.4" y="458.96" type="curve" smooth="yes"/>
      <point x="95.4" y="329.73"/>
      <point x="191.26" y="261.15"/>
      <point x="366.63999999999993" y="261.15" type="curve" smooth="yes"/>
      <point x="477.11999999999995" y="261.15"/>
      <point x="604.9899999999999" y="290.96999999999997"/>
      <point x="689.2399999999999" y="350.04999999999995" type="curve"/>
      <point x="693.6" y="418.85" type="line"/>
      <point x="621.29" y="363.0199999999999"/>
      <point x="503.4999999999999" y="329.75"/>
      <point x="396.46999999999997" y="329.75" type="curve" smooth="yes"/>
      <point x="251.36" y="329.75"/>
      <point x="186.51" y="377.73"/>
      <point x="186.51" y="467.64" type="curve" smooth="yes"/>
      <point x="186.51" y="574.76"/>
      <point x="276.99999999999994" y="639.23"/>
      <point x="435.89000000000004" y="639.23" type="curve" smooth="yes"/>
      <point x="601.38" y="639.23"/>
      <point x="685.8800000000001" y="575.23"/>
      <point x="685.8800000000001" y="431.82000000000005" type="curve" smooth="yes"/>
      <point x="685.8800000000001" y="306.30999999999995"/>
      <point x="643.1999999999999" y="202.99999999999997"/>
      <point x="563.6199999999999" y="139.23000000000002" type="curve" smooth="yes"/>
      <point x="501.37000000000006" y="89.10000000000001"/>
      <point x="418.03" y="62.01"/>
      <point x="318.18999999999994" y="62.01" type="curve" smooth="yes"/>
      <point x="235.89" y="62.01"/>
      <point x="162.98999999999998" y="74.32000000000001"/>
      <point x="90.75999999999999" y="98.41" type="curve"/>
      <point x="63.03999999999999" y="30.310000000000002" type="line"/>
      <point x="131.29" y="5.669999999999999"/>
      <point x="220.81999999999996" y="-10.0"/>
      <point x="317.85999999999996" y="-10.0" type="curve" smooth="yes"/>
      <point x="597.61" y="-10.0"/>
      <point x="775.01" y="158.69"/>
      <point x="775.01" y="436.5799999999999" type="curve" smooth="yes"/>
      <point x="775.01" y="620.33"/>
      <point x="662.36" y="710.0"/>
    </contour>
  </outline>
</glyph>
<glyph name="less" format="2">
  <advance width="514.906"/>
  <unicode hex="003C"/>
  <outline>
    <contour>
      <point x="427.53299999999996" y="66.351" type="line"/>
      <point x="439.02700000000004" y="140.47500000000002" type="line"/>
      <point x="133.795" y="297.432" type="line"/>
      <point x="489.40799999999996" y="454.47200000000004" type="line"/>
      <point x="500.902" y="529.834" type="line"/>
      <point x="63.748" y="337.679" type="line"/>
      <point x="51.551" y="260.617" type="line"/>
    </contour>
  </outline>
</glyph>
<glyph name="equal" format="2">
  <advance width="511.199"/>
  <unicode hex="003D"/>
  <outline>
    <contour>
      <point x="447.625" y="226.078" type="line"/>
      <point x="48.605" y="226.078" type="line"/>
      <point x="37.017999999999994" y="153.879" type="line"/>
      <point x="436.03799999999995" y="153.879" type="line"/>
    </contour>
    <contour>
      <point x="481.48500000000007" y="443.365" type="line"/>
      <point x="82.341" y="443.365" type="line"/>
      <point x="70.878" y="371.166" type="line"/>
      <point x="469.898" y="371.166" type="line"/>
    </contour>
  </outline>
</glyph>
<glyph name="greater" format="2">
  <advance width="514.906"/>
  <unicode hex="003E"/>
  <outline>
    <contour>
      <point x="458.61" y="259.99600000000004" type="line"/>
      <point x="470.373" y="333.803" type="line"/>
      <point x="94.711" y="527.25" type="line"/>
      <point x="82.783" y="454.955" type="line"/>
      <point x="388.532" y="297.639" type="line"/>
      <point x="33.043" y="141.16500000000002" type="line"/>
      <point x="21.125" y="65.93700000000001" type="line"/>
    </contour>
  </outline>
</glyph>
<glyph name="question" format="2">
  <advance width="546.6449999999999"/>
  <unicode hex="003F"/>
  <outline>
    <contour>
      <point x="208.73499999999999" y="261.311" type="line"/>
      <point x="284.05400000000003" y="261.311" type="line"/>
      <point x="295.13699999999994" y="325.36199999999997" type="line"/>
      <point x="458.796" y="379.76400000000007"/>
      <point x="560.7409999999999" y="443.539"/>
      <point x="560.7409999999999" y="585.636" type="curve" smooth="yes"/>
      <point x="560.7409999999999" y="702.9250000000001"/>
      <point x="454.762" y="750.0"/>
      <point x="344.72499999999997" y="750.0" type="curve" smooth="yes"/>
      <point x="257.45300000000003" y="750.0"/>
      <point x="153.05999999999997" y="723.369"/>
      <point x="74.84799999999998" y="676.465" type="curve"/>
      <point x="89.64" y="609.706" type="line"/>
      <point x="165.22299999999998" y="649.814"/>
      <point x="247.70799999999997" y="673.8409999999999"/>
      <point x="326.039" y="673.8409999999999" type="curve" smooth="yes"/>
      <point x="400.9069999999999" y="673.8409999999999"/>
      <point x="469.475" y="652.6320000000001"/>
      <point x="469.475" y="568.092" type="curve" smooth="yes"/>
      <point x="469.475" y="482.598"/>
      <point x="419.253" y="421.966"/>
      <point x="224.11199999999997" y="371.161" type="curve"/>
    </contour>
    <contour>
      <point x="163.027" y="28.948999999999998" type="curve" smooth="yes"/>
      <point x="163.13" y="6.321999999999999"/>
      <point x="175.251" y="-3.1"/>
      <point x="207.264" y="-3.1" type="curve" smooth="yes"/>
      <point x="248.436" y="-3.1"/>
      <point x="269.562" y="13.865"/>
      <point x="269.25299999999993" y="59.097" type="curve" smooth="yes"/>
      <point x="269.15000000000003" y="82.29"/>
      <point x="256.39799999999997" y="91.598"/>
      <point x="225.119" y="91.598" type="curve" smooth="yes"/>
      <point x="183.49299999999997" y="91.598"/>
      <point x="162.718" y="73.982"/>
    </contour>
  </outline>
</glyph>
<glyph name="at" format="2">
  <advance width="896.7299999999999"/>
  <unicode hex="0040"/>
  <outline>
    <contour>
      <point x="372.09000000000003" y="-120.55" type="curve" smooth="yes"/>
      <point x="453.79" y="-120.55"/>
      <point x="535.8199999999999" y="-99.25"/>
      <point x="608.8599999999999" y="-59.099999999999994" type="curve"/>
      <point x="597.93" y="-18.51" type="line"/>
      <point x="526.5799999999999" y="-54.730000000000004"/>
      <point x="448.64" y="-72.91000000000001"/>
      <point x="376.95000000000005" y="-72.91000000000001" type="curve" smooth="yes"/>
      <point x="203.46" y="-72.91000000000001"/>
      <point x="97.12999999999998" y="25.72"/>
      <point x="97.12999999999998" y="196.03999999999996" type="curve" smooth="yes"/>
      <point x="97.12999999999998" y="458.8"/>
      <point x="275.69" y="678.9399999999999"/>
      <point x="525.9300000000001" y="678.9399999999999" type="curve" smooth="yes"/>
      <point x="709.34" y="678.9399999999999"/>
      <point x="814.5" y="586.4499999999999"/>
      <point x="814.5" y="420.76" type="curve" smooth="yes"/>
      <point x="814.5" y="272.21000000000004"/>
      <point x="746.1499999999999" y="123.01"/>
      <point x="671.3299999999999" y="123.01" type="curve" smooth="yes"/>
      <point x="620.3699999999999" y="123.01"/>
      <point x="616.86" y="178.48"/>
      <point x="631.1199999999999" y="244.75" type="curve" smooth="yes"/>
      <point x="688.7899999999998" y="509.7" type="line"/>
      <point x="630.74" y="529.73"/>
      <point x="569.9" y="540.88"/>
      <point x="520.55" y="540.88" type="curve" smooth="yes"/>
      <point x="346.7199999999999" y="540.88"/>
      <point x="220.14999999999998" y="380.96999999999997"/>
      <point x="220.14999999999998" y="214.45" type="curve" smooth="yes"/>
      <point x="220.14999999999998" y="120.58"/>
      <point x="270.99000000000007" y="72.17"/>
      <point x="361.09000000000003" y="72.17" type="curve" smooth="yes"/>
      <point x="435.83" y="72.17"/>
      <point x="513.15" y="114.76"/>
      <point x="557.4999999999999" y="179.74" type="curve"/>
      <point x="558.73" y="107.94"/>
      <point x="593.4900000000001" y="67.69"/>
      <point x="657.8999999999999" y="67.69" type="curve" smooth="yes"/>
      <point x="777.77" y="67.69"/>
      <point x="865.86" y="244.89000000000001"/>
      <point x="865.86" y="424.66999999999996" type="curve" smooth="yes"/>
      <point x="865.86" y="613.5699999999999"/>
      <point x="737.7499999999999" y="726.65"/>
      <point x="534.2299999999999" y="726.65" type="curve" smooth="yes"/>
      <point x="248.10999999999999" y="726.65"/>
      <point x="45.53" y="491.10999999999996"/>
      <point x="45.53" y="188.56" type="curve" smooth="yes"/>
      <point x="45.53" y="-4.470000000000003"/>
      <point x="169.37999999999997" y="-120.55"/>
    </contour>
    <contour>
      <point x="397.52" y="139.53" type="curve" smooth="yes"/>
      <point x="335.75999999999993" y="139.53"/>
      <point x="303.94" y="171.59"/>
      <point x="303.94" y="231.58999999999997" type="curve" smooth="yes"/>
      <point x="303.94" y="353.56"/>
      <point x="396.66" y="478.85999999999996"/>
      <point x="504.91999999999996" y="478.85999999999996" type="curve" smooth="yes"/>
      <point x="541.72" y="478.85999999999996"/>
      <point x="568.78" y="474.47999999999996"/>
      <point x="603.24" y="462.96" type="curve"/>
      <point x="556.8199999999999" y="253.39999999999998" type="line" smooth="yes"/>
      <point x="527.55" y="187.03"/>
      <point x="459.42" y="139.53"/>
    </contour>
  </outline>
</glyph>
<glyph name="A" format="2">
  <advance width="748.3249999999999"/>
  <unicode hex="0041"/>
  <anchor x="330.36699999999996" y="0.0" name="bottom"/>
  <anchor x="692.6650000000001" y="0.0" name="ogonek"/>
  <anchor x="441.76500000000004" y="700.0" name="top"/>
  <outline>
    <contour>
      <point x="-32.339999999999996" y="0.0" type="line"/>
      <point x="72.0" y="0.0" type="line"/>
      <point x="180.04999999999995" y="183.525" type="line"/>
      <point x="539.4100000000001" y="183.525" type="line"/>
      <point x="589.4799999999999" y="0.0" type="line"/>
      <point x="692.6650000000001" y="0.0" type="line"/>
      <point x="491.85499999999996" y="709.0699999999999" type="line"/>
      <point x="391.46999999999997" y="709.0699999999999" type="line"/>
    </contour>
    <contour>
      <point x="215.10999999999996" y="252.90000000000003" type="line"/>
      <point x="429.77500000000003" y="623.025" type="line"/>
      <point x="527.3999999999999" y="252.90000000000003" type="line"/>
    </contour>
  </outline>
</glyph>
<glyph name="B" format="2">
  <advance width="786.415"/>
  <unicode hex="0042"/>
  <outline>
    <contour>
      <point x="49.997" y="2.7229999999999994" type="line"/>
      <point x="202.788" y="-6.355"/>
      <point x="263.37899999999996" y="-10.0"/>
      <point x="368.01599999999996" y="-10.0" type="curve" smooth="yes"/>
      <point x="536.053" y="-10.0"/>
      <point x="732.513" y="36.07500000000001"/>
      <point x="732.513" y="229.006" type="curve" smooth="yes"/>
      <point x="732.513" y="309.02000000000004"/>
      <point x="673.7479999999999" y="363.073"/>
      <point x="594.064" y="373.914" type="curve"/>
      <point x="669.5330000000001" y="398.71799999999996"/>
      <point x="742.328" y="465.40299999999996"/>
      <point x="742.328" y="563.09" type="curve" smooth="yes"/>
      <point x="742.328" y="665.7769999999999"/>
      <point x="657.7019999999999" y="710.0"/>
      <point x="464.30899999999997" y="710.0" type="curve" smooth="yes"/>
      <point x="395.10499999999996" y="710.0"/>
      <point x="311.003" y="706.5070000000001"/>
      <point x="160.827" y="696.863" type="curve"/>
    </contour>
    <contour>
      <point x="205.65200000000002" y="391.79800000000006" type="line"/>
      <point x="242.72299999999998" y="629.1189999999999" type="line"/>
      <point x="318.17499999999995" y="633.9580000000001"/>
      <point x="378.543" y="638.649"/>
      <point x="449.89699999999993" y="638.649" type="curve" smooth="yes"/>
      <point x="585.7629999999999" y="638.649"/>
      <point x="647.236" y="614.384"/>
      <point x="647.236" y="538.6" type="curve" smooth="yes"/>
      <point x="647.236" y="446.235"/>
      <point x="550.78" y="391.79800000000006"/>
      <point x="475.9309999999999" y="391.79800000000006" type="curve" smooth="yes"/>
    </contour>
    <contour>
      <point x="194.716" y="328.61" type="line"/>
      <point x="471.0069999999999" y="328.61" type="line" smooth="yes"/>
      <point x="548.162" y="328.61"/>
      <point x="635.7339999999999" y="304.659"/>
      <point x="635.7339999999999" y="223.71200000000002" type="curve" smooth="yes"/>
      <point x="635.7339999999999" y="96.50100000000002"/>
      <point x="507.282" y="60.522"/>
      <point x="374.15899999999993" y="60.522" type="curve" smooth="yes"/>
      <point x="293.965" y="60.522"/>
      <point x="236.29" y="65.027"/>
      <point x="153.80599999999998" y="69.318" type="curve"/>
    </contour>
  </outline>
</glyph>
<glyph name="C" format="2">
  <advance width="780.1679999999999"/>
  <unicode hex="0043"/>
  <anchor x="422.62800000000004" y="0.0" name="bottom"/>
  <anchor x="519.216" y="700.0" name="top"/>
  <outline>
    <contour>
      <point x="445.17400000000004" y="-10.0" type="curve" smooth="yes"/>
      <point x="544.334" y="-10.0"/>
      <point x="629.322" y="1.9939999999999989"/>
      <point x="705.6279999999999" y="25.867999999999995" type="curve"/>
      <point x="696.3319999999999" y="97.428" type="line"/>
      <point x="627.732" y="77.92000000000002"/>
      <point x="549.4379999999999" y="65.42"/>
      <point x="459.41600000000005" y="65.42" type="curve" smooth="yes"/>
      <point x="269.36" y="65.42"/>
      <point x="159.39000000000001" y="133.91600000000003"/>
      <point x="159.39000000000001" y="280.05799999999994" type="curve" smooth="yes"/>
      <point x="159.39000000000001" y="492.15"/>
      <point x="291.37" y="634.5799999999999"/>
      <point x="512.216" y="634.5799999999999" type="curve" smooth="yes"/>
      <point x="599.7679999999999" y="634.5799999999999"/>
      <point x="678.0999999999999" y="621.79"/>
      <point x="756.2299999999998" y="599.8839999999999" type="curve"/>
      <point x="778.4639999999999" y="670.5840000000001" type="line"/>
      <point x="686.8899999999999" y="699.6899999999999"/>
      <point x="604.6919999999999" y="710.0"/>
      <point x="508.352" y="710.0" type="curve" smooth="yes"/>
      <point x="229.7" y="710.0"/>
      <point x="62.58" y="539.4599999999999"/>
      <point x="62.58" y="270.954" type="curve" smooth="yes"/>
      <point x="62.58" y="81.742"/>
      <point x="198.668" y="-10.0"/>
    </contour>
  </outline>
</glyph>
<glyph name="D" format="2">
  <advance width="851.3039999999999"/>
  <unicode hex="0044"/>
  <anchor x="362.134" y="0.0" name="bottom"/>
  <anchor x="422.9119999999999" y="350.0" name="center"/>
  <anchor x="449.6839999999999" y="700.0" name="top"/>
  <outline>
    <contour>
      <point x="344.1819999999999" y="-10.0" type="curve" smooth="yes"/>
      <point x="618.086" y="-10.0"/>
      <point x="809.496" y="129.39200000000002"/>
      <point x="809.496" y="404.69599999999997" type="curve" smooth="yes"/>
      <point x="809.496" y="638.3879999999999"/>
      <point x="638.2459999999999" y="710.0"/>
      <point x="420.60799999999995" y="710.0" type="curve" smooth="yes"/>
      <point x="333.2799999999999" y="710.0"/>
      <point x="252.54399999999998" y="707.228"/>
      <point x="160.734" y="701.108" type="curve"/>
      <point x="48.69" y="-0.6840000000000006" type="line"/>
      <point x="147.30199999999996" y="-7.76"/>
      <point x="221.284" y="-10.0"/>
    </contour>
    <contour>
      <point x="349.058" y="59.30199999999999" type="curve" smooth="yes"/>
      <point x="271.14799999999997" y="59.30199999999999"/>
      <point x="219.71799999999996" y="61.188"/>
      <point x="152.72599999999997" y="65.448" type="curve"/>
      <point x="243.188" y="633.3999999999999" type="line"/>
      <point x="283.26000000000005" y="636.9699999999999"/>
      <point x="355.578" y="639.85"/>
      <point x="423.398" y="639.85" type="curve" smooth="yes"/>
      <point x="571.756" y="639.85"/>
      <point x="713.97" y="588.472"/>
      <point x="713.97" y="400.526" type="curve" smooth="yes"/>
      <point x="713.97" y="173.91799999999998"/>
      <point x="561.454" y="59.30199999999999"/>
    </contour>
  </outline>
</glyph>
<glyph name="E" format="2">
  <advance width="721.736"/>
  <unicode hex="0045"/>
  <anchor x="343.858" y="0.0" name="bottom"/>
  <anchor x="636.918" y="0.0" name="ogonek"/>
  <anchor x="443.01" y="700.0" name="top"/>
  <anchor x="100.952" y="700.0" name="topleft"/>
  <outline>
    <contour>
      <point x="48.803999999999995" y="0.0" type="line"/>
      <point x="636.918" y="0.0" type="line"/>
      <point x="649.8380000000001" y="77.89999999999999" type="line"/>
      <point x="152.95399999999998" y="77.89999999999999" type="line"/>
      <point x="192.44799999999998" y="328.63" type="line"/>
      <point x="641.478" y="328.63" type="line"/>
      <point x="654.398" y="405.29" type="line"/>
      <point x="204.482" y="405.29" type="line"/>
      <point x="239.23999999999998" y="622.0999999999999" type="line"/>
      <point x="714.276" y="622.0999999999999" type="line"/>
      <point x="727.3100000000001" y="700.0" type="line"/>
      <point x="160.31000000000003" y="700.0" type="line"/>
    </contour>
  </outline>
</glyph>
<glyph name="F" format="2">
  <advance width="686.265"/>
  <unicode hex="0046"/>
  <outline>
    <contour>
      <point x="48.958999999999996" y="0.0" type="line"/>
      <point x="141.811" y="0.0" type="line"/>
      <point x="186.61800000000002" y="275.578" type="line"/>
      <point x="601.93" y="275.578" type="line"/>
      <point x="613.747" y="353.97400000000005" type="line"/>
      <point x="198.776" y="353.97400000000005" type="line"/>
      <point x="240.728" y="621.604" type="line"/>
      <point x="712.251" y="621.604" type="line"/>
      <point x="725.295" y="700.0" type="line"/>
      <point x="160.62000000000003" y="700.0" type="line"/>
    </contour>
  </outline>
</glyph>
<glyph name="G" format="2">
  <advance width="803.25"/>
  <unicode hex="0047"/>
  <anchor x="399.825" y="0.0" name="bottom"/>
  <anchor x="516.643" y="700.0" name="top"/>
  <outline>
    <contour>
      <point x="416.72799999999995" y="-10.0" type="curve" smooth="yes"/>
      <point x="539.166" y="-10.0"/>
      <point x="636.2019999999999" y="13.152999999999999"/>
      <point x="699.9380000000001" y="39.871" type="curve"/>
      <point x="750.046" y="350.891" type="line"/>
      <point x="440.50699999999995" y="350.891" type="line"/>
      <point x="429.8809999999999" y="284.74" type="line"/>
      <point x="656.1569999999999" y="284.74" type="line"/>
      <point x="625.3710000000001" y="91.88" type="line"/>
      <point x="579.7199999999999" y="72.688"/>
      <point x="512.371" y="59.809"/>
      <point x="432.518" y="59.809" type="curve" smooth="yes"/>
      <point x="272.91" y="59.809"/>
      <point x="155.404" y="126.53899999999999"/>
      <point x="155.404" y="275.532" type="curve" smooth="yes"/>
      <point x="155.404" y="492.847"/>
      <point x="294.131" y="635.6650000000001"/>
      <point x="515.9259999999999" y="635.6650000000001" type="curve" smooth="yes"/>
      <point x="603.605" y="635.6650000000001"/>
      <point x="668.7370000000001" y="624.828"/>
      <point x="748.5669999999999" y="603.09" type="curve"/>
      <point x="776.443" y="673.152" type="line"/>
      <point x="697.913" y="697.84"/>
      <point x="610.1929999999999" y="710.0"/>
      <point x="514.759" y="710.0" type="curve" smooth="yes"/>
      <point x="228.007" y="710.0"/>
      <point x="61.291000000000004" y="535.184"/>
      <point x="61.291000000000004" y="266.865" type="curve" smooth="yes"/>
      <point x="61.291000000000004" y="81.81"/>
      <point x="208.666" y="-10.0"/>
    </contour>
  </outline>
</glyph>
<glyph name="H" format="2">
  <advance width="867.8639999999999"/>
  <unicode hex="0048"/>
  <anchor x="390.629092" y="0.0" name="bottom"/>
  <anchor x="446.181047" y="350.0" name="center"/>
  <anchor x="501.5252089999999" y="700.0" name="top"/>
  <anchor x="86.834209" y="700.0" name="topleft"/>
  <outline>
    <contour>
      <point x="48.742" y="0.0" type="line"/>
      <point x="142.225" y="0.0" type="line"/>
      <point x="184.877" y="270.044" type="line"/>
      <point x="682.224" y="270.044" type="line"/>
      <point x="639.231" y="0.0" type="line"/>
      <point x="730.461" y="0.0" type="line"/>
      <point x="842.329" y="700.0" type="line"/>
      <point x="751.223" y="700.0" type="line"/>
      <point x="694.648" y="347.69599999999997" type="line"/>
      <point x="197.094" y="347.69599999999997" type="line"/>
      <point x="253.886" y="700.0" type="line"/>
      <point x="160.40300000000002" y="700.0" type="line"/>
    </contour>
  </outline>
</glyph>
<glyph name="I" format="2">
  <advance width="279.42099999999994"/>
  <unicode hex="0049"/>
  <anchor x="96.207744" y="0.0" name="bottom"/>
  <anchor x="142.299604" y="0.9300000000000002" name="ogonek"/>
  <anchor x="207.132288" y="700.0" name="top"/>
  <anchor x="101.105109" y="700.0" name="topleft"/>
  <outline>
    <contour>
      <point x="48.742" y="0.0" type="line"/>
      <point x="142.018" y="0.0" type="line"/>
      <point x="253.886" y="700.0" type="line"/>
      <point x="160.40300000000002" y="700.0" type="line"/>
    </contour>
  </outline>
</glyph>
<glyph name="J" format="2">
  <advance width="608.366"/>
  <unicode hex="004A"/>
  <anchor x="248.26429199999998" y="0.0" name="bottom"/>
  <anchor x="370.62399999999997" y="700.0" name="top"/>
  <outline>
    <contour>
      <point x="-18.021000000000004" y="29.659999999999997" type="line"/>
      <point x="44.9" y="8.729999999999999"/>
      <point x="117.35099999999998" y="-10.0"/>
      <point x="221.72299999999998" y="-10.0" type="curve" smooth="yes"/>
      <point x="387.14899999999994" y="-10.0"/>
      <point x="492.669" y="67.60399999999998"/>
      <point x="521.236" y="239.71800000000002" type="curve" smooth="yes"/>
      <point x="595.034" y="700.0" type="line"/>
      <point x="142.884" y="700.0" type="line"/>
      <point x="130.119" y="622.379" type="line"/>
      <point x="488.993" y="622.379" type="line"/>
      <point x="430.02899999999994" y="253.04699999999997" type="line" smooth="yes"/>
      <point x="408.92199999999997" y="119.097"/>
      <point x="324.68499999999995" y="68.086"/>
      <point x="214.162" y="68.086" type="curve" smooth="yes"/>
      <point x="126.38499999999999" y="68.086"/>
      <point x="66.334" y="87.134"/>
      <point x="6.632999999999998" y="105.55299999999998" type="curve"/>
    </contour>
  </outline>
</glyph>
<glyph name="K" format="2">
  <advance width="777.0939999999999"/>
  <unicode hex="004B"/>
  <anchor x="358.24" y="0.0" name="bottom"/>
  <anchor x="450.53" y="700.0" name="top"/>
  <outline>
    <contour>
      <point x="48.56599999999999" y="0.0" type="line"/>
      <point x="142.218" y="0.0" type="line"/>
      <point x="253.58599999999998" y="700.0" type="line"/>
      <point x="161.05399999999997" y="700.0" type="line"/>
    </contour>
    <contour>
      <point x="694.8240000000001" y="-9.686" type="curve" smooth="yes"/>
      <point x="701.548" y="-9.686"/>
      <point x="717.4100000000001" y="-8.508000000000001"/>
      <point x="723.8979999999999" y="-6.388" type="curve"/>
      <point x="733.6279999999999" y="75.59599999999999" type="line"/>
      <point x="728.206" y="75.782"/>
      <point x="723.2179999999998" y="75.282"/>
      <point x="717.9159999999998" y="75.282" type="curve" smooth="yes"/>
      <point x="667.024" y="75.282"/>
      <point x="628.8" y="96.616"/>
      <point x="553.7559999999999" y="159.44400000000002" type="curve" smooth="yes"/>
      <point x="197.57599999999996" y="458.478" type="line"/>
      <point x="182.54799999999997" y="363.306" type="line"/>
      <point x="491.258" y="92.87599999999999" type="line" smooth="yes"/>
      <point x="577.524" y="20.52"/>
      <point x="631.192" y="-9.686"/>
    </contour>
    <contour>
      <point x="340.25399999999996" y="304.24399999999997" type="line"/>
      <point x="475.904" y="364.926"/>
      <point x="689.508" y="499.45000000000005"/>
      <point x="801.4739999999999" y="664.412" type="curve"/>
      <point x="738.862" y="711.24" type="line"/>
      <point x="609.716" y="542.162"/>
      <point x="411.342" y="416.97799999999995"/>
      <point x="282.85799999999995" y="356.626" type="curve"/>
    </contour>
  </outline>
</glyph>
<glyph name="L" format="2">
  <advance width="653.168"/>
  <unicode hex="004C"/>
  <anchor x="321.308" y="0.0" name="bottom"/>
  <anchor x="336.349047" y="350.0" name="center"/>
  <anchor x="206.696" y="700.0" name="top"/>
  <anchor x="489.35699999999997" y="700.0" name="topright"/>
  <outline>
    <contour>
      <point x="48.535" y="0.0" type="line"/>
      <point x="590.973" y="0.0" type="line"/>
      <point x="604.048" y="76.62899999999999" type="line"/>
      <point x="154.452" y="76.62899999999999" type="line"/>
      <point x="253.679" y="700.0" type="line"/>
      <point x="160.40300000000002" y="700.0" type="line"/>
    </contour>
  </outline>
</glyph>
<glyph name="M" format="2">
  <advance width="973.0319999999999"/>
  <unicode hex="004D"/>
  <outline>
    <contour>
      <point x="48.44199999999999" y="0.0" type="line"/>
      <point x="137.17299999999997" y="0.0" type="line"/>
      <point x="227.39" y="578.6980000000001" type="line"/>
      <point x="457.00299999999993" y="230.27800000000002" type="line"/>
      <point x="499.71999999999997" y="230.27800000000002" type="line"/>
      <point x="842.2889999999999" y="580.7090000000001" type="line"/>
      <point x="748.7389999999999" y="0.0" type="line"/>
      <point x="835.6289999999999" y="0.0" type="line"/>
      <point x="947.4969999999998" y="700.0" type="line"/>
      <point x="849.396" y="700.0" type="line"/>
      <point x="491.56999999999994" y="326.709" type="line"/>
      <point x="251.82299999999998" y="700.0" type="line"/>
      <point x="160.403" y="700.0" type="line"/>
    </contour>
  </outline>
</glyph>
<glyph name="N" format="2">
  <advance width="853.6149999999999"/>
  <unicode hex="004E"/>
  <anchor x="380.46882" y="0.0" name="bottom"/>
  <anchor x="495.46851499999997" y="700.0" name="top"/>
  <outline>
    <contour>
      <point x="48.879999999999995" y="0.0" type="line"/>
      <point x="134.445" y="0.0" type="line"/>
      <point x="224.98000000000002" y="571.3599999999999" type="line"/>
      <point x="631.8949999999999" y="-4.83" type="line"/>
      <point x="715.305" y="-4.83" type="line"/>
      <point x="828.0799999999999" y="700.0" type="line"/>
      <point x="742.7049999999999" y="700.0" type="line"/>
      <point x="650.93" y="121.97500000000001" type="line"/>
      <point x="245.755" y="704.83" type="line"/>
      <point x="161.655" y="704.83" type="line"/>
    </contour>
  </outline>
</glyph>
<glyph name="O" format="2">
  <advance width="886.31"/>
  <unicode hex="004F"/>
  <note>
8
</note>
  <anchor x="401.34436" y="0.0" name="bottom"/>
  <anchor x="457.23701" y="350.0" name="center"/>
  <anchor x="490.09" y="1.1102230246251565e-16" name="ogonek"/>
  <anchor x="501.42999999999984" y="700.0" name="top"/>
  <anchor x="93.09" y="700.0" name="topleft"/>
  <anchor x="719.1999999999999" y="674.4399999999999" name="topright"/>
  <outline>
    <contour>
      <point x="428.56999999999994" y="-9.07" type="curve" smooth="yes"/>
      <point x="694.04" y="-9.07"/>
      <point x="843.73" y="152.84"/>
      <point x="843.73" y="406.43999999999994" type="curve" smooth="yes"/>
      <point x="843.73" y="603.4699999999999"/>
      <point x="724.2499999999999" y="709.38"/>
      <point x="481.43" y="709.38" type="curve" smooth="yes"/>
      <point x="215.95999999999998" y="709.38"/>
      <point x="66.27" y="547.47"/>
      <point x="66.27" y="293.87000000000006" type="curve" smooth="yes"/>
      <point x="66.27" y="96.84"/>
      <point x="185.75" y="-9.07"/>
    </contour>
    <contour>
      <point x="433.65" y="62.44" type="curve" smooth="yes"/>
      <point x="252.18999999999997" y="62.44"/>
      <point x="160.91" y="139.67"/>
      <point x="160.91" y="295.13" type="curve" smooth="yes"/>
      <point x="160.91" y="498.4599999999999"/>
      <point x="271.59999999999997" y="637.87"/>
      <point x="476.65999999999997" y="637.87" type="curve" smooth="yes"/>
      <point x="657.8100000000001" y="637.87"/>
      <point x="749.0899999999999" y="560.64"/>
      <point x="749.0899999999999" y="405.18" type="curve" smooth="yes"/>
      <point x="749.0899999999999" y="201.85000000000002"/>
      <point x="638.4" y="62.44"/>
    </contour>
  </outline>
</glyph>
<glyph name="P" format="2">
  <advance width="788.15"/>
  <unicode hex="0050"/>
  <outline>
    <contour>
      <point x="48.879999999999995" y="0.0" type="line"/>
      <point x="141.815" y="0.0" type="line"/>
      <point x="179.475" y="232.655" type="line"/>
      <point x="268.69" y="229.345"/>
      <point x="315.87500000000006" y="228.155"/>
      <point x="394.06999999999994" y="228.155" type="curve" smooth="yes"/>
      <point x="666.3000000000001" y="228.155"/>
      <point x="779.3299999999998" y="315.78999999999996"/>
      <point x="780.3649999999999" y="505.32499999999993" type="curve" smooth="yes"/>
      <point x="780.7099999999998" y="652.365"/>
      <point x="683.3199999999999" y="710.0"/>
      <point x="442.56499999999994" y="710.0" type="curve" smooth="yes"/>
      <point x="396.69" y="710.0"/>
      <point x="327.56000000000006" y="707.69"/>
      <point x="160.965" y="700.8449999999999" type="curve"/>
    </contour>
    <contour>
      <point x="242.84" y="631.385" type="line"/>
      <point x="345.78499999999997" y="636.11"/>
      <point x="391.16499999999996" y="637.99"/>
      <point x="443.12999999999994" y="637.99" type="curve" smooth="yes"/>
      <point x="620.8799999999999" y="637.99"/>
      <point x="684.795" y="600.3100000000001"/>
      <point x="684.795" y="494.78" type="curve" smooth="yes"/>
      <point x="684.795" y="367.885"/>
      <point x="605.72" y="300.94"/>
      <point x="392.9549999999999" y="300.94" type="curve" smooth="yes"/>
      <point x="326.295" y="300.94"/>
      <point x="276.605" y="302.975"/>
      <point x="191.30999999999997" y="305.63" type="curve"/>
    </contour>
  </outline>
</glyph>
<glyph name="Q" format="2">
  <advance width="885.9989999999999"/>
  <unicode hex="0051"/>
  <note>
14
</note>
  <outline>
    <contour>
      <point x="620.0939999999999" y="-204.497" type="curve" smooth="yes"/>
      <point x="665.0429999999999" y="-204.497"/>
      <point x="703.2599999999999" y="-194.857"/>
      <point x="739.8779999999999" y="-177.42999999999998" type="curve"/>
      <point x="737.0459999999999" y="-107.017" type="line"/>
      <point x="707.0199999999999" y="-122.733"/>
      <point x="677.375" y="-129.56300000000002"/>
      <point x="644.019" y="-129.56300000000002" type="curve" smooth="yes"/>
      <point x="566.3910000000001" y="-129.56300000000002"/>
      <point x="500.278" y="-78.38900000000001"/>
      <point x="477.796" y="10.202" type="curve"/>
      <point x="392.614" y="1.1569999999999998" type="line"/>
      <point x="425.44399999999996" y="-142.076"/>
      <point x="516.4389999999999" y="-204.497"/>
    </contour>
    <component base="O"/>
  </outline>
</glyph>
<glyph name="R" format="2">
  <advance width="819.39"/>
  <unicode hex="0052"/>
  <anchor x="389.80999999999995" y="0.0" name="bottom"/>
  <anchor x="434.65000000000003" y="700.0" name="top"/>
  <outline>
    <contour>
      <point x="49.06999999999999" y="0.0" type="line"/>
      <point x="142.77999999999997" y="0.0" type="line"/>
      <point x="187.01" y="274.34999999999997" type="line"/>
      <point x="275.3" y="272.15999999999997"/>
      <point x="355.05" y="271.28"/>
      <point x="458.0899999999999" y="270.96999999999997" type="curve"/>
      <point x="483.09999999999997" y="274.38" type="line"/>
      <point x="664.6500000000001" y="275.19"/>
      <point x="770.9499999999999" y="364.83"/>
      <point x="770.9499999999999" y="517.36" type="curve" smooth="yes"/>
      <point x="770.9499999999999" y="647.8100000000001"/>
      <point x="694.67" y="710.0"/>
      <point x="438.84999999999997" y="710.0" type="curve" smooth="yes"/>
      <point x="356.0799999999999" y="710.0"/>
      <point x="278.83000000000004" y="707.6899999999999"/>
      <point x="161.0" y="701.5699999999999" type="curve"/>
    </contour>
    <contour>
      <point x="748.06" y="-10.0" type="curve" smooth="yes"/>
      <point x="754.7299999999999" y="-10.0"/>
      <point x="769.5299999999999" y="-8.69"/>
      <point x="775.5799999999999" y="-7.07" type="curve"/>
      <point x="783.93" y="73.12" type="line"/>
      <point x="778.81" y="71.93"/>
      <point x="770.95" y="71.93"/>
      <point x="766.9" y="71.93" type="curve" smooth="yes"/>
      <point x="700.74" y="72.12"/>
      <point x="603.5999999999999" y="158.55999999999997"/>
      <point x="512.1000000000001" y="306.51000000000005" type="curve"/>
      <point x="413.40999999999997" y="286.71999999999997" type="line"/>
      <point x="532.5" y="100.57999999999998"/>
      <point x="642.53" y="-10.0"/>
    </contour>
    <contour>
      <point x="452.53" y="340.81000000000006" type="curve" smooth="yes"/>
      <point x="340.36" y="340.81000000000006"/>
      <point x="268.5" y="342.31000000000006"/>
      <point x="198.26" y="345.93000000000006" type="curve"/>
      <point x="243.53" y="634.9" type="line"/>
      <point x="326.37999999999994" y="639.2800000000001"/>
      <point x="355.39" y="640.66"/>
      <point x="434.48999999999995" y="640.66" type="curve" smooth="yes"/>
      <point x="624.25" y="640.66"/>
      <point x="673.0199999999999" y="603.8799999999999"/>
      <point x="673.0199999999999" y="510.7300000000001" type="curve" smooth="yes"/>
      <point x="673.0199999999999" y="395.26"/>
      <point x="592.8399999999999" y="340.81000000000006"/>
    </contour>
  </outline>
</glyph>
<glyph name="S" format="2">
  <advance width="732.17"/>
  <unicode hex="0053"/>
  <anchor x="330.99999999999994" y="0.0" name="bottom"/>
  <anchor x="436.81" y="700.0" name="top"/>
  <outline>
    <contour>
      <point x="703.2600000000001" y="671.4999999999999" type="line"/>
      <point x="611.11" y="697.8799999999999"/>
      <point x="538.9699999999999" y="710.0"/>
      <point x="448.4099999999999" y="710.0" type="curve" smooth="yes"/>
      <point x="213.96999999999997" y="710.0"/>
      <point x="95.56999999999998" y="633.0199999999999"/>
      <point x="95.56999999999998" y="506.31" type="curve" smooth="yes"/>
      <point x="95.56999999999998" y="259.78999999999996"/>
      <point x="578.3599999999999" y="357.21"/>
      <point x="578.17" y="184.28" type="curve" smooth="yes"/>
      <point x="578.17" y="111.26999999999998"/>
      <point x="504.62000000000006" y="62.2"/>
      <point x="346.21" y="62.2" type="curve" smooth="yes"/>
      <point x="239.29" y="62.2"/>
      <point x="119.64999999999999" y="84.82"/>
      <point x="26.609999999999996" y="117.17999999999999" type="curve"/>
      <point x="-3.1599999999999997" y="44.05" type="line"/>
      <point x="97.96" y="10.049999999999999"/>
      <point x="215.90000000000003" y="-10.0"/>
      <point x="328.64000000000004" y="-10.0" type="curve" smooth="yes"/>
      <point x="572.3399999999998" y="-10.0"/>
      <point x="675.79" y="69.25"/>
      <point x="675.79" y="197.63" type="curve" smooth="yes"/>
      <point x="676.2899999999998" y="433.98999999999995"/>
      <point x="192.69" y="345.13"/>
      <point x="192.69" y="514.15" type="curve" smooth="yes"/>
      <point x="192.69" y="592.02"/>
      <point x="279.94" y="636.94"/>
      <point x="428.48" y="636.94" type="curve" smooth="yes"/>
      <point x="519.88" y="636.94"/>
      <point x="599.32" y="623.9399999999999"/>
      <point x="674.6099999999999" y="597.9399999999999" type="curve"/>
    </contour>
  </outline>
</glyph>
<glyph name="T" format="2">
  <advance width="671.144"/>
  <unicode hex="0054"/>
  <anchor x="291.61329199999994" y="0.0" name="bottom"/>
  <anchor x="347.502304" y="350.0" name="center"/>
  <anchor x="402.75228799999996" y="700.0" name="top"/>
  <outline>
    <contour>
      <point x="714.5279999999999" y="627.184" type="line"/>
      <point x="727.386" y="700.0" type="line"/>
      <point x="79.37" y="700.0" type="line"/>
      <point x="66.29499999999999" y="627.184" type="line"/>
      <point x="344.17499999999995" y="627.184" type="line"/>
      <point x="244.85499999999996" y="0.0" type="line"/>
      <point x="338.13100000000003" y="0.0" type="line"/>
      <point x="437.234" y="627.184" type="line"/>
    </contour>
  </outline>
</glyph>
<glyph name="U" format="2">
  <advance width="843.6279999999999"/>
  <unicode hex="0055"/>
  <anchor x="378.30163999999996" y="0.0" name="bottom"/>
  <anchor x="453.83399999999995" y="0.0" name="ogonek"/>
  <anchor x="486.91502999999994" y="700.0" name="top"/>
  <anchor x="827.072" y="700.0" name="topright"/>
  <outline>
    <contour>
      <point x="375.327" y="-10.0" type="curve" smooth="yes"/>
      <point x="605.071" y="-10.0"/>
      <point x="730.007" y="73.94999999999999"/>
      <point x="757.9019999999999" y="246.69399999999996" type="curve" smooth="yes"/>
      <point x="830.2959999999999" y="700.0" type="line"/>
      <point x="738.332" y="700.0" type="line"/>
      <point x="666.075" y="250.104" type="line" smooth="yes"/>
      <point x="646.5870000000001" y="126.51999999999998"/>
      <point x="553.6089999999999" y="64.428"/>
      <point x="388.568" y="64.428" type="curve" smooth="yes"/>
      <point x="230.56900000000002" y="64.428"/>
      <point x="149.39" y="129.20000000000002"/>
      <point x="168.29100000000003" y="247.413" type="curve" smooth="yes"/>
      <point x="240.316" y="700.0" type="line"/>
      <point x="148.559" y="700.0" type="line"/>
      <point x="76.234" y="246.34899999999996" type="line" smooth="yes"/>
      <point x="72.55499999999999" y="220.88899999999998"/>
      <point x="71.669" y="208.474"/>
      <point x="71.669" y="194.25399999999996" type="curve" smooth="yes"/>
      <point x="71.669" y="60.355999999999995"/>
      <point x="176.991" y="-10.0"/>
    </contour>
  </outline>
</glyph>
<glyph name="V" format="2">
  <advance width="722.097"/>
  <unicode hex="0056"/>
  <outline>
    <contour>
      <point x="357.9969999999999" y="0.0" type="line"/>
      <point x="700.89" y="492.62699999999995"/>
      <point x="757.76" y="594.75"/>
      <point x="765.665" y="674.5849999999999" type="curve" smooth="yes"/>
      <point x="766.13" y="683.492"/>
      <point x="765.7499999999999" y="692.217"/>
      <point x="764.552" y="700.0" type="curve"/>
      <point x="664.952" y="700.0" type="line"/>
      <point x="666.4599999999998" y="691.67"/>
      <point x="667.3319999999999" y="683.937"/>
      <point x="667.3319999999999" y="676.325" type="curve" smooth="yes"/>
      <point x="667.332" y="597.665"/>
      <point x="600.741" y="493.47599999999994"/>
      <point x="323.34899999999993" y="87.17" type="curve"/>
      <point x="170.38" y="705.3919999999999" type="line"/>
      <point x="71.62499999999999" y="701.0350000000001" type="line"/>
      <point x="258.102" y="0.0" type="line"/>
    </contour>
  </outline>
</glyph>
<glyph name="W" format="2">
  <advance width="1049.8499999999997"/>
  <unicode hex="0057"/>
  <anchor x="474.1499999999999" y="0.0" name="bottom"/>
  <anchor x="591.2499999999999" y="700.0" name="top"/>
  <outline>
    <contour>
      <point x="772.43" y="-0.19000000000000006" type="line"/>
      <point x="1025.82" y="458.21000000000004"/>
      <point x="1091.7599999999998" y="609.45"/>
      <point x="1092.3799999999999" y="680.1200000000001" type="curve" smooth="yes"/>
      <point x="1092.3799999999999" y="686.6200000000001"/>
      <point x="1091.88" y="694.0500000000001"/>
      <point x="1090.5" y="700.0" type="curve"/>
      <point x="1000.1299999999999" y="700.0" type="line"/>
      <point x="1001.01" y="693.19"/>
      <point x="1001.5799999999999" y="687.45"/>
      <point x="1001.27" y="678.2600000000001" type="curve" smooth="yes"/>
      <point x="996.93" y="595.47"/>
      <point x="950.7899999999998" y="494.7099999999999"/>
      <point x="730.54" y="88.09" type="curve"/>
      <point x="637.18" y="650.5300000000001" type="line"/>
      <point x="531.05" y="650.5300000000001" type="line"/>
      <point x="446.18000000000006" y="464.63"/>
      <point x="357.4" y="276.54"/>
      <point x="264.78000000000003" y="91.69000000000001" type="curve"/>
      <point x="168.54" y="700.0" type="line"/>
      <point x="72.71000000000001" y="700.0" type="line"/>
      <point x="193.62" y="-0.19000000000000006" type="line"/>
      <point x="295.51" y="-0.19000000000000006" type="line"/>
      <point x="388.82" y="182.01000000000002"/>
      <point x="482.44" y="365.57000000000005"/>
      <point x="568.93" y="544.67" type="curve"/>
      <point x="666.1999999999999" y="-0.19000000000000006" type="line"/>
    </contour>
  </outline>
</glyph>
<glyph name="X" format="2">
  <advance width="731.63"/>
  <unicode hex="0058"/>
  <outline>
    <contour>
      <point x="582.13" y="-5.0200000000000005" type="line"/>
      <point x="687.7699999999999" y="2.379999999999999" type="line"/>
      <point x="432.69999999999993" y="355.40999999999997" type="line"/>
      <point x="603.41" y="482.75"/>
      <point x="717.7900000000001" y="578.1999999999999"/>
      <point x="754.9300000000001" y="700.88" type="curve"/>
      <point x="649.1499999999999" y="705.0200000000001" type="line"/>
      <point x="618.98" y="597.48"/>
      <point x="535.1" y="522.6600000000001"/>
      <point x="395.35" y="417.84000000000003" type="curve"/>
      <point x="197.46" y="705.33" type="line"/>
      <point x="92.79999999999998" y="697.55" type="line"/>
      <point x="323.59999999999997" y="374.98" type="line"/>
      <point x="149.73" y="251.81"/>
      <point x="23.109999999999992" y="133.80999999999997"/>
      <point x="2.2899999999999974" y="0.0" type="curve"/>
      <point x="108.78" y="0.0" type="line"/>
      <point x="129.99999999999997" y="119.80000000000001"/>
      <point x="220.29999999999998" y="209.07999999999998"/>
      <point x="361.76" y="310.69" type="curve"/>
    </contour>
  </outline>
</glyph>
<glyph name="Y" format="2">
  <advance width="685.1679999999999"/>
  <unicode hex="0059"/>
  <anchor x="294.89" y="0.0" name="bottom"/>
  <anchor x="414.61500000000007" y="700.0" name="top"/>
  <anchor x="80.841" y="700.0" name="topleft"/>
  <outline>
    <contour>
      <point x="261.32200000000006" y="0.0" type="line"/>
      <point x="353.234" y="0.0" type="line"/>
      <point x="400.04900000000004" y="278.491" type="line"/>
      <point x="616.2529999999999" y="470.286"/>
      <point x="687.0409999999999" y="559.003"/>
      <point x="724.7470000000001" y="662.813" type="curve" smooth="yes"/>
      <point x="729.379" y="674.98"/>
      <point x="734.1969999999999" y="687.74"/>
      <point x="738.3559999999999" y="700.907" type="curve"/>
      <point x="638.144" y="705.799" type="line"/>
      <point x="634.105" y="692.066"/>
      <point x="629.9069999999999" y="679.74"/>
      <point x="625.3019999999999" y="666.507" type="curve" smooth="yes"/>
      <point x="591.46" y="570.558"/>
      <point x="538.105" y="497.358"/>
      <point x="360.95599999999996" y="345.986" type="curve"/>
      <point x="167.061" y="705.458" type="line"/>
      <point x="66.834" y="698.7750000000001" type="line"/>
      <point x="306.88899999999995" y="278.491" type="line"/>
    </contour>
  </outline>
</glyph>
<glyph name="Z" format="2">
  <advance width="706.2699999999999"/>
  <unicode hex="005A"/>
  <anchor x="314.0" y="0.0" name="bottom"/>
  <anchor x="362.4099999999999" y="350.0" name="center"/>
  <anchor x="415.93" y="700.0" name="top"/>
  <outline>
    <contour>
      <point x="-13.050000000000004" y="0.0" type="line"/>
      <point x="640.4300000000001" y="0.0" type="line"/>
      <point x="652.1099999999999" y="72.00999999999999" type="line"/>
      <point x="122.32" y="72.00999999999999" type="line"/>
      <point x="711.7600000000001" y="634.16" type="line"/>
      <point x="722.1299999999999" y="700.0" type="line"/>
      <point x="126.53999999999999" y="700.0" type="line"/>
      <point x="114.85999999999999" y="627.99" type="line"/>
      <point x="589.0" y="627.99" type="line"/>
      <point x="-2.490000000000004" y="65.22" type="line"/>
    </contour>
  </outline>
</glyph>
<glyph name="bracketleft" format="2">
  <advance width="386.44100000000003"/>
  <unicode hex="005B"/>
  <outline>
    <contour>
      <point x="115.154" y="-149.53" type="line"/>
      <point x="247.072" y="680.0130000000001" type="line"/>
      <point x="428.807" y="680.0130000000001" type="line"/>
      <point x="438.627" y="740.0" type="line"/>
      <point x="186.28699999999998" y="740.0" type="line"/>
      <point x="35.153" y="-210.0" type="line"/>
      <point x="286.976" y="-210.0" type="line"/>
      <point x="296.88899999999995" y="-149.53" type="line"/>
    </contour>
  </outline>
</glyph>
<glyph name="backslash" format="2">
  <advance width="415.192"/>
  <unicode hex="005C"/>
  <outline>
    <contour>
      <point x="155.692" y="740.0" type="line"/>
      <point x="87.34299999999999" y="740.0" type="line"/>
      <point x="288.601" y="-210.0" type="line"/>
      <point x="356.857" y="-210.0" type="line"/>
    </contour>
  </outline>
</glyph>
<glyph name="bracketright" format="2">
  <advance width="386.44100000000003"/>
  <unicode hex="005D"/>
  <outline>
    <contour>
      <point x="-44.676" y="-149.53" type="line"/>
      <point x="-54.279" y="-210.0" type="line"/>
      <point x="196.85399999999998" y="-210.0" type="line"/>
      <point x="348.505" y="740.0" type="line"/>
      <point x="96.372" y="740.0" type="line"/>
      <point x="86.459" y="679.5300000000001" type="line"/>
      <point x="268.19399999999996" y="679.5300000000001" type="line"/>
      <point x="136.183" y="-149.53" type="line"/>
    </contour>
  </outline>
</glyph>
<glyph name="asciicircum" format="2">
  <advance width="513.216"/>
  <unicode hex="005E"/>
  <outline>
    <contour>
      <point x="46.323" y="257.40099999999995" type="line"/>
      <point x="118.338" y="257.40099999999995" type="line"/>
      <point x="310.33799999999997" y="620.862" type="line"/>
      <point x="390.213" y="257.40099999999995" type="line"/>
      <point x="461.169" y="257.40099999999995" type="line"/>
      <point x="362.194" y="706.9" type="line"/>
      <point x="286.70900000000006" y="706.9" type="line"/>
    </contour>
  </outline>
</glyph>
<glyph name="underscore" format="2">
  <advance width="868.2159999999999"/>
  <unicode hex="005F"/>
  <outline>
    <contour>
      <point x="-53.27100000000001" y="-158.847" type="line"/>
      <point x="783.861" y="-158.847" type="line"/>
      <point x="794.4870000000001" y="-93.933" type="line"/>
      <point x="-42.645" y="-93.933" type="line"/>
    </contour>
  </outline>
</glyph>
<glyph name="a" format="2">
  <advance width="665.8929999999999"/>
  <unicode hex="0061"/>
  <note>
15
</note>
  <anchor x="283.35382000000004" y="0.0" name="bottom"/>
  <anchor x="620.7499999999999" y="2.17" name="ogonek"/>
  <anchor x="376.813" y="536.2" name="top"/>
  <outline>
    <contour>
      <point x="556.924" y="-10.0" type="curve" smooth="yes"/>
      <point x="579.715" y="-10.0"/>
      <point x="604.41" y="-5.757000000000001"/>
      <point x="621.171" y="0.9070000000000005" type="curve"/>
      <point x="621.309" y="66.235" type="line"/>
      <point x="612.321" y="62.89600000000001"/>
      <point x="602.2129999999999" y="61.247"/>
      <point x="591.924" y="61.247" type="curve" smooth="yes"/>
      <point x="565.0479999999999" y="61.247"/>
      <point x="553.1539999999999" y="77.024"/>
      <point x="553.1539999999999" y="108.64500000000001" type="curve" smooth="yes"/>
      <point x="553.1539999999999" y="116.844"/>
      <point x="574.3019999999999" y="248.202"/>
      <point x="616.267" y="508.957" type="curve"/>
      <point x="563.102" y="531.185"/>
      <point x="474.22299999999996" y="546.2"/>
      <point x="394.202" y="546.2" type="curve" smooth="yes"/>
      <point x="177.22099999999998" y="546.2"/>
      <point x="36.297" y="414.404"/>
      <point x="36.297" y="195.273" type="curve" smooth="yes"/>
      <point x="36.297" y="60.219"/>
      <point x="117.605" y="-10.0"/>
      <point x="246.58099999999996" y="-10.0" type="curve" smooth="yes"/>
      <point x="323.926" y="-10.0"/>
      <point x="406.3689999999999" y="17.412"/>
      <point x="465.3189999999999" y="58.940999999999995" type="curve"/>
      <point x="476.31499999999994" y="15.994"/>
      <point x="512.414" y="-10.0"/>
    </contour>
    <contour>
      <point x="462.43" y="116.925" type="line"/>
      <point x="411.8939999999999" y="84.231"/>
      <point x="341.09" y="61.121"/>
      <point x="280.50199999999995" y="61.121" type="curve" smooth="yes"/>
      <point x="185.124" y="61.121"/>
      <point x="127.48299999999999" y="113.788"/>
      <point x="127.48299999999999" y="209.164" type="curve" smooth="yes"/>
      <point x="127.48299999999999" y="367.85"/>
      <point x="235.28199999999995" y="479.79900000000004"/>
      <point x="386.20199999999994" y="479.79900000000004" type="curve" smooth="yes"/>
      <point x="437.37800000000004" y="479.79900000000004"/>
      <point x="482.692" y="472.27900000000005"/>
      <point x="516.305" y="456.575" type="curve"/>
    </contour>
  </outline>
</glyph>
<glyph name="b" format="2">
  <advance width="661.067"/>
  <unicode hex="0062"/>
  <note>
12
</note>
  <outline>
    <contour>
      <point x="248.026" y="740.0" type="line"/>
      <point x="158.036" y="740.0" type="line"/>
      <point x="43.62199999999999" y="17.790999999999997" type="line"/>
      <point x="104.90799999999999" y="3.652999999999999"/>
      <point x="181.113" y="-10.0"/>
      <point x="267.62800000000004" y="-10.0" type="curve" smooth="yes"/>
      <point x="469.31399999999996" y="-10.0"/>
      <point x="624.713" y="126.94200000000001"/>
      <point x="624.558" y="348.18800000000005" type="curve" smooth="yes"/>
      <point x="624.558" y="470.651"/>
      <point x="561.885" y="546.2"/>
      <point x="436.093" y="546.2" type="curve" smooth="yes"/>
      <point x="351.23900000000003" y="546.2"/>
      <point x="279.49199999999996" y="512.761"/>
      <point x="203.575" y="463.18700000000007" type="curve"/>
    </contour>
    <contour>
      <point x="394.51399999999995" y="473.312" type="curve" smooth="yes"/>
      <point x="488.403" y="473.312"/>
      <point x="533.9480000000001" y="417.55199999999996"/>
      <point x="533.9480000000001" y="329.223" type="curve" smooth="yes"/>
      <point x="533.9480000000001" y="171.042"/>
      <point x="416.3949999999999" y="54.828"/>
      <point x="276.705" y="54.828" type="curve" smooth="yes"/>
      <point x="223.12199999999999" y="54.828"/>
      <point x="175.49" y="64.41699999999999"/>
      <point x="142.605" y="72.98700000000001" type="curve"/>
      <point x="194.065" y="398.73299999999995" type="line"/>
      <point x="268.002" y="448.8740000000001"/>
      <point x="331.171" y="473.312"/>
    </contour>
  </outline>
</glyph>
<glyph name="c" format="2">
  <advance width="599.68"/>
  <unicode hex="0063"/>
  <note>
10
</note>
  <anchor x="315.096" y="0.0" name="bottom"/>
  <anchor x="390.8" y="536.2" name="top"/>
  <outline>
    <contour>
      <point x="305.212" y="-10.0" type="curve" smooth="yes"/>
      <point x="392.61799999999994" y="-10.0"/>
      <point x="468.138" y="1.9059999999999988"/>
      <point x="531.4" y="21.968" type="curve"/>
      <point x="525.3879999999999" y="86.86" type="line"/>
      <point x="463.132" y="71.252"/>
      <point x="405.986" y="59.612"/>
      <point x="328.16599999999994" y="59.612" type="curve" smooth="yes"/>
      <point x="206.98" y="59.612"/>
      <point x="130.442" y="116.69999999999999"/>
      <point x="130.442" y="214.64200000000002" type="curve" smooth="yes"/>
      <point x="130.442" y="368.198"/>
      <point x="233.47199999999998" y="476.05"/>
      <point x="387.262" y="476.05" type="curve" smooth="yes"/>
      <point x="446.036" y="476.05"/>
      <point x="507.688" y="468.75800000000004"/>
      <point x="575.2679999999999" y="450.68800000000005" type="curve"/>
      <point x="598.122" y="519.13" type="line"/>
      <point x="534.1600000000001" y="537.2"/>
      <point x="462.272" y="546.2"/>
      <point x="391.502" y="546.2" type="curve" smooth="yes"/>
      <point x="172.492" y="546.2"/>
      <point x="39.635999999999996" y="413.45799999999997"/>
      <point x="39.635999999999996" y="204.17799999999997" type="curve" smooth="yes"/>
      <point x="39.635999999999996" y="69.86"/>
      <point x="133.004" y="-10.0"/>
    </contour>
  </outline>
</glyph>
<glyph name="d" format="2">
  <advance width="671.34"/>
  <unicode hex="0064"/>
  <note>
17
</note>
  <anchor x="286.266" y="0.0" name="bottom"/>
  <anchor x="334.86600000000004" y="294.51000000000005" name="center"/>
  <anchor x="404.0899999999999" y="740.0" name="top"/>
  <anchor x="730.1600000000001" y="740.0" name="topright"/>
  <outline>
    <contour>
      <point x="558.1139999999998" y="-10.0" type="curve" smooth="yes"/>
      <point x="577.6419999999999" y="-10.0"/>
      <point x="601.916" y="-6.026"/>
      <point x="620.212" y="1.0620000000000005" type="curve"/>
      <point x="618.9319999999999" y="66.39" type="line"/>
      <point x="610.4819999999999" y="63.010000000000005"/>
      <point x="600.146" y="61.401999999999994"/>
      <point x="589.5879999999999" y="61.401999999999994" type="curve" smooth="yes"/>
      <point x="564.4019999999999" y="61.401999999999994"/>
      <point x="550.932" y="76.28999999999999"/>
      <point x="550.932" y="103.61599999999999" type="curve" smooth="yes"/>
      <point x="550.932" y="113.874"/>
      <point x="629.488" y="605.9559999999999"/>
      <point x="650.5300000000001" y="740.0" type="curve"/>
      <point x="560.85" y="740.0" type="line"/>
      <point x="527.052" y="527.8320000000001" type="line"/>
      <point x="488.2339999999999" y="537.174"/>
      <point x="440.89799999999997" y="546.2"/>
      <point x="378.756" y="546.2" type="curve" smooth="yes"/>
      <point x="185.27999999999997" y="546.2"/>
      <point x="35.913999999999994" y="413.68799999999993"/>
      <point x="35.913999999999994" y="191.712" type="curve" smooth="yes"/>
      <point x="35.913999999999994" y="56.233999999999995"/>
      <point x="122.406" y="-10.0"/>
      <point x="243.29199999999997" y="-10.0" type="curve" smooth="yes"/>
      <point x="320.2099999999999" y="-10.0"/>
      <point x="409.0239999999999" y="18.57"/>
      <point x="462.676" y="54.455999999999996" type="curve"/>
      <point x="474.3619999999999" y="13.930000000000001"/>
      <point x="510.61" y="-10.0"/>
    </contour>
    <contour>
      <point x="275.71" y="61.699999999999996" type="curve" smooth="yes"/>
      <point x="188.726" y="61.699999999999996"/>
      <point x="126.98600000000002" y="110.566"/>
      <point x="126.98600000000002" y="203.12599999999998" type="curve" smooth="yes"/>
      <point x="126.98600000000002" y="359.52599999999995"/>
      <point x="236.96599999999998" y="479.95400000000006"/>
      <point x="382.06199999999995" y="479.95400000000006" type="curve" smooth="yes"/>
      <point x="439.948" y="479.95400000000006"/>
      <point x="482.426" y="470.706"/>
      <point x="516.6120000000001" y="462.25000000000006" type="curve"/>
      <point x="461.16399999999993" y="112.326" type="line"/>
      <point x="409.786" y="82.81599999999997"/>
      <point x="338.48199999999997" y="61.699999999999996"/>
    </contour>
  </outline>
</glyph>
<glyph name="e" format="2">
  <advance width="626.66"/>
  <unicode hex="0065"/>
  <note>
14 points
</note>
  <anchor x="300.5679999999999" y="0.0" name="bottom"/>
  <anchor x="468.97600000000006" y="9.658" name="ogonek"/>
  <anchor x="385.664" y="536.738" name="top"/>
  <outline>
    <contour>
      <point x="116.33399999999999" y="296.77000000000004" type="curve"/>
      <point x="114.928" y="237.806" type="line"/>
      <point x="168.62" y="231.71"/>
      <point x="236.16799999999998" y="229.57"/>
      <point x="305.39" y="234.07" type="curve" smooth="yes"/>
      <point x="498.55000000000007" y="246.918"/>
      <point x="605.1899999999999" y="306.846"/>
      <point x="605.1899999999999" y="409.712" type="curve" smooth="yes"/>
      <point x="605.1899999999999" y="495.38599999999997"/>
      <point x="520.63" y="546.2"/>
      <point x="389.14599999999996" y="546.2" type="curve" smooth="yes"/>
      <point x="169.39000000000001" y="546.2"/>
      <point x="40.206" y="411.0319999999999"/>
      <point x="40.206" y="214.566" type="curve" smooth="yes"/>
      <point x="40.206" y="75.234"/>
      <point x="140.15200000000002" y="-10.0"/>
      <point x="305.08799999999997" y="-10.0" type="curve" smooth="yes"/>
      <point x="390.004" y="-10.0"/>
      <point x="476.56000000000006" y="5.906"/>
      <point x="552.4" y="34.654" type="curve"/>
      <point x="541.1300000000001" y="100.672" type="line"/>
      <point x="461.30799999999994" y="71.65799999999999"/>
      <point x="384.57399999999996" y="57.752"/>
      <point x="321.58799999999997" y="57.752" type="curve" smooth="yes"/>
      <point x="193.52800000000002" y="57.752"/>
      <point x="129.77200000000002" y="116.75999999999999"/>
      <point x="129.77200000000002" y="219.95000000000002" type="curve" smooth="yes"/>
      <point x="129.77200000000002" y="378.86199999999997"/>
      <point x="231.28799999999998" y="481.85800000000006"/>
      <point x="377.688" y="481.85800000000006" type="curve" smooth="yes"/>
      <point x="464.83799999999997" y="481.85800000000006"/>
      <point x="513.7639999999999" y="453.506"/>
      <point x="513.7639999999999" y="400.088" type="curve" smooth="yes"/>
      <point x="513.7639999999999" y="335.624"/>
      <point x="428.9839999999999" y="302.04200000000003"/>
      <point x="282.496" y="292.75" type="curve" smooth="yes"/>
      <point x="224.016" y="288.87"/>
      <point x="165.092" y="289.478"/>
    </contour>
  </outline>
</glyph>
<glyph name="f" format="2">
  <advance width="416.381"/>
  <unicode hex="0066"/>
  <outline>
    <contour>
      <point x="-3.8430000000000106" y="-220.0" type="curve" smooth="yes"/>
      <point x="88.907" y="-220.0"/>
      <point x="139.36399999999998" y="-153.738"/>
      <point x="163.482" y="-1.6559999999999988" type="curve" smooth="yes"/>
      <point x="229.91700000000003" y="422.282" type="line"/>
      <point x="436.17800000000005" y="422.282" type="line"/>
      <point x="446.773" y="488.185" type="line"/>
      <point x="240.29500000000002" y="488.185" type="line"/>
      <point x="260.336" y="618.526"/>
      <point x="310.84299999999996" y="676.44"/>
      <point x="404.728" y="676.44" type="curve" smooth="yes"/>
      <point x="458.03499999999997" y="676.44"/>
      <point x="499.15999999999997" y="666.8249999999999"/>
      <point x="544.188" y="653.16" type="curve"/>
      <point x="566.453" y="720.6049999999999" type="line"/>
      <point x="510.44999999999993" y="740.243"/>
      <point x="456.854" y="750.0"/>
      <point x="400.118" y="750.0" type="curve" smooth="yes"/>
      <point x="258.812" y="750.0"/>
      <point x="178.40099999999998" y="668.5840000000001"/>
      <point x="150.22499999999997" y="488.185" type="curve"/>
      <point x="51.985" y="479.537" type="line"/>
      <point x="42.731" y="422.282" type="line"/>
      <point x="139.63" y="422.282" type="line"/>
      <point x="73.831" y="2.4489999999999945" type="line" smooth="yes"/>
      <point x="56.846" y="-104.53800000000001"/>
      <point x="32.23499999999999" y="-148.161"/>
      <point x="-23.888000000000012" y="-148.161" type="curve" smooth="yes"/>
      <point x="-37.28600000000001" y="-148.161"/>
      <point x="-50.77600000000001" y="-145.864"/>
      <point x="-66.737" y="-140.332" type="curve"/>
      <point x="-84.382" y="-206.18800000000002" type="line"/>
      <point x="-58.259" y="-215.843"/>
      <point x="-33.347" y="-220.0"/>
    </contour>
  </outline>
</glyph>
<glyph name="g" format="2">
  <advance width="660.752"/>
  <unicode hex="0067"/>
  <note>
16
</note>
  <anchor x="236.51000000000002" y="-215.76" name="bottom"/>
  <anchor x="377.752" y="536.2" name="top"/>
  <outline>
    <contour>
      <point x="6.427999999999997" y="-178.002" type="line"/>
      <point x="74.078" y="-203.248"/>
      <point x="158.94799999999998" y="-220.0"/>
      <point x="245.36999999999998" y="-220.0" type="curve" smooth="yes"/>
      <point x="416.8239999999999" y="-220.0"/>
      <point x="512.308" y="-132.028"/>
      <point x="538.8960000000001" y="38.77799999999999" type="curve" smooth="yes"/>
      <point x="614.074" y="511.352" type="line"/>
      <point x="565.0179999999999" y="531.0300000000001"/>
      <point x="473.468" y="546.2"/>
      <point x="401.44599999999997" y="546.2" type="curve" smooth="yes"/>
      <point x="154.932" y="546.2"/>
      <point x="35.717999999999996" y="391.498"/>
      <point x="35.717999999999996" y="191.20000000000002" type="curve" smooth="yes"/>
      <point x="35.717999999999996" y="71.086"/>
      <point x="114.59199999999998" y="0.22999999999999998"/>
      <point x="244.44000000000003" y="0.22999999999999998" type="curve" smooth="yes"/>
      <point x="303.80400000000003" y="0.22999999999999998"/>
      <point x="391.032" y="24.396"/>
      <point x="452.27399999999994" y="61.12599999999998" type="curve"/>
      <point x="448.20399999999995" y="34.25000000000001" type="line" smooth="yes"/>
      <point x="429.19" y="-94.26600000000002"/>
      <point x="358.552" y="-151.27400000000003"/>
      <point x="235.04399999999995" y="-151.27400000000003" type="curve" smooth="yes"/>
      <point x="167.01399999999998" y="-151.27400000000003"/>
      <point x="90.61599999999999" y="-135.49599999999998"/>
      <point x="29.428" y="-112.15400000000001" type="curve"/>
    </contour>
    <contour>
      <point x="515.574" y="459.324" type="curve"/>
      <point x="462.626" y="125.59" type="line"/>
      <point x="412.23" y="94.2"/>
      <point x="334.81" y="69.026"/>
      <point x="282.51399999999995" y="69.026" type="curve" smooth="yes"/>
      <point x="186.07399999999998" y="69.026"/>
      <point x="127.214" y="118.002"/>
      <point x="127.214" y="209.57999999999998" type="curve" smooth="yes"/>
      <point x="127.214" y="357.426"/>
      <point x="226.71200000000002" y="481.54799999999994"/>
      <point x="388.222" y="481.54799999999994" type="curve" smooth="yes"/>
      <point x="449.436" y="481.54799999999994"/>
      <point x="485.584" y="469.376"/>
    </contour>
  </outline>
</glyph>
<glyph name="h" format="2">
  <advance width="676.36"/>
  <unicode hex="0068"/>
  <note>
16
</note>
  <anchor x="308.28200000000004" y="0.0" name="bottom"/>
  <anchor x="357.148" y="375.58" name="center"/>
  <anchor x="410.95399999999995" y="740.0" name="top"/>
  <outline>
    <contour>
      <point x="566.212" y="100.93799999999999" type="curve" smooth="yes"/>
      <point x="566.212" y="140.668"/>
      <point x="608.8660000000001" y="356.964"/>
      <point x="608.8660000000001" y="411.41" type="curve" smooth="yes"/>
      <point x="608.8660000000001" y="492.322"/>
      <point x="560.746" y="546.2"/>
      <point x="453.08399999999995" y="546.2" type="curve" smooth="yes"/>
      <point x="363.174" y="546.2"/>
      <point x="291.76399999999995" y="515.6400000000001"/>
      <point x="205.458" y="473.5319999999999" type="curve"/>
      <point x="247.90200000000002" y="740.0" type="line"/>
      <point x="157.91199999999998" y="740.0" type="line"/>
      <point x="40.291999999999994" y="0.0" type="line"/>
      <point x="130.59199999999998" y="0.0" type="line"/>
      <point x="195.214" y="409.21999999999997" type="line"/>
      <point x="270.8239999999999" y="446.332"/>
      <point x="334.55800000000005" y="474.304"/>
      <point x="409.834" y="474.304" type="curve" smooth="yes"/>
      <point x="485.526" y="474.304"/>
      <point x="514.7760000000001" y="438.33799999999997"/>
      <point x="514.7760000000001" y="384.674" type="curve" smooth="yes"/>
      <point x="514.7760000000001" y="326.02200000000005"/>
      <point x="472.92600000000004" y="116.52"/>
      <point x="472.92600000000004" y="73.44800000000001" type="curve" smooth="yes"/>
      <point x="472.92600000000004" y="18.592000000000002"/>
      <point x="512.718" y="-10.0"/>
      <point x="567.888" y="-10.0" type="curve" smooth="yes"/>
      <point x="589.226" y="-10.0"/>
      <point x="617.0319999999999" y="-6.874"/>
      <point x="636.8340000000001" y="0.4359999999999999" type="curve"/>
      <point x="636.244" y="67.694" type="line"/>
      <point x="625.8380000000001" y="63.934"/>
      <point x="613.432" y="61.782"/>
      <point x="602.912" y="61.782" type="curve" smooth="yes"/>
      <point x="579.8340000000001" y="61.782"/>
      <point x="566.212" y="75.568"/>
    </contour>
  </outline>
</glyph>
<glyph name="i" format="2">
  <advance width="258.693"/>
  <unicode hex="0069"/>
  <note>
Ajuster pts sur points
8
</note>
  <anchor x="85.14434800000001" y="0.0" name="bottom"/>
  <anchor x="130.512" y="0.0" name="ogonek"/>
  <anchor x="170.581652" y="536.2" name="top"/>
  <outline>
    <contour>
      <point x="40.698" y="0.0" type="line"/>
      <point x="130.512" y="0.0" type="line"/>
      <point x="215.22499999999997" y="536.2" type="line"/>
      <point x="125.63799999999999" y="536.2" type="line"/>
    </contour>
    <contour>
      <point x="201.72699999999998" y="734.8" type="curve" smooth="yes"/>
      <point x="157.551" y="734.8"/>
      <point x="138.79899999999998" y="718.6999999999999"/>
      <point x="137.695" y="676.095" type="curve" smooth="yes"/>
      <point x="137.488" y="653.543"/>
      <point x="153.60399999999998" y="643.047"/>
      <point x="185.037" y="643.047" type="curve" smooth="yes"/>
      <point x="225.64499999999998" y="643.047"/>
      <point x="248.23100000000002" y="656.2950000000001"/>
      <point x="249.81799999999998" y="702.5450000000001" type="curve" smooth="yes"/>
      <point x="250.025" y="724.3969999999999"/>
      <point x="235.26500000000001" y="734.8"/>
    </contour>
  </outline>
</glyph>
<glyph name="j" format="2">
  <advance width="269.091"/>
  <unicode hex="006A"/>
  <note>
idem /i
12
</note>
  <outline>
    <contour>
      <point x="212.34199999999998" y="734.8" type="curve" smooth="yes"/>
      <point x="167.949" y="734.8"/>
      <point x="150.38" y="718.6999999999999"/>
      <point x="149.276" y="676.095" type="curve" smooth="yes"/>
      <point x="149.06900000000002" y="653.543"/>
      <point x="164.529" y="643.047"/>
      <point x="195.962" y="643.047" type="curve" smooth="yes"/>
      <point x="235.028" y="643.047"/>
      <point x="257.88" y="656.2950000000001"/>
      <point x="259.467" y="702.5450000000001" type="curve" smooth="yes"/>
      <point x="259.674" y="724.3969999999999"/>
      <point x="245.88" y="734.8"/>
    </contour>
    <contour>
      <point x="226.14999999999998" y="536.2" type="line"/>
      <point x="136.253" y="536.2" type="line"/>
      <point x="46.15899999999999" y="-34.814" type="line" smooth="yes"/>
      <point x="34.753" y="-107.095"/>
      <point x="12.502999999999997" y="-148.161"/>
      <point x="-38.544999999999995" y="-148.161" type="curve" smooth="yes"/>
      <point x="-51.37500000000001" y="-148.161"/>
      <point x="-68.24600000000001" y="-146.564"/>
      <point x="-87.061" y="-139.317" type="curve"/>
      <point x="-105.277" y="-208.39700000000002" type="line"/>
      <point x="-79.903" y="-216.89700000000002"/>
      <point x="-43.546" y="-220.0"/>
      <point x="-26.085000000000008" y="-220.0" type="curve" smooth="yes"/>
      <point x="72.64699999999999" y="-220.0"/>
      <point x="116.95599999999999" y="-153.611"/>
      <point x="136.141" y="-31.598999999999997" type="curve" smooth="yes"/>
    </contour>
  </outline>
</glyph>
<glyph name="k" format="2">
  <advance width="613.01"/>
  <unicode hex="006B"/>
  <anchor x="275.78999999999996" y="0.0" name="bottom"/>
  <anchor x="203.6" y="740.0" name="top"/>
  <outline>
    <contour>
      <point x="40.94999999999999" y="0.0" type="line"/>
      <point x="131.13" y="0.0" type="line"/>
      <point x="248.75000000000003" y="740.0" type="line"/>
      <point x="157.95000000000002" y="740.0" type="line"/>
    </contour>
    <contour>
      <point x="540.6" y="-10.0" type="curve" smooth="yes"/>
      <point x="551.27" y="-10.0"/>
      <point x="562.82" y="-7.81"/>
      <point x="572.1099999999999" y="-4.3100000000000005" type="curve"/>
      <point x="580.25" y="75.91" type="line"/>
      <point x="573.3199999999999" y="74.03"/>
      <point x="565.51" y="73.65"/>
      <point x="558.77" y="73.65" type="curve" smooth="yes"/>
      <point x="519.8799999999999" y="73.64999999999999"/>
      <point x="472.72999999999996" y="103.82999999999998"/>
      <point x="361.5799999999999" y="213.48999999999998" type="curve" smooth="yes"/>
      <point x="179.27" y="391.71" type="line"/>
      <point x="162.42" y="300.96000000000004" type="line"/>
      <point x="334.63999999999993" y="128.27999999999997" type="line" smooth="yes"/>
      <point x="436.94999999999993" y="26.359999999999996"/>
      <point x="486.79999999999995" y="-10.0"/>
    </contour>
    <contour>
      <point x="300.05999999999995" y="258.81" type="line"/>
      <point x="443.09" y="329.77000000000004"/>
      <point x="560.6999999999999" y="433.47"/>
      <point x="619.02" y="535.2" type="curve"/>
      <point x="519.5799999999999" y="546.0100000000001" type="line"/>
      <point x="451.7199999999999" y="439.43"/>
      <point x="379.16" y="373.1"/>
      <point x="229.39999999999995" y="296.06" type="curve"/>
    </contour>
  </outline>
</glyph>
<glyph name="l" format="2">
  <advance width="316.25100000000003"/>
  <unicode hex="006C"/>
  <anchor x="167.088" y="0.0" name="bottom"/>
  <anchor x="157.583302" y="375.425" name="center"/>
  <anchor x="203.01399999999998" y="740.0" name="top"/>
  <anchor x="327.85999999999996" y="740.0" name="topright"/>
  <outline>
    <contour>
      <point x="157.974" y="740.0" type="line"/>
      <point x="64.718" y="152.635" type="line" smooth="yes"/>
      <point x="62.273999999999994" y="136.206"/>
      <point x="59.173999999999985" y="113.69699999999999"/>
      <point x="59.173999999999985" y="93.86699999999999" type="curve" smooth="yes"/>
      <point x="59.173999999999985" y="30.037"/>
      <point x="91.751" y="-10.0"/>
      <point x="168.60599999999997" y="-10.0" type="curve" smooth="yes"/>
      <point x="209.79299999999998" y="-10.0"/>
      <point x="248.91" y="-2.5130000000000003"/>
      <point x="282.59099999999995" y="7.8549999999999995" type="curve"/>
      <point x="281.394" y="77.363" type="line"/>
      <point x="255.63799999999998" y="70.901"/>
      <point x="234.74" y="66.504"/>
      <point x="211.534" y="66.504" type="curve" smooth="yes"/>
      <point x="165.31" y="66.504"/>
      <point x="152.54000000000002" y="93.604"/>
      <point x="152.54000000000002" y="121.47099999999999" type="curve" smooth="yes"/>
      <point x="152.54000000000002" y="138.822"/>
      <point x="155.18599999999998" y="155.265"/>
      <point x="157.50699999999998" y="168.298" type="curve" smooth="yes"/>
      <point x="248.261" y="740.0" type="line"/>
    </contour>
  </outline>
</glyph>
<glyph name="m" format="2">
  <advance width="1010.602"/>
  <unicode hex="006D"/>
  <note>
24&gt;23 points
un point de trop dans la jointure avec 2e jambage
</note>
  <outline>
    <contour>
      <point x="901.913" y="-10.0" type="curve" smooth="yes"/>
      <point x="923.2819999999999" y="-10.0"/>
      <point x="951.2429999999999" y="-7.029"/>
      <point x="971.138" y="0.4979999999999998" type="curve"/>
      <point x="970.424" y="67.136" type="line"/>
      <point x="960.0799999999999" y="63.376"/>
      <point x="947.3949999999999" y="61.503"/>
      <point x="936.9369999999999" y="61.503" type="curve" smooth="yes"/>
      <point x="914.076" y="61.503"/>
      <point x="900.4509999999999" y="74.961"/>
      <point x="900.4509999999999" y="100.79599999999999" type="curve" smooth="yes"/>
      <point x="900.4509999999999" y="142.293"/>
      <point x="943.539" y="357.42900000000003"/>
      <point x="943.539" y="411.627" type="curve" smooth="yes"/>
      <point x="943.539" y="491.88800000000003"/>
      <point x="893.779" y="546.2"/>
      <point x="786.3649999999999" y="546.2" type="curve" smooth="yes"/>
      <point x="700.733" y="546.2"/>
      <point x="632.8349999999999" y="512.298"/>
      <point x="555.103" y="464.71000000000004" type="curve"/>
      <point x="538.852" y="513.337"/>
      <point x="497.45700000000005" y="546.2"/>
      <point x="419.921" y="546.2" type="curve" smooth="yes"/>
      <point x="345.28499999999997" y="546.2"/>
      <point x="275.387" y="515.6600000000001"/>
      <point x="197.702" y="470.664" type="curve"/>
      <point x="207.33" y="536.2" type="line"/>
      <point x="125.21400000000001" y="536.2" type="line"/>
      <point x="40.766999999999996" y="0.0" type="line"/>
      <point x="130.571" y="0.0" type="line"/>
      <point x="195.862" y="412.173" type="line"/>
      <point x="261.871" y="450.39799999999997"/>
      <point x="316.83799999999997" y="474.335"/>
      <point x="373.131" y="474.335" type="curve" smooth="yes"/>
      <point x="450.318" y="474.335"/>
      <point x="474.11499999999995" y="431.2"/>
      <point x="474.11499999999995" y="377.753" type="curve" smooth="yes"/>
      <point x="474.11499999999995" y="358.4789999999999"/>
      <point x="449.048" y="203.443"/>
      <point x="418.74699999999996" y="0.0" type="curve"/>
      <point x="507.79699999999997" y="0.0" type="line"/>
      <point x="536.7959999999999" y="194.058"/>
      <point x="558.112" y="330.949"/>
      <point x="563.4440000000001" y="378.03700000000003" type="curve" smooth="yes"/>
      <point x="563.754" y="387.087"/>
      <point x="564.118" y="401.5"/>
      <point x="563.2549999999999" y="409.81600000000003" type="curve"/>
      <point x="624.6949999999999" y="447.021"/>
      <point x="680.525" y="473.684"/>
      <point x="745.232" y="473.684" type="curve" smooth="yes"/>
      <point x="820.803" y="473.684"/>
      <point x="848.8419999999999" y="437.17299999999994"/>
      <point x="848.8419999999999" y="380.69100000000003" type="curve" smooth="yes"/>
      <point x="848.8419999999999" y="324.112"/>
      <point x="807.6610000000001" y="117.605"/>
      <point x="807.6610000000001" y="73.696" type="curve" smooth="yes"/>
      <point x="807.6610000000001" y="17.971999999999998"/>
      <point x="847.0219999999999" y="-10.0"/>
    </contour>
  </outline>
</glyph>
<glyph name="n" format="2">
  <advance width="676.256"/>
  <unicode hex="006E"/>
  <note>
16
</note>
  <anchor x="311.19599999999997" y="0.0" name="bottom"/>
  <anchor x="370.99099999999993" y="536.2" name="top"/>
  <outline>
    <contour>
      <point x="125.21400000000001" y="536.2" type="line"/>
      <point x="40.766999999999996" y="0.0" type="line"/>
      <point x="130.354" y="0.0" type="line"/>
      <point x="195.472" y="409.53" type="line"/>
      <point x="271.717" y="447.099"/>
      <point x="333.98900000000003" y="474.54200000000003"/>
      <point x="409.97799999999995" y="474.54200000000003" type="curve" smooth="yes"/>
      <point x="484.691" y="474.54200000000003"/>
      <point x="514.8299999999999" y="438.69199999999995"/>
      <point x="514.8299999999999" y="381.776" type="curve" smooth="yes"/>
      <point x="514.8299999999999" y="323.71"/>
      <point x="473.43199999999996" y="119.775"/>
      <point x="473.43199999999996" y="72.95199999999998" type="curve" smooth="yes"/>
      <point x="473.43199999999996" y="18.622999999999998"/>
      <point x="512.862" y="-10.0"/>
      <point x="567.753" y="-10.0" type="curve" smooth="yes"/>
      <point x="589.1219999999998" y="-10.0"/>
      <point x="616.8969999999999" y="-7.029"/>
      <point x="636.792" y="0.4979999999999998" type="curve"/>
      <point x="636.078" y="67.136" type="line"/>
      <point x="625.734" y="63.376"/>
      <point x="613.049" y="61.503"/>
      <point x="602.591" y="61.503" type="curve" smooth="yes"/>
      <point x="579.73" y="61.503"/>
      <point x="566.036" y="75.16499999999999"/>
      <point x="566.036" y="100.72099999999999" type="curve" smooth="yes"/>
      <point x="566.036" y="140.544"/>
      <point x="609.2170000000001" y="356.778"/>
      <point x="609.2170000000001" y="411.069" type="curve" smooth="yes"/>
      <point x="609.2170000000001" y="495.112"/>
      <point x="555.5269999999999" y="546.2"/>
      <point x="452.11199999999997" y="546.2" type="curve" smooth="yes"/>
      <point x="360.125" y="546.2"/>
      <point x="283.62" y="515.285"/>
      <point x="197.945" y="469.0080000000001" type="curve"/>
      <point x="208.446" y="536.2" type="line"/>
    </contour>
  </outline>
</glyph>
<glyph name="o" format="2">
  <advance width="666.62"/>
  <unicode hex="006F"/>
  <note>
8
</note>
  <anchor x="305.81" y="0.0" name="bottom"/>
  <anchor x="336.00999999999993" y="272.93" name="center"/>
  <anchor x="392.09999999999997" y="0.7600000000000002" name="ogonek"/>
  <anchor x="364.75000000000006" y="536.2" name="top"/>
  <anchor x="495.71000000000004" y="531.0300000000001" name="topright"/>
  <outline>
    <contour>
      <point x="315.92999999999995" y="-10.0" type="curve" smooth="yes"/>
      <point x="518.71" y="-10.0"/>
      <point x="621.92" y="129.72000000000006"/>
      <point x="621.3" y="324.85" type="curve" smooth="yes"/>
      <point x="620.68" y="469.85999999999996"/>
      <point x="524.1899999999999" y="547.13"/>
      <point x="349.05" y="547.13" type="curve" smooth="yes"/>
      <point x="144.97999999999996" y="547.13"/>
      <point x="41.82" y="401.93"/>
      <point x="42.44" y="211.27999999999997" type="curve" smooth="yes"/>
      <point x="43.06" y="66.50999999999998"/>
      <point x="137.73999999999998" y="-10.0"/>
    </contour>
    <contour>
      <point x="314.75999999999993" y="54.69" type="curve" smooth="yes"/>
      <point x="195.30999999999997" y="54.69"/>
      <point x="131.80999999999997" y="105.78999999999999"/>
      <point x="131.80999999999997" y="215.76" type="curve" smooth="yes"/>
      <point x="131.80999999999997" y="359.43"/>
      <point x="204.03" y="482.44"/>
      <point x="349.17" y="482.44" type="curve" smooth="yes"/>
      <point x="466.31" y="482.44"/>
      <point x="531.31" y="430.69999999999993"/>
      <point x="531.31" y="323.28000000000003" type="curve" smooth="yes"/>
      <point x="531.31" y="173.39"/>
      <point x="459.8499999999999" y="54.69"/>
    </contour>
  </outline>
</glyph>
<glyph name="p" format="2">
  <advance width="661.705"/>
  <unicode hex="0070"/>
  <note>
14 point
</note>
  <outline>
    <contour>
      <point x="8.035999999999998" y="-210.0" type="line"/>
      <point x="97.199" y="-210.0" type="line"/>
      <point x="131.958" y="7.106999999999999" type="line"/>
      <point x="168.688" y="-1.2740000000000018"/>
      <point x="216.64100000000002" y="-9.845"/>
      <point x="274.012" y="-9.845" type="curve" smooth="yes"/>
      <point x="491.72" y="-9.845"/>
      <point x="624.558" y="138.815"/>
      <point x="624.558" y="346.73900000000003" type="curve" smooth="yes"/>
      <point x="624.558" y="473.998"/>
      <point x="559.021" y="546.2"/>
      <point x="436.594" y="546.2" type="curve" smooth="yes"/>
      <point x="345.504" y="546.2"/>
      <point x="275.051" y="511.53900000000004"/>
      <point x="197.065" y="461.50000000000006" type="curve"/>
      <point x="207.51500000000001" y="538.27" type="line"/>
      <point x="125.69" y="538.27" type="line"/>
    </contour>
    <contour>
      <point x="272.84099999999995" y="54.828" type="curve" smooth="yes"/>
      <point x="219.25799999999995" y="54.828"/>
      <point x="175.49" y="64.693"/>
      <point x="142.39799999999997" y="73.26299999999999" type="curve"/>
      <point x="193.58200000000002" y="398.25000000000006" type="line"/>
      <point x="263.655" y="446.25200000000007"/>
      <point x="330.032" y="473.312"/>
      <point x="394.82399999999996" y="473.312" type="curve" smooth="yes"/>
      <point x="484.09" y="473.312"/>
      <point x="533.9480000000001" y="424.59000000000003"/>
      <point x="533.9480000000001" y="327.29100000000005" type="curve" smooth="yes"/>
      <point x="533.9480000000001" y="175.32"/>
      <point x="425.71000000000004" y="54.828"/>
    </contour>
  </outline>
</glyph>
<glyph name="q" format="2">
  <advance width="660.514"/>
  <unicode hex="0071"/>
  <note>
12
</note>
  <outline>
    <contour>
      <point x="614.7709999999998" y="517.014" type="line"/>
      <point x="553.1239999999999" y="532.2880000000001"/>
      <point x="471.63" y="546.2"/>
      <point x="387.59499999999997" y="546.2" type="curve" smooth="yes"/>
      <point x="157.144" y="546.2"/>
      <point x="35.38699999999999" y="383.787"/>
      <point x="35.38699999999999" y="186.24900000000002" type="curve" smooth="yes"/>
      <point x="35.38699999999999" y="68.22200000000001"/>
      <point x="109.90599999999999" y="-10.0"/>
      <point x="236.379" y="-10.0" type="curve" smooth="yes"/>
      <point x="313.958" y="-10.0"/>
      <point x="380.985" y="16.641999999999996"/>
      <point x="453.973" y="68.321" type="curve"/>
      <point x="409.12600000000003" y="-210.0" type="line"/>
      <point x="498.91" y="-210.0" type="line"/>
    </contour>
    <contour>
      <point x="516.271" y="461.59400000000005" type="curve"/>
      <point x="463.48299999999995" y="129.89700000000002" type="line"/>
      <point x="392.75399999999996" y="80.75699999999999"/>
      <point x="332.051" y="61.028000000000006"/>
      <point x="269.27599999999995" y="61.028000000000006" type="curve" smooth="yes"/>
      <point x="184.494" y="61.028000000000006"/>
      <point x="125.60099999999998" y="113.61399999999999"/>
      <point x="125.60099999999998" y="201.992" type="curve" smooth="yes"/>
      <point x="125.60099999999998" y="351.34200000000004"/>
      <point x="221.92" y="479.71900000000005"/>
      <point x="381.548" y="479.71900000000005" type="curve" smooth="yes"/>
      <point x="434.66499999999996" y="479.71900000000005"/>
      <point x="482.695" y="469.95700000000005"/>
    </contour>
  </outline>
</glyph>
<glyph name="r" format="2">
  <advance width="474.945"/>
  <unicode hex="0072"/>
  <anchor x="83.71199999999999" y="0.0" name="bottom"/>
  <anchor x="309.03" y="536.2" name="top"/>
  <outline>
    <contour>
      <point x="206.227" y="536.2" type="line"/>
      <point x="125.64800000000001" y="536.2" type="line"/>
      <point x="40.55" y="0.0" type="line"/>
      <point x="129.809" y="0.0" type="line"/>
      <point x="190.351" y="380.074" type="line"/>
      <point x="267.999" y="443.093"/>
      <point x="333.03999999999996" y="466.523"/>
      <point x="390.94699999999995" y="466.523" type="curve" smooth="yes"/>
      <point x="420.421" y="466.523"/>
      <point x="453.397" y="461.333"/>
      <point x="481.52299999999997" y="453.35" type="curve"/>
      <point x="506.95000000000005" y="532.399" type="line"/>
      <point x="483.56899999999996" y="540.261"/>
      <point x="449.51" y="546.2"/>
      <point x="413.684" y="546.2" type="curve" smooth="yes"/>
      <point x="344.98299999999995" y="546.2"/>
      <point x="281.058" y="518.956"/>
      <point x="192.33599999999998" y="447.813" type="curve"/>
    </contour>
  </outline>
</glyph>
<glyph name="s" format="2">
  <advance width="564.26"/>
  <unicode hex="0073"/>
  <anchor x="252.43999999999997" y="0.0" name="bottom"/>
  <anchor x="329.00000000000006" y="536.2" name="top"/>
  <outline>
    <contour>
      <point x="-2.4900000000000024" y="30.07" type="line"/>
      <point x="61.26" y="8.26"/>
      <point x="143.4" y="-10.0"/>
      <point x="241.01999999999995" y="-10.0" type="curve" smooth="yes"/>
      <point x="403.0799999999999" y="-10.0"/>
      <point x="509.78" y="40.32"/>
      <point x="509.78" y="155.01" type="curve" smooth="yes"/>
      <point x="509.78" y="338.51"/>
      <point x="155.64999999999998" y="272.31"/>
      <point x="155.64999999999998" y="395.25" type="curve" smooth="yes"/>
      <point x="155.64999999999998" y="445.84000000000003"/>
      <point x="209.38" y="481.82"/>
      <point x="323.16" y="481.82" type="curve" smooth="yes"/>
      <point x="388.84000000000003" y="481.82"/>
      <point x="457.65999999999997" y="469.44"/>
      <point x="509.96999999999997" y="451.94" type="curve"/>
      <point x="530.6099999999999" y="515.39" type="line"/>
      <point x="477.51000000000005" y="533.6999999999999"/>
      <point x="405.72999999999996" y="546.2"/>
      <point x="334.36" y="546.2" type="curve" smooth="yes"/>
      <point x="163.32999999999996" y="546.2"/>
      <point x="69.88" y="488.20000000000005"/>
      <point x="69.88" y="385.5" type="curve" smooth="yes"/>
      <point x="69.88" y="200.87"/>
      <point x="423.81999999999994" y="271.22"/>
      <point x="423.81999999999994" y="141.85" type="curve" smooth="yes"/>
      <point x="423.81999999999994" y="88.33000000000001"/>
      <point x="362.96999999999997" y="54.690000000000005"/>
      <point x="249.99999999999994" y="54.690000000000005" type="curve" smooth="yes"/>
      <point x="164.27999999999997" y="54.690000000000005"/>
      <point x="75.00999999999999" y="74.38"/>
      <point x="19.65" y="95.76" type="curve"/>
    </contour>
  </outline>
</glyph>
<glyph name="t" format="2">
  <advance width="456.266"/>
  <unicode hex="0074"/>
  <anchor x="232.51500000000001" y="0.0" name="bottom"/>
  <anchor x="223.064" y="287.006" name="center"/>
  <anchor x="225.32" y="663.977" name="top"/>
  <anchor x="425.631" y="779.74" name="topright"/>
  <outline>
    <contour>
      <point x="402.136" y="89.34" type="line"/>
      <point x="356.593" y="75.254"/>
      <point x="313.59" y="65.017"/>
      <point x="273.101" y="65.017" type="curve" smooth="yes"/>
      <point x="206.706" y="65.017"/>
      <point x="183.518" y="95.78900000000002"/>
      <point x="183.518" y="144.792" type="curve" smooth="yes"/>
      <point x="183.518" y="156.25699999999998"/>
      <point x="184.508" y="168.505"/>
      <point x="186.68099999999998" y="181.684" type="curve" smooth="yes"/>
      <point x="232.84400000000002" y="471.26300000000003" type="line"/>
      <point x="456.027" y="471.26300000000003" type="line"/>
      <point x="467.24199999999996" y="536.2" type="line"/>
      <point x="243.40800000000002" y="536.2" type="line"/>
      <point x="263.99199999999996" y="663.977" type="line"/>
      <point x="188.294" y="663.977" type="line"/>
      <point x="154.78199999999998" y="536.2" type="line"/>
      <point x="39.864" y="527.162" type="line"/>
      <point x="29.599999999999998" y="471.35599999999994" type="line"/>
      <point x="142.916" y="471.35599999999994" type="line"/>
      <point x="96.69099999999999" y="177.77800000000002" type="line" smooth="yes"/>
      <point x="93.071" y="156.172"/>
      <point x="90.999" y="132.5"/>
      <point x="90.999" y="116.942" type="curve" smooth="yes"/>
      <point x="90.999" y="24.959"/>
      <point x="144.81" y="-10.0"/>
      <point x="231.27899999999997" y="-10.0" type="curve" smooth="yes"/>
      <point x="282.134" y="-10.0"/>
      <point x="339.924" y="-0.7080000000000007"/>
      <point x="402.68999999999994" y="20.520999999999994" type="curve"/>
    </contour>
  </outline>
</glyph>
<glyph name="u" format="2">
  <advance width="664.38"/>
  <unicode hex="0075"/>
  <note>
15
</note>
  <anchor x="284.44599999999997" y="0.0" name="bottom"/>
  <anchor x="616.245" y="7.037000000000001" name="ogonek"/>
  <anchor x="362.859708" y="536.2" name="top"/>
  <anchor x="609.143" y="536.2" name="topright"/>
  <outline>
    <contour>
      <point x="213.99099999999999" y="-10.0" type="curve" smooth="yes"/>
      <point x="300.216" y="-10.0"/>
      <point x="374.033" y="17.115"/>
      <point x="459.50199999999995" y="66.161" type="curve"/>
      <point x="466.57099999999997" y="15.040999999999999"/>
      <point x="497.855" y="-10.0"/>
      <point x="545.9019999999999" y="-10.0" type="curve" smooth="yes"/>
      <point x="566.178" y="-10.0"/>
      <point x="595.56" y="-3.3210000000000006"/>
      <point x="616.245" y="9.424" type="curve"/>
      <point x="615.3729999999999" y="67.25" type="line"/>
      <point x="603.027" y="62.839000000000006"/>
      <point x="590.658" y="60.769000000000005"/>
      <point x="584.9910000000001" y="60.769000000000005" type="curve" smooth="yes"/>
      <point x="560.2969999999999" y="60.769000000000005"/>
      <point x="546.877" y="73.783"/>
      <point x="546.877" y="108.78599999999999" type="curve" smooth="yes"/>
      <point x="546.877" y="119.15800000000002"/>
      <point x="548.291" y="140.475"/>
      <point x="611.9329999999999" y="536.2" type="curve"/>
      <point x="521.708" y="536.2" type="line"/>
      <point x="458.1039999999999" y="121.348" type="line"/>
      <point x="385.94000000000005" y="83.503"/>
      <point x="326.403" y="61.038"/>
      <point x="253.88899999999998" y="61.038" type="curve" smooth="yes"/>
      <point x="187.166" y="61.038"/>
      <point x="153.809" y="93.48"/>
      <point x="153.995" y="146.885" type="curve" smooth="yes"/>
      <point x="155.669" y="173.409"/>
      <point x="159.8" y="206.124"/>
      <point x="212.81099999999998" y="536.2" type="curve"/>
      <point x="122.97599999999997" y="536.2" type="line"/>
      <point x="69.27000000000001" y="192.066"/>
      <point x="61.184" y="143.716"/>
      <point x="61.184" y="118.5" type="curve" smooth="yes"/>
      <point x="61.184" y="40.574"/>
      <point x="112.69899999999998" y="-10.0"/>
    </contour>
  </outline>
</glyph>
<glyph name="v" format="2">
  <advance width="570.909"/>
  <unicode hex="0076"/>
  <outline>
    <contour>
      <point x="283.263" y="-0.628" type="line"/>
      <point x="511.229" y="332.793"/>
      <point x="580.1809999999999" y="413.115"/>
      <point x="590.3069999999999" y="536.2" type="curve"/>
      <point x="496.91499999999996" y="536.2" type="line"/>
      <point x="490.10900000000004" y="437.411"/>
      <point x="442.323" y="378.00899999999996"/>
      <point x="248.29699999999997" y="73.66499999999999" type="curve"/>
      <point x="133.281" y="541.0300000000001" type="line"/>
      <point x="39.924" y="537.5490000000001" type="line"/>
      <point x="182.29499999999996" y="-0.628" type="line"/>
    </contour>
  </outline>
</glyph>
<glyph name="w" format="2">
  <advance width="840.2269999999999"/>
  <unicode hex="0077"/>
  <note>
15
</note>
  <anchor x="385.51900000000006" y="0.0" name="bottom"/>
  <anchor x="445.76899999999995" y="536.2" name="top"/>
  <outline>
    <contour>
      <point x="609.8309999999999" y="0.0" type="line"/>
      <point x="796.8330000000001" y="327.447"/>
      <point x="853.5949999999999" y="438.409"/>
      <point x="855.3509999999999" y="536.2" type="curve"/>
      <point x="773.956" y="536.2" type="line"/>
      <point x="770.146" y="454.05699999999996"/>
      <point x="741.263" y="381.365"/>
      <point x="570.533" y="70.62" type="curve"/>
      <point x="501.97099999999995" y="524.187" type="line"/>
      <point x="403.72700000000003" y="524.187" type="line"/>
      <point x="336.104" y="364.41499999999996"/>
      <point x="269.256" y="222.46399999999997"/>
      <point x="199.029" y="71.80600000000001" type="curve"/>
      <point x="126.93" y="541.0300000000001" type="line"/>
      <point x="43.303000000000004" y="537.7660000000001" type="line"/>
      <point x="132.77499999999998" y="0.0" type="line"/>
      <point x="237.498" y="0.0" type="line"/>
      <point x="304.811" y="138.28500000000003"/>
      <point x="375.844" y="288.629"/>
      <point x="437.94899999999996" y="422.574" type="curve"/>
      <point x="512.1139999999999" y="0.0" type="line"/>
    </contour>
  </outline>
</glyph>
<glyph name="x" format="2">
  <advance width="584.6099999999999"/>
  <unicode hex="0078"/>
  <outline>
    <contour>
      <point x="510.15" y="536.2" type="line"/>
      <point x="478.53999999999996" y="458.36999999999995"/>
      <point x="449.05" y="413.69"/>
      <point x="316.37" y="324.22" type="curve"/>
      <point x="169.87" y="545.2" type="line"/>
      <point x="73.77" y="535.2" type="line"/>
      <point x="242.95" y="289.13000000000005" type="line"/>
      <point x="77.44000000000001" y="178.87"/>
      <point x="19.819999999999997" y="97.89"/>
      <point x="-9.329999999999998" y="0.0" type="curve"/>
      <point x="84.81" y="0.0" type="line"/>
      <point x="110.09" y="78.49"/>
      <point x="142.64" y="138.08"/>
      <point x="280.3" y="230.3" type="curve"/>
      <point x="437.9" y="-4.8999999999999995" type="line"/>
      <point x="532.4999999999999" y="2.6199999999999997" type="line"/>
      <point x="351.35999999999996" y="267.44" type="line"/>
      <point x="513.0699999999999" y="372.55000000000007"/>
      <point x="572.4" y="455.83"/>
      <point x="602.1700000000001" y="536.2" type="curve"/>
    </contour>
  </outline>
</glyph>
<glyph name="y" format="2">
  <advance width="577.84"/>
  <unicode hex="0079"/>
  <anchor x="257.4699999999999" y="-170.10000000000002" name="bottom"/>
  <anchor x="320.61999999999995" y="536.2" name="top"/>
  <outline>
    <contour>
      <point x="505.56999999999994" y="538.27" type="line"/>
      <point x="493.49" y="423.96999999999997"/>
      <point x="382.48999999999995" y="219.42000000000002"/>
      <point x="269.42999999999995" y="51.4" type="curve"/>
      <point x="130.75" y="543.1" type="line"/>
      <point x="38.35" y="539.4599999999999" type="line"/>
      <point x="196.03000000000003" y="-4.83" type="line"/>
      <point x="227.97999999999996" y="-4.83" type="line"/>
      <point x="172.75" y="-82.55999999999999"/>
      <point x="114.67999999999999" y="-152.82"/>
      <point x="62.86" y="-207.93" type="curve"/>
      <point x="156.95999999999998" y="-217.4" type="line"/>
      <point x="326.88" y="-26.71"/>
      <point x="587.07" y="376.60999999999996"/>
      <point x="595.8" y="537.5799999999999" type="curve"/>
    </contour>
  </outline>
</glyph>
<glyph name="z" format="2">
  <advance width="601.517"/>
  <unicode hex="007A"/>
  <anchor x="271.831" y="0.0" name="bottom"/>
  <anchor x="299.06199999999995" y="275.0" name="center"/>
  <anchor x="338.54599999999994" y="536.2" name="top"/>
  <outline>
    <contour>
      <point x="9.729999999999997" y="0.0" type="line"/>
      <point x="531.661" y="0.0" type="line"/>
      <point x="542.473" y="66.395" type="line"/>
      <point x="140.918" y="66.395" type="line"/>
      <point x="579.9639999999998" y="474.70700000000005" type="line"/>
      <point x="590.6519999999999" y="536.2" type="line"/>
      <point x="103.16300000000001" y="536.2" type="line"/>
      <point x="92.041" y="469.619" type="line"/>
      <point x="461.1379999999999" y="469.619" type="line"/>
      <point x="18.363999999999997" y="59.075" type="line"/>
    </contour>
  </outline>
</glyph>
<glyph name="braceleft" format="2">
  <advance width="391.202"/>
  <unicode hex="007B"/>
  <outline>
    <contour>
      <point x="78.22" y="-96.80499999999999" type="curve" smooth="yes"/>
      <point x="78.22" y="-166.29"/>
      <point x="119.856" y="-210.0"/>
      <point x="209.81799999999998" y="-210.0" type="curve" smooth="yes"/>
      <point x="280.238" y="-210.0" type="line"/>
      <point x="290.151" y="-148.15" type="line"/>
      <point x="240.37699999999998" y="-148.15" type="line" smooth="yes"/>
      <point x="178.74599999999998" y="-148.15"/>
      <point x="158.349" y="-117.46499999999999"/>
      <point x="158.349" y="-77.864" type="curve" smooth="yes"/>
      <point x="158.349" y="11.224"/>
      <point x="227.095" y="88.91799999999999"/>
      <point x="227.095" y="188.004" type="curve" smooth="yes"/>
      <point x="227.095" y="221.04"/>
      <point x="214.94099999999997" y="249.824"/>
      <point x="179.966" y="266.38" type="curve"/>
      <point x="240.321" y="283.384"/>
      <point x="264.445" y="349.74199999999996"/>
      <point x="264.445" y="424.89000000000004" type="curve" smooth="yes"/>
      <point x="264.445" y="466.245"/>
      <point x="257.697" y="497.706"/>
      <point x="257.697" y="541.005" type="curve" smooth="yes"/>
      <point x="257.697" y="601.9380000000001"/>
      <point x="277.145" y="678.1500000000001"/>
      <point x="372.895" y="678.1500000000001" type="curve" smooth="yes"/>
      <point x="421.655" y="678.1500000000001" type="line"/>
      <point x="431.382" y="740.0" type="line"/>
      <point x="361.99699999999996" y="740.0" type="line" smooth="yes"/>
      <point x="224.25500000000002" y="740.0"/>
      <point x="180.03" y="637.953"/>
      <point x="180.03" y="538.863" type="curve" smooth="yes"/>
      <point x="180.03" y="497.028"/>
      <point x="186.84" y="458.566"/>
      <point x="186.84" y="419.72099999999995" type="curve" smooth="yes"/>
      <point x="186.84" y="354.59000000000003"/>
      <point x="170.437" y="297.66700000000003"/>
      <point x="116.01599999999999" y="297.66700000000003" type="curve" smooth="yes"/>
      <point x="99.857" y="297.66700000000003" type="line"/>
      <point x="90.03699999999999" y="236.104" type="line"/>
      <point x="106.26499999999999" y="236.104" type="line" smooth="yes"/>
      <point x="138.754" y="236.104"/>
      <point x="151.128" y="214.412"/>
      <point x="151.128" y="186.46" type="curve" smooth="yes"/>
      <point x="151.128" y="88.007"/>
      <point x="78.22" y="8.73"/>
    </contour>
  </outline>
</glyph>
<glyph name="bar" format="2">
  <advance width="257.522"/>
  <unicode hex="007C"/>
  <outline>
    <contour>
      <point x="246.7" y="790.093" type="line"/>
      <point x="175.38" y="790.093" type="line"/>
      <point x="15.728999999999996" y="-210.0" type="line"/>
      <point x="86.925" y="-210.0" type="line"/>
    </contour>
  </outline>
</glyph>
<glyph name="braceright" format="2">
  <advance width="391.202"/>
  <unicode hex="007D"/>
  <outline>
    <contour>
      <point x="309.499" y="626.8050000000001" type="curve" smooth="yes"/>
      <point x="309.499" y="696.3829999999999"/>
      <point x="267.77" y="740.093"/>
      <point x="177.808" y="740.093" type="curve" smooth="yes"/>
      <point x="107.38799999999999" y="740.093" type="line"/>
      <point x="97.475" y="678.243" type="line"/>
      <point x="146.319" y="678.243" type="line" smooth="yes"/>
      <point x="208.04299999999998" y="678.243"/>
      <point x="228.53300000000002" y="647.465"/>
      <point x="228.53300000000002" y="607.864" type="curve" smooth="yes"/>
      <point x="228.53300000000002" y="518.59"/>
      <point x="159.78699999999998" y="444.61899999999997"/>
      <point x="159.78699999999998" y="343.58" type="curve" smooth="yes"/>
      <point x="159.78699999999998" y="310.82300000000004"/>
      <point x="171.848" y="282.039"/>
      <point x="207.00900000000001" y="265.57599999999996" type="curve"/>
      <point x="146.65399999999997" y="248.47899999999998"/>
      <point x="122.437" y="182.30700000000002"/>
      <point x="122.437" y="107.066" type="curve" smooth="yes"/>
      <point x="122.437" y="65.711"/>
      <point x="129.185" y="32.387"/>
      <point x="129.185" y="-10.726" type="curve" smooth="yes"/>
      <point x="129.185" y="-71.659"/>
      <point x="109.83" y="-148.057"/>
      <point x="14.08" y="-148.057" type="curve" smooth="yes"/>
      <point x="-33.936" y="-148.057" type="line"/>
      <point x="-43.663" y="-210.0" type="line"/>
      <point x="25.628999999999998" y="-210.0" type="line" smooth="yes"/>
      <point x="163.371" y="-210.0"/>
      <point x="207.596" y="-106.744"/>
      <point x="207.596" y="-10.63" type="curve" smooth="yes"/>
      <point x="207.596" y="33.716"/>
      <point x="200.786" y="74.41300000000001"/>
      <point x="200.786" y="112.607" type="curve" smooth="yes"/>
      <point x="200.786" y="177.552"/>
      <point x="217.375" y="234.289"/>
      <point x="271.60999999999996" y="234.289" type="curve" smooth="yes"/>
      <point x="287.769" y="234.289" type="line"/>
      <point x="297.589" y="295.75899999999996" type="line"/>
      <point x="281.361" y="295.75899999999996" type="line" smooth="yes"/>
      <point x="248.87199999999996" y="295.75899999999996"/>
      <point x="236.498" y="317.451"/>
      <point x="236.498" y="345.403" type="curve" smooth="yes"/>
      <point x="236.498" y="443.949"/>
      <point x="309.499" y="519.968"/>
    </contour>
  </outline>
</glyph>
<glyph name="asciitilde" format="2">
  <advance width="518.2189999999999"/>
  <unicode hex="007E"/>
  <outline>
    <contour>
      <point x="449.138" y="251.96999999999997" type="curve"/>
      <point x="460.63999999999993" y="327.947" type="line"/>
      <point x="433.826" y="304.38"/>
      <point x="404.707" y="285.93100000000004"/>
      <point x="367.94300000000004" y="285.93100000000004" type="curve" smooth="yes"/>
      <point x="281.94" y="285.93100000000004"/>
      <point x="244.15699999999998" y="383.99"/>
      <point x="166.73" y="383.99" type="curve" smooth="yes"/>
      <point x="127.97" y="383.99"/>
      <point x="96.67399999999999" y="362.883"/>
      <point x="77.587" y="346.775" type="curve"/>
      <point x="65.0" y="270.315" type="line"/>
      <point x="89.82799999999999" y="289.54999999999995"/>
      <point x="116.637" y="310.112"/>
      <point x="155.385" y="310.112" type="curve" smooth="yes"/>
      <point x="236.68200000000002" y="310.112"/>
      <point x="272.887" y="212.053"/>
      <point x="360.711" y="212.053" type="curve" smooth="yes"/>
      <point x="394.673" y="212.053"/>
      <point x="425.223" y="229.892"/>
    </contour>
  </outline>
</glyph>
<glyph name="cent" format="2">
  <advance width="818.082"/>
  <unicode hex="00A2"/>
  <outline>
    <contour>
      <point x="345.609" y="-104.876" type="line"/>
      <point x="412.09299999999996" y="-104.876" type="line"/>
      <point x="427.403" y="-8.556" type="line"/>
      <point x="515.538" y="-5.128"/>
      <point x="588.8290000000001" y="8.472"/>
      <point x="632.8059999999999" y="20.604" type="curve"/>
      <point x="629.77" y="88.52100000000002" type="line"/>
      <point x="575.9200000000001" y="76.929"/>
      <point x="497.714" y="62.216"/>
      <point x="435.05499999999995" y="62.216" type="curve" smooth="yes"/>
      <point x="308.748" y="62.216"/>
      <point x="244.26899999999998" y="114.82"/>
      <point x="244.26899999999998" y="214.07000000000002" type="curve" smooth="yes"/>
      <point x="244.26899999999998" y="365.64099999999996"/>
      <point x="343.662" y="472.392"/>
      <point x="500.13799999999986" y="472.392" type="curve" smooth="yes"/>
      <point x="570.828" y="472.392"/>
      <point x="623.742" y="460.623"/>
      <point x="678.999" y="445.862" type="curve"/>
      <point x="702.0079999999999" y="517.931" type="line"/>
      <point x="646.04" y="533.549"/>
      <point x="590.7139999999999" y="544.6080000000001"/>
      <point x="516.823" y="545.5280000000001" type="curve"/>
      <point x="532.557" y="641.107" type="line"/>
      <point x="466.073" y="641.107" type="line"/>
      <point x="449.502" y="539.62" type="line"/>
      <point x="259.81399999999996" y="519.324"/>
      <point x="151.737" y="380.419"/>
      <point x="151.737" y="196.28999999999996" type="curve" smooth="yes"/>
      <point x="151.737" y="62.171"/>
      <point x="235.558" y="2.813000000000001"/>
      <point x="360.75600000000003" y="-5.559" type="curve"/>
    </contour>
  </outline>
</glyph>
<glyph name="sterling" format="2">
  <advance width="818.454"/>
  <unicode hex="00A3"/>
  <outline>
    <contour>
      <point x="86.184" y="0.0" type="line"/>
      <point x="678.3899999999999" y="0.0" type="line"/>
      <point x="689.4499999999998" y="70.22" type="line"/>
      <point x="205.648" y="70.22" type="line"/>
      <point x="293.038" y="138.15200000000002"/>
      <point x="334.3" y="193.314"/>
      <point x="334.3" y="275.212" type="curve" smooth="yes"/>
      <point x="334.3" y="334.21"/>
      <point x="293.646" y="394.26599999999996"/>
      <point x="293.646" y="456.408" type="curve" smooth="yes"/>
      <point x="293.646" y="578.744"/>
      <point x="395.99199999999996" y="637.212"/>
      <point x="525.134" y="637.212" type="curve" smooth="yes"/>
      <point x="596.8620000000001" y="637.212"/>
      <point x="665.4100000000001" y="629.0219999999999"/>
      <point x="741.3559999999999" y="605.3760000000001" type="curve"/>
      <point x="765.482" y="673.02" type="line"/>
      <point x="684.76" y="700.2539999999999"/>
      <point x="603.4200000000001" y="710.0"/>
      <point x="526.9639999999999" y="710.0" type="curve" smooth="yes"/>
      <point x="360.69" y="710.0"/>
      <point x="207.18" y="633.4159999999999"/>
      <point x="207.18" y="468.11800000000005" type="curve" smooth="yes"/>
      <point x="207.18" y="390.934"/>
      <point x="249.57999999999998" y="338.816"/>
      <point x="249.57999999999998" y="271.51599999999996" type="curve" smooth="yes"/>
      <point x="249.57999999999998" y="184.878"/>
      <point x="187.30399999999997" y="127.62799999999999"/>
      <point x="94.732" y="59.37" type="curve"/>
    </contour>
    <contour>
      <point x="112.86" y="330.084" type="line"/>
      <point x="626.802" y="330.926" type="line"/>
      <point x="636.932" y="394.344" type="line"/>
      <point x="122.68" y="394.344" type="line"/>
    </contour>
  </outline>
</glyph>
<glyph name="currency" format="2">
  <advance width="440.363"/>
  <unicode hex="00A4"/>
  <outline>
    <contour>
      <point x="63.205000000000005" y="104.22699999999999" type="line"/>
      <point x="141.12300000000002" y="177.956" type="line"/>
      <point x="156.467" y="163.536"/>
      <point x="176.89199999999997" y="155.729"/>
      <point x="201.343" y="155.729" type="curve" smooth="yes"/>
      <point x="225.559" y="155.729"/>
      <point x="249.351" y="164.019"/>
      <point x="269.693" y="178.07999999999998" type="curve"/>
      <point x="325.414" y="104.22699999999999" type="line"/>
      <point x="373.58700000000005" y="149.56799999999998" type="line"/>
      <point x="321.8" y="218.926" type="line"/>
      <point x="343.543" y="246.10699999999997"/>
      <point x="358.07099999999997" y="281.25300000000004"/>
      <point x="358.257" y="320.303" type="curve" smooth="yes"/>
      <point x="358.443" y="339.44899999999996"/>
      <point x="354.086" y="357.584"/>
      <point x="346.186" y="372.466" type="curve"/>
      <point x="419.658" y="441.824" type="line"/>
      <point x="386.17" y="487.16499999999996" type="line"/>
      <point x="307.521" y="413.591" type="line"/>
      <point x="292.01899999999995" y="428.135"/>
      <point x="270.411" y="436.72499999999997"/>
      <point x="245.885" y="436.72499999999997" type="curve" smooth="yes"/>
      <point x="221.34099999999998" y="436.72499999999997"/>
      <point x="198.06300000000002" y="428.04200000000003"/>
      <point x="177.96900000000002" y="413.715" type="curve"/>
      <point x="123.74400000000001" y="487.16499999999996" type="line"/>
      <point x="75.79899999999999" y="441.824" type="line"/>
      <point x="125.676" y="373.293" type="line"/>
      <point x="103.202" y="346.667"/>
      <point x="89.45700000000001" y="311.573"/>
      <point x="89.271" y="273.285" type="curve" smooth="yes"/>
      <point x="89.085" y="252.315"/>
      <point x="93.349" y="233.322"/>
      <point x="101.46600000000001" y="217.616" type="curve"/>
      <point x="29.510999999999996" y="149.56799999999998" type="line"/>
    </contour>
    <contour>
      <point x="210.20999999999998" y="208.434" type="curve" smooth="yes"/>
      <point x="170.65699999999998" y="208.434"/>
      <point x="143.652" y="239.351"/>
      <point x="143.931" y="281.436" type="curve" smooth="yes"/>
      <point x="144.21" y="337.205"/>
      <point x="190.05599999999998" y="383.92699999999996"/>
      <point x="237.584" y="383.92699999999996" type="curve" smooth="yes"/>
      <point x="277.56100000000004" y="383.92699999999996"/>
      <point x="304.266" y="352.78"/>
      <point x="303.987" y="311.374" type="curve" smooth="yes"/>
      <point x="303.708" y="254.975"/>
      <point x="258.477" y="208.434"/>
    </contour>
  </outline>
</glyph>
<glyph name="yen" format="2">
  <advance width="818.53"/>
  <unicode hex="00A5"/>
  <outline>
    <contour>
      <point x="150.82" y="334.81" type="line"/>
      <point x="373.2299999999999" y="334.81" type="line"/>
      <point x="357.5299999999999" y="236.5" type="line"/>
      <point x="135.62" y="236.5" type="line"/>
      <point x="126.97" y="183.20999999999998" type="line"/>
      <point x="349.06999999999994" y="183.20999999999998" type="line"/>
      <point x="320.37999999999994" y="0.0" type="line"/>
      <point x="415.87999999999994" y="0.0" type="line"/>
      <point x="444.87999999999994" y="183.20999999999998" type="line"/>
      <point x="670.84" y="183.20999999999998" type="line"/>
      <point x="678.9899999999999" y="236.5" type="line"/>
      <point x="453.03" y="236.5" type="line"/>
      <point x="468.72999999999996" y="334.81" type="line"/>
      <point x="694.5" y="334.81" type="line"/>
      <point x="703.1500000000001" y="387.67" type="line"/>
      <point x="477.68999999999994" y="387.67" type="line"/>
      <point x="780.8" y="696.36" type="line"/>
      <point x="688.89" y="705.52" type="line"/>
      <point x="439.0699999999999" y="445.03999999999996" type="line"/>
      <point x="266.21" y="704.1400000000001" type="line"/>
      <point x="171.04000000000002" y="696.36" type="line"/>
      <point x="381.68999999999994" y="387.67" type="line"/>
      <point x="160.08999999999997" y="387.67" type="line"/>
    </contour>
  </outline>
</glyph>
<glyph name="brokenbar" format="2">
  <advance width="258.194"/>
  <unicode hex="00A6"/>
  <outline>
    <contour>
      <point x="182.85500000000002" y="391.0" type="line"/>
      <point x="247.25799999999998" y="790.093" type="line"/>
      <point x="175.938" y="790.093" type="line"/>
      <point x="111.535" y="391.0" type="line"/>
    </contour>
    <contour>
      <point x="80.03899999999999" y="190.093" type="line"/>
      <point x="15.93599999999999" y="-210.0" type="line"/>
      <point x="87.03899999999999" y="-210.0" type="line"/>
      <point x="151.235" y="190.093" type="line"/>
    </contour>
  </outline>
</glyph>
<glyph name="section" format="2">
  <advance width="573.289"/>
  <unicode hex="00A7"/>
  <outline>
    <contour>
      <point x="14.498" y="-84.46800000000002" type="curve"/>
      <point x="-19.253000000000004" y="-157.973" type="line"/>
      <point x="37.091" y="-198.09199999999998"/>
      <point x="96.24799999999999" y="-220.0"/>
      <point x="169.075" y="-220.0" type="curve" smooth="yes"/>
      <point x="345.74999999999994" y="-220.0"/>
      <point x="503.453" y="-94.791"/>
      <point x="503.453" y="120.289" type="curve" smooth="yes"/>
      <point x="503.453" y="295.923"/>
      <point x="371.966" y="420.855"/>
      <point x="371.966" y="555.676" type="curve" smooth="yes"/>
      <point x="371.966" y="620.504"/>
      <point x="406.17599999999993" y="665.422"/>
      <point x="470.1409999999999" y="665.422" type="curve" smooth="yes"/>
      <point x="498.92199999999997" y="665.422"/>
      <point x="521.024" y="657.123"/>
      <point x="543.7420000000001" y="648.425" type="curve"/>
      <point x="569.3849999999999" y="727.449" type="line"/>
      <point x="525.932" y="741.837"/>
      <point x="471.491" y="749.593"/>
      <point x="419.86299999999994" y="749.593" type="curve" smooth="yes"/>
      <point x="234.51799999999997" y="749.593"/>
      <point x="80.337" y="617.189"/>
      <point x="80.337" y="400.005" type="curve" smooth="yes"/>
      <point x="80.337" y="213.69"/>
      <point x="209.672" y="82.90599999999999"/>
      <point x="209.672" y="-32.446" type="curve" smooth="yes"/>
      <point x="209.672" y="-94.45799999999998"/>
      <point x="167.55999999999997" y="-133.301"/>
      <point x="120.101" y="-133.301" type="curve" smooth="yes"/>
      <point x="81.514" y="-133.301"/>
      <point x="44.733999999999995" y="-110.33000000000001"/>
    </contour>
    <contour>
      <point x="391.296" y="695.486" type="curve"/>
      <point x="329.48699999999997" y="669.193"/>
      <point x="303.812" y="610.399"/>
      <point x="303.812" y="546.899" type="curve" smooth="yes"/>
      <point x="303.812" y="397.793"/>
      <point x="431.29600000000005" y="254.675"/>
      <point x="431.29600000000005" y="99.754" type="curve" smooth="yes"/>
      <point x="431.29600000000005" y="-62.57799999999998"/>
      <point x="306.351" y="-177.792"/>
      <point x="167.539" y="-170.713" type="curve"/>
      <point x="237.017" y="-150.985"/>
      <point x="278.919" y="-86.134"/>
      <point x="278.919" y="-18.057999999999996" type="curve" smooth="yes"/>
      <point x="278.919" y="113.35600000000001"/>
      <point x="155.796" y="246.295"/>
      <point x="155.796" y="407.615" type="curve" smooth="yes"/>
      <point x="155.796" y="566.402"/>
      <point x="243.732" y="681.235"/>
    </contour>
  </outline>
</glyph>
<glyph name="copyright" format="2">
  <advance width="820.629"/>
  <unicode hex="00A9"/>
  <outline>
    <contour>
      <point x="390.928" y="-9.934000000000001" type="curve" smooth="yes"/>
      <point x="637.264" y="-10.802"/>
      <point x="775.2869999999999" y="153.63400000000001"/>
      <point x="775.2869999999999" y="402.869" type="curve" smooth="yes"/>
      <point x="775.2869999999999" y="601.098"/>
      <point x="647.2379999999999" y="708.787"/>
      <point x="451.55299999999994" y="709.6550000000001" type="curve" smooth="yes"/>
      <point x="209.41400000000002" y="710.523"/>
      <point x="69.249" y="548.9269999999999"/>
      <point x="69.249" y="296.786" type="curve" smooth="yes"/>
      <point x="69.249" y="99.35900000000002"/>
      <point x="195.42999999999998" y="-9.066"/>
    </contour>
    <contour>
      <point x="412.421" y="168.468" type="curve" smooth="yes"/>
      <point x="467.9079999999999" y="168.468"/>
      <point x="516.115" y="179.076"/>
      <point x="554.106" y="192.58299999999997" type="curve"/>
      <point x="548.068" y="242.575" type="line"/>
      <point x="510.949" y="231.95499999999998"/>
      <point x="471.07399999999996" y="224.20299999999997"/>
      <point x="426.52599999999995" y="224.20299999999997" type="curve" smooth="yes"/>
      <point x="356.179" y="224.20299999999997"/>
      <point x="311.56000000000006" y="258.868"/>
      <point x="311.56000000000006" y="313.46999999999997" type="curve" smooth="yes"/>
      <point x="311.56000000000006" y="406.851"/>
      <point x="370.62600000000003" y="473.103"/>
      <point x="462.265" y="473.103" type="curve" smooth="yes"/>
      <point x="502.815" y="473.103"/>
      <point x="537.1990000000001" y="468.28499999999997"/>
      <point x="575.8419999999999" y="458.335" type="curve"/>
      <point x="591.0219999999999" y="512.5509999999999" type="line"/>
      <point x="553.7700000000001" y="523.555"/>
      <point x="511.554" y="530.047"/>
      <point x="464.854" y="530.047" type="curve" smooth="yes"/>
      <point x="336.03499999999997" y="530.047"/>
      <point x="245.69200000000004" y="447.56600000000003"/>
      <point x="245.69200000000004" y="311.064" type="curve" smooth="yes"/>
      <point x="245.69200000000004" y="220.521"/>
      <point x="308.9269999999999" y="168.468"/>
    </contour>
    <contour>
      <point x="396.49699999999996" y="32.626" type="curve" smooth="yes"/>
      <point x="223.76299999999998" y="32.626"/>
      <point x="115.90099999999998" y="122.372"/>
      <point x="115.90099999999998" y="301.898" type="curve" smooth="yes"/>
      <point x="115.90099999999998" y="519.14"/>
      <point x="227.78" y="667.529"/>
      <point x="446.57699999999994" y="667.529" type="curve" smooth="yes"/>
      <point x="617.471" y="667.529"/>
      <point x="728.6349999999999" y="577.3489999999999"/>
      <point x="728.6349999999999" y="397.19100000000003" type="curve" smooth="yes"/>
      <point x="728.6349999999999" y="179.817"/>
      <point x="615.426" y="32.626"/>
    </contour>
  </outline>
</glyph>
<glyph name="ordfeminine" format="2">
  <advance width="453.728"/>
  <unicode hex="00AA"/>
  <outline>
    <contour>
      <point x="44.359" y="254.642" type="line"/>
      <point x="391.71999999999997" y="254.642" type="line"/>
      <point x="399.556" y="303.94100000000003" type="line"/>
      <point x="52.195" y="303.94100000000003" type="line"/>
    </contour>
    <component base="a.superior" xOffset="13.244"/>
  </outline>
</glyph>
<glyph name="logicalnot" format="2">
  <advance width="514.74"/>
  <unicode hex="00AC"/>
  <outline>
    <contour>
      <point x="68.482" y="353.97200000000004" type="line"/>
      <point x="401.48" y="353.97200000000004" type="line"/>
      <point x="373.272" y="171.761" type="line"/>
      <point x="441.91599999999994" y="171.761" type="line"/>
      <point x="481.897" y="424.827" type="line"/>
      <point x="80.255" y="424.827" type="line"/>
    </contour>
  </outline>
</glyph>
<glyph name="registered" format="2">
  <advance width="758.5599999999998"/>
  <unicode hex="00AE"/>
  <outline>
    <contour>
      <point x="389.23099999999994" y="210.13199999999998" type="curve" smooth="yes"/>
      <point x="614.835" y="210.13199999999998"/>
      <point x="747.245" y="374.52500000000003"/>
      <point x="747.245" y="616.4530000000001" type="curve" smooth="yes"/>
      <point x="747.245" y="789.588"/>
      <point x="645.5049999999999" y="892.182"/>
      <point x="455.736" y="892.182" type="curve" smooth="yes"/>
      <point x="230.132" y="892.182"/>
      <point x="99.15599999999999" y="727.2889999999999"/>
      <point x="99.15599999999999" y="485.861" type="curve" smooth="yes"/>
      <point x="99.15599999999999" y="313.15999999999997"/>
      <point x="199.028" y="210.13199999999998"/>
    </contour>
    <contour>
      <point x="393.075" y="250.599" type="curve" smooth="yes"/>
      <point x="226.24099999999999" y="250.599"/>
      <point x="141.99099999999999" y="339.54"/>
      <point x="141.99099999999999" y="486.33" type="curve" smooth="yes"/>
      <point x="141.99099999999999" y="707.5429999999999"/>
      <point x="255.295" y="851.649"/>
      <point x="452.326" y="851.649" type="curve" smooth="yes"/>
      <point x="619.1599999999999" y="851.649"/>
      <point x="704.4100000000001" y="762.774"/>
      <point x="704.4100000000001" y="615.484" type="curve" smooth="yes"/>
      <point x="704.4100000000001" y="394.271"/>
      <point x="589.672" y="250.599"/>
    </contour>
    <contour>
      <point x="261.044" y="395.017" type="line"/>
      <point x="317.03799999999995" y="395.017" type="line"/>
      <point x="337.1819999999999" y="518.412" type="line"/>
      <point x="364.41800000000006" y="517.5319999999999"/>
      <point x="387.76800000000003" y="516.218"/>
      <point x="425.47799999999995" y="517.125" type="curve"/>
      <point x="466.675" y="529.006" type="line"/>
      <point x="540.9329999999999" y="533.623"/>
      <point x="583.3949999999999" y="565.0919999999999"/>
      <point x="583.3949999999999" y="637.12" type="curve" smooth="yes"/>
      <point x="583.3949999999999" y="696.395"/>
      <point x="541.5269999999998" y="719.514"/>
      <point x="438.557" y="719.514" type="curve" smooth="yes"/>
      <point x="403.044" y="719.514"/>
      <point x="366.65199999999993" y="718.9209999999999"/>
      <point x="311.997" y="714.987" type="curve"/>
    </contour>
    <contour>
      <point x="415.6139999999999" y="557.6270000000001" type="curve" smooth="yes"/>
      <point x="392.747" y="557.6270000000001"/>
      <point x="374.27199999999993" y="558.534"/>
      <point x="343.809" y="559.1" type="curve"/>
      <point x="360.903" y="671.164" type="line"/>
      <point x="395.861" y="673.703"/>
      <point x="404.005" y="674.203"/>
      <point x="435.937" y="674.203" type="curve" smooth="yes"/>
      <point x="501.42599999999993" y="674.203"/>
      <point x="525.5989999999999" y="662.5859999999999"/>
      <point x="525.5989999999999" y="628.49" type="curve" smooth="yes"/>
      <point x="525.5989999999999" y="578.604"/>
      <point x="501.977" y="557.6270000000001"/>
    </contour>
    <contour>
      <point x="567.998" y="392.37" type="curve" smooth="yes"/>
      <point x="569.963" y="392.37"/>
      <point x="574.451" y="392.556"/>
      <point x="577.9429999999999" y="393.33500000000004" type="curve"/>
      <point x="585.306" y="445.61699999999996" type="line"/>
      <point x="582.938" y="445.303"/>
      <point x="580.938" y="445.303"/>
      <point x="579.4110000000001" y="445.303" type="curve" smooth="yes"/>
      <point x="554.041" y="445.303"/>
      <point x="509.8769999999999" y="480.589"/>
      <point x="475.38699999999994" y="539.637" type="curve"/>
      <point x="411.0569999999999" y="525.268" type="line"/>
      <point x="463.005" y="439.51"/>
      <point x="517.226" y="392.37"/>
    </contour>
  </outline>
</glyph>
<glyph name="degree" format="2">
  <advance width="292.155"/>
  <unicode hex="00B0"/>
  <outline>
    <contour>
      <point x="177.41" y="460.666" type="curve" smooth="yes"/>
      <point x="253.866" y="460.666"/>
      <point x="311.8519999999999" y="529.513"/>
      <point x="311.8519999999999" y="616.9290000000001" type="curve" smooth="yes"/>
      <point x="311.8519999999999" y="674.246"/>
      <point x="279.97" y="721.986"/>
      <point x="214.608" y="721.986" type="curve" smooth="yes"/>
      <point x="138.531" y="721.986"/>
      <point x="80.507" y="650.506"/>
      <point x="80.507" y="564.056" type="curve" smooth="yes"/>
      <point x="80.507" y="507.481"/>
      <point x="112.21300000000001" y="460.666"/>
    </contour>
    <contour>
      <point x="185.37" y="520.904" type="curve" smooth="yes"/>
      <point x="155.70899999999997" y="520.904"/>
      <point x="138.63899999999998" y="543.8960000000001"/>
      <point x="138.63899999999998" y="574.834" type="curve" smooth="yes"/>
      <point x="138.63899999999998" y="622.655"/>
      <point x="168.789" y="661.3760000000001"/>
      <point x="206.896" y="661.3760000000001" type="curve" smooth="yes"/>
      <point x="237.882" y="661.3760000000001"/>
      <point x="253.986" y="637.704"/>
      <point x="253.986" y="606.159" type="curve" smooth="yes"/>
      <point x="253.986" y="559.89"/>
      <point x="223.043" y="520.904"/>
    </contour>
  </outline>
</glyph>
<glyph name="plusminus" format="2">
  <advance width="515.588"/>
  <unicode hex="00B1"/>
  <outline>
    <contour>
      <point x="423.78900000000004" y="50.843" type="line"/>
      <point x="435.56199999999995" y="122.835" type="line"/>
      <point x="271.55699999999996" y="122.835" type="line"/>
      <point x="298.742" y="295.77599999999995" type="line"/>
      <point x="462.53999999999996" y="295.77599999999995" type="line"/>
      <point x="474.31300000000005" y="367.76800000000003" type="line"/>
      <point x="310.515" y="367.76800000000003" type="line"/>
      <point x="338.927" y="542.2800000000001" type="line"/>
      <point x="263.215" y="542.2800000000001" type="line"/>
      <point x="234.576" y="367.76800000000003" type="line"/>
      <point x="71.01499999999999" y="367.76800000000003" type="line"/>
      <point x="59.242" y="295.77599999999995" type="line"/>
      <point x="223.03" y="295.77599999999995" type="line"/>
      <point x="195.411" y="122.835" type="line"/>
      <point x="32.263999999999996" y="122.835" type="line"/>
      <point x="20.491" y="50.843" type="line"/>
    </contour>
  </outline>
</glyph>
<glyph name="uni00B2" format="2">
  <advance width="485.61499999999995"/>
  <unicode hex="00B2"/>
  <outline>
    <contour>
      <point x="72.57999999999998" y="369.279" type="line"/>
      <point x="443.558" y="369.279" type="line"/>
      <point x="449.82399999999996" y="413.214" type="line"/>
      <point x="184.51799999999997" y="413.214" type="line"/>
      <point x="312.659" y="495.486"/>
      <point x="430.428" y="565.2779999999999"/>
      <point x="430.428" y="672.901" type="curve" smooth="yes"/>
      <point x="430.428" y="739.779"/>
      <point x="375.43199999999996" y="771.7439999999999"/>
      <point x="299.034" y="771.7439999999999" type="curve" smooth="yes"/>
      <point x="246.64" y="771.7439999999999"/>
      <point x="181.957" y="755.287"/>
      <point x="138.01999999999998" y="732.396" type="curve"/>
      <point x="151.89799999999997" y="687.388" type="line"/>
      <point x="192.48299999999998" y="708.954"/>
      <point x="237.38299999999998" y="721.1790000000001"/>
      <point x="278.07" y="721.1790000000001" type="curve" smooth="yes"/>
      <point x="329.30899999999997" y="721.1790000000001"/>
      <point x="359.18199999999996" y="698.453"/>
      <point x="359.18199999999996" y="656.8190000000001" type="curve" smooth="yes"/>
      <point x="358.77500000000003" y="570.4549999999999"/>
      <point x="248.938" y="501.27500000000003"/>
      <point x="76.70299999999999" y="405.351" type="curve"/>
    </contour>
  </outline>
</glyph>
<glyph name="uni00B3" format="2">
  <advance width="463.185"/>
  <unicode hex="00B3"/>
  <outline>
    <contour>
      <point x="43.585" y="405.61" type="line"/>
      <point x="93.41" y="376.02000000000004"/>
      <point x="158.02499999999998" y="363.69"/>
      <point x="234.54499999999996" y="363.69" type="curve" smooth="yes"/>
      <point x="366.44499999999994" y="363.69"/>
      <point x="454.98999999999995" y="403.885"/>
      <point x="454.98999999999995" y="491.53000000000003" type="curve" smooth="yes"/>
      <point x="454.98999999999995" y="536.0"/>
      <point x="424.59000000000003" y="568.6750000000001"/>
      <point x="373.6549999999999" y="579.0699999999999" type="curve"/>
      <point x="424.0" y="593.535"/>
      <point x="460.12" y="625.38"/>
      <point x="460.12" y="674.12" type="curve" smooth="yes"/>
      <point x="460.12" y="733.43"/>
      <point x="398.2149999999999" y="771.93"/>
      <point x="286.65999999999997" y="771.93" type="curve" smooth="yes"/>
      <point x="232.89499999999998" y="771.93"/>
      <point x="167.86999999999998" y="762.5350000000001"/>
      <point x="122.09" y="747.535" type="curve"/>
      <point x="127.78000000000002" y="704.635" type="line"/>
      <point x="174.58999999999997" y="717.3950000000001"/>
      <point x="230.98499999999996" y="724.4649999999999"/>
      <point x="273.69" y="724.4649999999999" type="curve" smooth="yes"/>
      <point x="350.08" y="724.4649999999999"/>
      <point x="396.1549999999999" y="701.9050000000001"/>
      <point x="396.1549999999999" y="661.96" type="curve" smooth="yes"/>
      <point x="396.1549999999999" y="618.5500000000001"/>
      <point x="347.00499999999994" y="595.3349999999999"/>
      <point x="281.525" y="595.3349999999999" type="curve" smooth="yes"/>
      <point x="177.55" y="595.3349999999999" type="line"/>
      <point x="170.9" y="555.5" type="line"/>
      <point x="267.24" y="555.5" type="line" smooth="yes"/>
      <point x="354.755" y="555.5"/>
      <point x="392.42" y="533.615"/>
      <point x="392.42" y="488.84" type="curve" smooth="yes"/>
      <point x="392.42" y="436.46"/>
      <point x="335.97999999999996" y="409.14000000000004"/>
      <point x="231.95999999999995" y="409.14000000000004" type="curve" smooth="yes"/>
      <point x="162.66" y="409.14000000000004"/>
      <point x="108.49000000000001" y="422.09"/>
      <point x="66.09" y="446.735" type="curve"/>
    </contour>
  </outline>
</glyph>
<glyph name="uni00B5" format="2">
  <advance width="666.7110000000001"/>
  <unicode hex="00B5"/>
  <outline>
    <contour>
      <point x="8.571000000000002" y="-210.0" type="line"/>
      <point x="97.76499999999999" y="-210.0" type="line"/>
      <point x="138.055" y="45.772" type="line"/>
      <point x="150.39199999999997" y="10.709999999999999"/>
      <point x="183.07" y="-10.0"/>
      <point x="236.47199999999998" y="-10.0" type="curve" smooth="yes"/>
      <point x="315.784" y="-10.0"/>
      <point x="383.37" y="16.464"/>
      <point x="462.66999999999996" y="65.045" type="curve"/>
      <point x="469.739" y="14.855"/>
      <point x="500.6509999999999" y="-10.0"/>
      <point x="548.2330000000001" y="-10.0" type="curve" smooth="yes"/>
      <point x="568.509" y="-10.0"/>
      <point x="597.891" y="-3.3210000000000006"/>
      <point x="618.5759999999999" y="9.424" type="curve"/>
      <point x="617.7040000000001" y="67.25" type="line"/>
      <point x="605.358" y="62.839000000000006"/>
      <point x="592.9889999999999" y="60.769000000000005"/>
      <point x="587.3219999999999" y="60.769000000000005" type="curve" smooth="yes"/>
      <point x="562.6279999999999" y="60.769000000000005"/>
      <point x="549.2080000000001" y="73.783"/>
      <point x="549.2080000000001" y="108.78599999999999" type="curve" smooth="yes"/>
      <point x="549.2080000000001" y="119.15800000000002"/>
      <point x="550.622" y="140.475"/>
      <point x="614.264" y="536.2" type="curve"/>
      <point x="524.039" y="536.2" type="line"/>
      <point x="460.435" y="121.348" type="line"/>
      <point x="388.27099999999996" y="83.503"/>
      <point x="327.078" y="61.038"/>
      <point x="255.80599999999998" y="61.038" type="curve" smooth="yes"/>
      <point x="189.08299999999997" y="61.038"/>
      <point x="155.93300000000002" y="92.445"/>
      <point x="156.119" y="145.85" type="curve" smooth="yes"/>
      <point x="158.258" y="173.20199999999997"/>
      <point x="166.478" y="234.27599999999998"/>
      <point x="215.142" y="536.2" type="curve"/>
      <point x="125.30700000000002" y="536.2" type="line"/>
    </contour>
  </outline>
</glyph>
<glyph name="paragraph" format="2">
  <advance width="655.7529999999999"/>
  <unicode hex="00B6"/>
  <outline>
    <contour>
      <point x="420.252" y="-210.0" type="line"/>
      <point x="489.12300000000005" y="-210.0" type="line"/>
      <point x="639.619" y="740.0" type="line"/>
      <point x="570.7479999999999" y="740.0" type="line"/>
    </contour>
    <contour>
      <point x="266.745" y="247.08700000000002" type="line"/>
      <point x="196.297" y="256.706"/>
      <point x="147.25699999999998" y="311.99899999999997"/>
      <point x="147.25699999999998" y="396.47900000000004" type="curve" smooth="yes"/>
      <point x="147.25699999999998" y="540.687"/>
      <point x="225.00699999999998" y="666.6010000000001"/>
      <point x="388.27099999999996" y="669.4780000000001" type="curve"/>
      <point x="249.51699999999997" y="-210.0" type="line"/>
      <point x="318.388" y="-210.0" type="line"/>
      <point x="468.88399999999996" y="740.0" type="line"/>
      <point x="420.40400000000005" y="740.0" type="line" smooth="yes"/>
      <point x="196.76999999999998" y="740.0"/>
      <point x="72.522" y="604.8129999999999"/>
      <point x="72.522" y="393.581" type="curve" smooth="yes"/>
      <point x="72.522" y="278.88399999999996"/>
      <point x="139.59199999999998" y="205.55700000000002"/>
      <point x="250.42999999999998" y="192.58899999999997" type="curve"/>
    </contour>
  </outline>
</glyph>
<glyph name="periodcentered" format="2">
  <advance width="224.00000000000003"/>
  <unicode hex="00B7"/>
  <outline>
    <contour>
      <point x="62.333999999999996" y="286.06800000000004" type="curve" smooth="yes"/>
      <point x="61.22" y="260.688"/>
      <point x="74.79799999999999" y="249.54"/>
      <point x="106.726" y="249.54" type="curve" smooth="yes"/>
      <point x="148.222" y="249.54"/>
      <point x="166.272" y="268.21000000000004"/>
      <point x="167.91799999999998" y="308.392" type="curve" smooth="yes"/>
      <point x="169.03199999999998" y="333.96799999999996"/>
      <point x="155.25799999999998" y="345.22999999999996"/>
      <point x="123.64" y="345.22999999999996" type="curve" smooth="yes"/>
      <point x="83.074" y="345.22999999999996"/>
      <point x="63.98000000000001" y="325.31999999999994"/>
    </contour>
  </outline>
</glyph>
<glyph name="uni00B9" format="2">
  <advance width="429.394"/>
  <unicode hex="00B9"/>
  <outline>
    <contour>
      <point x="48.137" y="370.0" type="line"/>
      <point x="423.866" y="370.0" type="line"/>
      <point x="431.167" y="414.665" type="line"/>
      <point x="290.589" y="414.665" type="line"/>
      <point x="347.825" y="767.546" type="line"/>
      <point x="310.36899999999997" y="767.546" type="line"/>
      <point x="89.71700000000001" y="673.918" type="line"/>
      <point x="97.113" y="625.534" type="line"/>
      <point x="270.35799999999995" y="699.966" type="line"/>
      <point x="223.028" y="414.665" type="line"/>
      <point x="54.976" y="414.665" type="line"/>
    </contour>
  </outline>
</glyph>
<glyph name="ordmasculine" format="2">
  <advance width="425.846"/>
  <unicode hex="00BA"/>
  <outline>
    <contour>
      <point x="39.20399999999999" y="254.642" type="line"/>
      <point x="376.16299999999995" y="254.642" type="line"/>
      <point x="383.7919999999999" y="303.94100000000003" type="line"/>
      <point x="46.833000000000006" y="303.94100000000003" type="line"/>
    </contour>
    <component base="o.superior" xOffset="10.07"/>
  </outline>
</glyph>
<glyph name="AE" format="2">
  <advance width="1143.1560000000002"/>
  <unicode hex="00C6"/>
  <anchor x="533.1421039999998" y="0.0" name="bottom"/>
  <anchor x="649.096" y="700.0" name="top"/>
  <outline>
    <contour>
      <point x="478.90399999999994" y="0.0" type="line"/>
      <point x="1058.338" y="0.0" type="line"/>
      <point x="1070.9479999999996" y="77.89999999999999" type="line"/>
      <point x="581.5039999999999" y="77.89999999999999" type="line"/>
      <point x="619.5219999999999" y="317.928" type="line"/>
      <point x="1052.494" y="317.928" type="line"/>
      <point x="1065.104" y="394.588" type="line"/>
      <point x="631.8219999999999" y="394.588" type="line"/>
      <point x="667.79" y="622.0999999999999" type="line"/>
      <point x="1135.6960000000001" y="622.0999999999999" type="line"/>
      <point x="1148.7300000000002" y="700.0" type="line"/>
      <point x="536.118" y="700.0" type="line"/>
      <point x="-40.20799999999999" y="0.0" type="line"/>
      <point x="65.468" y="0.0" type="line"/>
      <point x="295.46599999999995" y="276.69800000000004" type="line"/>
      <point x="522.4019999999999" y="276.69800000000004" type="line"/>
    </contour>
    <contour>
      <point x="346.338" y="345.298" type="line"/>
      <point x="577.9959999999999" y="631.058" type="line"/>
      <point x="533.152" y="345.298" type="line"/>
    </contour>
  </outline>
</glyph>
<glyph name="multiply" format="2">
  <advance width="485.10799999999995"/>
  <unicode hex="00D7"/>
  <outline>
    <contour>
      <point x="75.39699999999999" y="83.82" type="line"/>
      <point x="240.4" y="249.572" type="line"/>
      <point x="350.67099999999994" y="83.866" type="line"/>
      <point x="402.99099999999993" y="137.751" type="line"/>
      <point x="296.025" y="298.894" type="line"/>
      <point x="459.714" y="464.496" type="line"/>
      <point x="419.159" y="516.477" type="line"/>
      <point x="254.17099999999996" y="350.49699999999996" type="line"/>
      <point x="140.39999999999998" y="518.337" type="line"/>
      <point x="88.545" y="466.4669999999999" type="line"/>
      <point x="198.742" y="300.824" type="line"/>
      <point x="34.687" y="134.71599999999998" type="line"/>
    </contour>
  </outline>
</glyph>
<glyph name="Oslash" format="2">
  <advance width="886.31"/>
  <unicode hex="00D8"/>
  <anchor x="492.13999999999993" y="700.0" name="top"/>
  <outline>
    <contour>
      <point x="914.1699999999998" y="710.0" type="line"/>
      <point x="819.4499999999998" y="710.0" type="line"/>
      <point x="705.8000000000002" y="611.1" type="line"/>
      <point x="705.3000000000001" y="610.79" type="line"/>
      <point x="153.8" y="137.38" type="line"/>
      <point x="152.99" y="137.07" type="line"/>
      <point x="-11.520000000000001" y="-6.9" type="line"/>
      <point x="83.00999999999999" y="-6.9" type="line"/>
      <point x="194.94" y="90.09" type="line"/>
      <point x="195.43999999999994" y="90.4" type="line"/>
      <point x="754.76" y="569.7700000000001" type="line"/>
      <point x="755.57" y="570.08" type="line"/>
    </contour>
    <contour>
      <point x="424.79999999999995" y="-9.379999999999999" type="curve" smooth="yes"/>
      <point x="687.7900000000001" y="-9.379999999999999"/>
      <point x="839.9599999999999" y="150.36"/>
      <point x="839.9599999999999" y="405.81999999999994" type="curve" smooth="yes"/>
      <point x="839.9599999999999" y="601.61"/>
      <point x="721.0999999999999" y="709.6899999999999"/>
      <point x="477.6599999999999" y="709.6899999999999" type="curve" smooth="yes"/>
      <point x="214.67" y="709.6899999999999"/>
      <point x="62.5" y="550.26"/>
      <point x="62.5" y="294.18" type="curve" smooth="yes"/>
      <point x="62.5" y="98.39000000000001"/>
      <point x="181.35999999999996" y="-9.379999999999999"/>
    </contour>
    <contour>
      <point x="429.88" y="62.129999999999995" type="curve" smooth="yes"/>
      <point x="249.66" y="62.129999999999995"/>
      <point x="157.14" y="140.29000000000002"/>
      <point x="157.14" y="293.27" type="curve" smooth="yes"/>
      <point x="157.14" y="510.86"/>
      <point x="273.71999999999997" y="638.18"/>
      <point x="473.82" y="638.18" type="curve" smooth="yes"/>
      <point x="653.1099999999999" y="638.18"/>
      <point x="745.3199999999998" y="560.0200000000001"/>
      <point x="745.3199999999998" y="407.04" type="curve" smooth="yes"/>
      <point x="745.3199999999998" y="195.64999999999998"/>
      <point x="629.36" y="62.129999999999995"/>
    </contour>
  </outline>
</glyph>
<glyph name="Thorn" format="2">
  <advance width="789.1149999999999"/>
  <unicode hex="00DE"/>
  <outline>
    <contour>
      <point x="49.224999999999994" y="0.0" type="line"/>
      <point x="142.47" y="0.0" type="line"/>
      <point x="166.44" y="148.34" type="line"/>
      <point x="258.56999999999994" y="145.02999999999997"/>
      <point x="307.825" y="144.37499999999997"/>
      <point x="385.86499999999995" y="144.37499999999997" type="curve" smooth="yes"/>
      <point x="649.6099999999999" y="144.37499999999997"/>
      <point x="767.2950000000001" y="229.18"/>
      <point x="767.2950000000001" y="425.39500000000004" type="curve" smooth="yes"/>
      <point x="767.2950000000001" y="559.26"/>
      <point x="677.6749999999998" y="625.685"/>
      <point x="440.32" y="625.685" type="curve" smooth="yes"/>
      <point x="403.14000000000004" y="625.685"/>
      <point x="350.68499999999995" y="624.34"/>
      <point x="240.95" y="619.7" type="curve"/>
      <point x="254.17499999999998" y="700.0" type="line"/>
      <point x="160.93" y="700.0" type="line"/>
    </contour>
    <contour>
      <point x="380.9549999999999" y="216.47" type="curve" smooth="yes"/>
      <point x="302.71999999999997" y="216.47"/>
      <point x="260.12" y="217.315"/>
      <point x="178.43" y="221.16" type="curve"/>
      <point x="229.805" y="546.9150000000001" type="line"/>
      <point x="346.8949999999999" y="552.4849999999999"/>
      <point x="386.945" y="553.675"/>
      <point x="435.305" y="553.675" type="curve" smooth="yes"/>
      <point x="609.035" y="553.675"/>
      <point x="671.5699999999999" y="508.84000000000003"/>
      <point x="671.5699999999999" y="417.175" type="curve" smooth="yes"/>
      <point x="671.5699999999999" y="276.71000000000004"/>
      <point x="590.22" y="216.47"/>
    </contour>
  </outline>
</glyph>
<glyph name="germandbls" format="2">
  <advance width="749.26"/>
  <unicode hex="00DF"/>
  <outline>
    <contour>
      <point x="66.92000000000002" y="-36.24" type="line" smooth="yes"/>
      <point x="55.709999999999994" y="-106.74000000000001"/>
      <point x="32.809999999999995" y="-148.01"/>
      <point x="-16.03" y="-148.01" type="curve" smooth="yes"/>
      <point x="-29.480000000000015" y="-148.01"/>
      <point x="-46.620000000000005" y="-146.01"/>
      <point x="-65.89999999999999" y="-138.87" type="curve"/>
      <point x="-83.11000000000001" y="-204.66" type="line"/>
      <point x="-58.17000000000001" y="-215.95"/>
      <point x="-22.950000000000006" y="-220.0"/>
      <point x="3.8799999999999875" y="-220.0" type="curve" smooth="yes"/>
      <point x="89.42999999999999" y="-220.0"/>
      <point x="135.64" y="-158.44"/>
      <point x="152.81" y="-48.989999999999995" type="curve" smooth="yes"/>
      <point x="239.35" y="495.00999999999993" type="line" smooth="yes"/>
      <point x="260.7" y="627.16"/>
      <point x="325.91" y="683.7099999999999"/>
      <point x="464.6199999999999" y="683.7099999999999" type="curve" smooth="yes"/>
      <point x="555.6199999999999" y="683.7099999999999"/>
      <point x="603.35" y="659.96"/>
      <point x="603.35" y="615.84" type="curve" smooth="yes"/>
      <point x="603.35" y="575.0500000000001"/>
      <point x="578.13" y="552.1800000000001"/>
      <point x="473.68999999999994" y="528.52" type="curve" smooth="yes"/>
      <point x="356.8" y="500.93"/>
      <point x="304.77" y="459.96999999999997"/>
      <point x="304.77" y="376.05" type="curve" smooth="yes"/>
      <point x="304.77" y="297.92"/>
      <point x="358.94" y="261.46000000000004"/>
      <point x="493.31999999999994" y="233.60999999999999" type="curve" smooth="yes"/>
      <point x="601.51" y="210.57000000000002"/>
      <point x="642.8599999999998" y="189.82"/>
      <point x="642.8599999999998" y="143.68" type="curve" smooth="yes"/>
      <point x="642.8599999999998" y="85.39999999999998"/>
      <point x="575.01" y="54.88"/>
      <point x="467.10999999999996" y="54.88" type="curve" smooth="yes"/>
      <point x="401.66" y="54.88"/>
      <point x="313.60999999999996" y="70.63999999999999"/>
      <point x="250.58999999999997" y="93.16" type="curve"/>
      <point x="230.42999999999995" y="29.829999999999995" type="line"/>
      <point x="298.66999999999996" y="5.379999999999998"/>
      <point x="384.76" y="-10.499999999999998"/>
      <point x="458.40999999999997" y="-10.499999999999998" type="curve" smooth="yes"/>
      <point x="632.9799999999999" y="-10.499999999999998"/>
      <point x="725.9099999999999" y="43.620000000000005"/>
      <point x="725.9099999999999" y="152.76" type="curve" smooth="yes"/>
      <point x="725.9099999999999" y="225.03"/>
      <point x="671.6200000000001" y="269.46999999999997"/>
      <point x="547.05" y="295.70000000000005" type="curve" smooth="yes"/>
      <point x="423.80999999999995" y="321.35999999999996"/>
      <point x="384.84" y="338.44"/>
      <point x="384.84" y="384.94" type="curve" smooth="yes"/>
      <point x="384.84" y="431.13"/>
      <point x="423.86" y="450.28"/>
      <point x="529.82" y="476.06" type="curve" smooth="yes"/>
      <point x="643.3199999999999" y="503.67"/>
      <point x="681.2499999999999" y="545.16"/>
      <point x="681.2499999999999" y="621.08" type="curve" smooth="yes"/>
      <point x="681.2499999999999" y="704.39"/>
      <point x="608.7299999999999" y="750.0"/>
      <point x="465.27000000000004" y="750.0" type="curve" smooth="yes"/>
      <point x="275.32" y="750.0"/>
      <point x="182.77" y="677.8100000000001"/>
      <point x="154.58" y="509.69" type="curve" smooth="yes"/>
      <point x="151.39000000000001" y="488.34" type="line"/>
      <point x="41.53" y="477.85999999999996" type="line"/>
      <point x="31.090000000000003" y="421.5299999999999" type="line"/>
      <point x="139.26000000000002" y="421.5299999999999" type="line"/>
    </contour>
  </outline>
</glyph>
<glyph name="ae" format="2">
  <advance width="1061.7099999999998"/>
  <unicode hex="00E6"/>
  <anchor x="489.25999999999993" y="0.0" name="bottom"/>
  <anchor x="564.8399999999999" y="536.2" name="top"/>
  <outline>
    <contour>
      <point x="240.02999999999997" y="-10.0" type="curve" smooth="yes"/>
      <point x="316.35" y="-10.0"/>
      <point x="392.8599999999999" y="18.47"/>
      <point x="447.78999999999996" y="53.849999999999994" type="curve"/>
      <point x="438.7199999999999" y="-1.8800000000000012" type="line"/>
      <point x="519.8399999999999" y="-1.8800000000000012" type="line"/>
      <point x="536.52" y="102.79" type="line"/>
      <point x="563.9399999999999" y="33.77"/>
      <point x="635.1700000000001" y="-9.690000000000001"/>
      <point x="748.05" y="-9.690000000000001" type="curve" smooth="yes"/>
      <point x="826.0200000000001" y="-9.690000000000001"/>
      <point x="918.7399999999999" y="7.709999999999999"/>
      <point x="987.45" y="34.730000000000004" type="curve"/>
      <point x="976.9199999999998" y="100.09" type="line"/>
      <point x="902.6399999999999" y="73.19"/>
      <point x="820.2099999999999" y="57.48"/>
      <point x="755.75" y="57.48" type="curve" smooth="yes"/>
      <point x="633.89" y="57.48"/>
      <point x="557.7699999999999" y="116.92"/>
      <point x="557.7699999999999" y="212.17" type="curve" smooth="yes"/>
      <point x="557.7699999999999" y="366.59000000000003"/>
      <point x="660.6599999999999" y="481.82"/>
      <point x="814.55" y="481.82" type="curve" smooth="yes"/>
      <point x="901.3899999999999" y="481.82"/>
      <point x="946.5099999999998" y="454.62"/>
      <point x="946.5099999999998" y="403.69" type="curve" smooth="yes"/>
      <point x="946.5099999999998" y="337.74"/>
      <point x="862.5399999999998" y="298.05"/>
      <point x="715.7799999999999" y="287.35999999999996" type="curve" smooth="yes"/>
      <point x="655.0400000000001" y="282.47999999999996"/>
      <point x="593.71" y="284.93000000000006"/>
      <point x="543.2999999999998" y="292.64" type="curve"/>
      <point x="542.47" y="238.60999999999999" type="line"/>
      <point x="596.5799999999999" y="229.35000000000002"/>
      <point x="667.85" y="225.96999999999997"/>
      <point x="739.1799999999998" y="231.47" type="curve" smooth="yes"/>
      <point x="932.3399999999999" y="243.46999999999997"/>
      <point x="1038.1699999999998" y="311.6"/>
      <point x="1038.1699999999998" y="413.20000000000005" type="curve" smooth="yes"/>
      <point x="1038.1699999999998" y="496.5"/>
      <point x="965.9999999999999" y="546.2"/>
      <point x="843.9499999999998" y="546.2" type="curve" smooth="yes"/>
      <point x="730.0799999999998" y="546.2"/>
      <point x="636.9399999999999" y="501.62999999999994"/>
      <point x="588.4499999999999" y="429.97" type="curve"/>
      <point x="605.2700000000001" y="539.2" type="line"/>
      <point x="524.15" y="539.2" type="line"/>
      <point x="518.27" y="502.06000000000006" type="line"/>
      <point x="475.65999999999997" y="531.25"/>
      <point x="421.34" y="546.2"/>
      <point x="362.89" y="546.2" type="curve" smooth="yes"/>
      <point x="176.57" y="546.2"/>
      <point x="36.06" y="408.78000000000003"/>
      <point x="36.06" y="193.22" type="curve" smooth="yes"/>
      <point x="36.06" y="61.07000000000001"/>
      <point x="112.55999999999999" y="-10.0"/>
    </contour>
    <contour>
      <point x="280.10999999999996" y="58.72" type="curve" smooth="yes"/>
      <point x="187.2" y="58.72"/>
      <point x="127.17" y="108.65"/>
      <point x="127.17" y="204.57000000000002" type="curve" smooth="yes"/>
      <point x="127.17" y="384.77000000000004"/>
      <point x="255.13000000000002" y="482.51"/>
      <point x="377.74999999999994" y="482.51" type="curve" smooth="yes"/>
      <point x="428.0399999999999" y="482.51"/>
      <point x="470.03999999999996" y="473.09000000000003"/>
      <point x="509.87999999999994" y="446.71999999999997" type="curve"/>
      <point x="457.17999999999995" y="113.54999999999998" type="line"/>
      <point x="406.46" y="80.77999999999999"/>
      <point x="339.29999999999995" y="58.72"/>
    </contour>
  </outline>
</glyph>
<glyph name="eth" format="2">
  <advance width="706.29"/>
  <unicode hex="00F0"/>
  <outline>
    <contour>
      <point x="599.85" y="398.68" type="curve"/>
      <point x="610.7900000000001" y="458.6" type="line"/>
      <point x="553.2199999999999" y="507.27000000000004"/>
      <point x="459.63999999999993" y="531.4"/>
      <point x="364.12000000000006" y="531.4" type="curve" smooth="yes"/>
      <point x="169.20999999999998" y="531.4"/>
      <point x="41.53" y="407.73"/>
      <point x="41.53" y="218.07999999999998" type="curve" smooth="yes"/>
      <point x="41.53" y="51.14000000000001"/>
      <point x="155.66" y="-9.379999999999999"/>
      <point x="309.07" y="-9.379999999999999" type="curve" smooth="yes"/>
      <point x="503.7999999999999" y="-9.379999999999999"/>
      <point x="628.1399999999999" y="88.95"/>
      <point x="665.8100000000001" y="312.13" type="curve" smooth="yes"/>
      <point x="673.3800000000001" y="354.90999999999997"/>
      <point x="676.38" y="391.1"/>
      <point x="676.38" y="425.74000000000007" type="curve" smooth="yes"/>
      <point x="676.38" y="632.5899999999999"/>
      <point x="524.8700000000001" y="726.7399999999999"/>
      <point x="283.3399999999999" y="726.7399999999999" type="curve" smooth="yes"/>
      <point x="221.07999999999998" y="726.7399999999999"/>
      <point x="172.53000000000003" y="719.43"/>
      <point x="117.98999999999998" y="709.36" type="curve"/>
      <point x="115.72" y="653.0400000000001" type="line"/>
      <point x="165.54" y="661.06"/>
      <point x="202.34000000000003" y="668.25"/>
      <point x="273.34999999999997" y="668.25" type="curve" smooth="yes"/>
      <point x="483.24999999999994" y="668.25"/>
      <point x="586.3199999999999" y="591.09"/>
      <point x="586.3199999999999" y="438.80999999999995" type="curve" smooth="yes"/>
      <point x="586.3199999999999" y="403.53"/>
      <point x="583.63" y="366.65"/>
      <point x="575.63" y="323.17" type="curve" smooth="yes"/>
      <point x="542.61" y="132.02"/>
      <point x="457.61999999999995" y="55.0"/>
      <point x="317.77" y="55.0" type="curve" smooth="yes"/>
      <point x="205.98" y="55.0"/>
      <point x="129.97" y="101.2"/>
      <point x="129.97" y="218.58" type="curve" smooth="yes"/>
      <point x="129.97" y="371.1"/>
      <point x="232.98000000000002" y="470.0"/>
      <point x="377.68999999999994" y="470.0" type="curve" smooth="yes"/>
      <point x="468.48999999999995" y="470.0"/>
      <point x="545.22" y="445.56"/>
    </contour>
    <contour>
      <point x="247.34" y="553.34" type="line"/>
      <point x="504.58000000000004" y="650.9699999999999" type="line"/>
      <point x="498.3599999999999" y="653.0199999999999" type="line"/>
      <point x="710.8899999999999" y="736.3599999999999" type="line"/>
      <point x="601.09" y="736.3599999999999" type="line"/>
      <point x="447.81" y="677.11" type="line"/>
      <point x="455.46" y="675.6800000000001" type="line"/>
      <point x="138.78000000000003" y="553.34" type="line"/>
    </contour>
  </outline>
</glyph>
<glyph name="divide" format="2">
  <advance width="515.908"/>
  <unicode hex="00F7"/>
  <outline>
    <contour>
      <point x="186.404" y="97.234" type="curve" smooth="yes"/>
      <point x="185.404" y="77.49799999999999"/>
      <point x="197.12199999999999" y="69.56400000000001"/>
      <point x="224.286" y="69.56400000000001" type="curve" smooth="yes"/>
      <point x="258.488" y="69.56400000000001"/>
      <point x="274.87399999999997" y="79.864"/>
      <point x="277.254" y="120.22399999999999" type="curve" smooth="yes"/>
      <point x="278.254" y="140.074"/>
      <point x="266.308" y="147.894"/>
      <point x="239.258" y="147.894" type="curve" smooth="yes"/>
      <point x="205.59400000000002" y="147.894"/>
      <point x="188.784" y="135.734"/>
    </contour>
    <contour>
      <point x="248.19" y="478.85599999999994" type="curve" smooth="yes"/>
      <point x="247.19" y="459.74"/>
      <point x="258.288" y="451.18600000000004"/>
      <point x="286.072" y="451.18600000000004" type="curve" smooth="yes"/>
      <point x="320.274" y="451.18600000000004"/>
      <point x="336.03999999999996" y="462.41599999999994"/>
      <point x="338.41999999999996" y="502.156" type="curve" smooth="yes"/>
      <point x="339.41999999999996" y="522.316"/>
      <point x="327.784" y="529.826"/>
      <point x="300.424" y="529.826" type="curve" smooth="yes"/>
      <point x="266.14" y="529.826"/>
      <point x="250.57" y="517.0459999999999"/>
    </contour>
    <contour>
      <point x="54.134" y="262.88" type="line"/>
      <point x="457.61800000000005" y="262.88" type="line"/>
      <point x="470.1840000000001" y="336.20000000000005" type="line"/>
      <point x="66.39" y="336.20000000000005" type="line"/>
    </contour>
  </outline>
</glyph>
<glyph name="oslash" format="2">
  <advance width="666.62"/>
  <unicode hex="00F8"/>
  <anchor x="364.3" y="536.2" name="top"/>
  <outline>
    <contour>
      <point x="593.62" y="547.13" type="line"/>
      <point x="515.97" y="472.38" type="line"/>
      <point x="514.85" y="473.0" type="line"/>
      <point x="130.16" y="100.32999999999998" type="line"/>
      <point x="128.73" y="101.25999999999999" type="line"/>
      <point x="15.309999999999997" y="-10.0" type="line"/>
      <point x="84.77999999999999" y="-10.0" type="line"/>
      <point x="163.42999999999998" y="66.99000000000001" type="line"/>
      <point x="164.85999999999999" y="66.37" type="line"/>
      <point x="550.91" y="439.15999999999997" type="line"/>
      <point x="552.03" y="438.23" type="line"/>
      <point x="663.0899999999999" y="547.13" type="line"/>
    </contour>
    <contour>
      <point x="318.23999999999995" y="-10.0" type="curve" smooth="yes"/>
      <point x="521.02" y="-10.0"/>
      <point x="624.2299999999998" y="129.72000000000006"/>
      <point x="623.6099999999999" y="324.85" type="curve" smooth="yes"/>
      <point x="622.9899999999999" y="469.85999999999996"/>
      <point x="526.5" y="547.13"/>
      <point x="351.36" y="547.13" type="curve" smooth="yes"/>
      <point x="147.28999999999996" y="547.13"/>
      <point x="44.129999999999995" y="401.93"/>
      <point x="44.75" y="211.27999999999997" type="curve" smooth="yes"/>
      <point x="45.37" y="66.50999999999998"/>
      <point x="140.04999999999998" y="-10.0"/>
    </contour>
    <contour>
      <point x="317.99999999999994" y="54.69" type="curve" smooth="yes"/>
      <point x="198.85999999999999" y="54.379999999999995"/>
      <point x="134.42999999999998" y="104.55000000000001"/>
      <point x="134.11999999999998" y="212.97" type="curve" smooth="yes"/>
      <point x="133.5" y="356.33000000000004"/>
      <point x="205.09999999999997" y="481.81999999999994"/>
      <point x="350.55" y="482.43999999999994" type="curve" smooth="yes"/>
      <point x="468.31" y="482.74999999999994"/>
      <point x="533.3100000000002" y="431.01"/>
      <point x="533.6200000000001" y="323.28000000000003" type="curve" smooth="yes"/>
      <point x="534.24" y="173.70000000000005"/>
      <point x="462.47" y="55.309999999999995"/>
    </contour>
  </outline>
</glyph>
<glyph name="thorn" format="2">
  <advance width="661.2399999999999"/>
  <unicode hex="00FE"/>
  <outline>
    <contour>
      <point x="7.881" y="-210.0" type="line"/>
      <point x="97.044" y="-210.0" type="line"/>
      <point x="131.80299999999997" y="7.106999999999999" type="line"/>
      <point x="168.533" y="-1.2740000000000018"/>
      <point x="216.48600000000002" y="-9.845"/>
      <point x="273.85699999999997" y="-9.845" type="curve" smooth="yes"/>
      <point x="491.56500000000005" y="-9.845"/>
      <point x="624.403" y="140.365"/>
      <point x="624.403" y="348.28900000000004" type="curve" smooth="yes"/>
      <point x="624.403" y="475.54799999999994"/>
      <point x="558.711" y="546.2"/>
      <point x="437.834" y="546.2" type="curve" smooth="yes"/>
      <point x="347.05400000000003" y="546.2"/>
      <point x="277.996" y="511.074"/>
      <point x="202.79999999999998" y="461.50000000000006" type="curve"/>
      <point x="246.94100000000003" y="740.0" type="line"/>
      <point x="158.036" y="740.0" type="line"/>
    </contour>
    <contour>
      <point x="273.151" y="56.378" type="curve" smooth="yes"/>
      <point x="219.72299999999998" y="56.378"/>
      <point x="175.79999999999998" y="66.24300000000001"/>
      <point x="142.39799999999997" y="74.81299999999999" type="curve"/>
      <point x="193.42700000000002" y="396.855" type="line"/>
      <point x="263.34499999999997" y="444.857"/>
      <point x="330.032" y="471.762"/>
      <point x="394.82399999999996" y="471.762" type="curve" smooth="yes"/>
      <point x="483.935" y="471.762"/>
      <point x="533.948" y="423.81500000000005"/>
      <point x="533.948" y="327.446" type="curve" smooth="yes"/>
      <point x="533.948" y="176.25"/>
      <point x="426.64000000000004" y="56.378"/>
    </contour>
  </outline>
</glyph>
<glyph name="Dcroat" format="2">
  <advance width="856.132"/>
  <unicode hex="0110"/>
  <outline>
    <contour>
      <point x="21.248000000000005" y="325.144" type="line"/>
      <point x="369.82" y="325.144" type="line"/>
      <point x="381.80999999999995" y="392.63000000000005" type="line"/>
      <point x="33.459999999999994" y="392.63000000000005" type="line"/>
    </contour>
    <component base="D" xOffset="4.828000000000001"/>
  </outline>
</glyph>
<glyph name="dcroat" format="2">
  <advance width="671.502"/>
  <unicode hex="0111"/>
  <outline>
    <contour>
      <point x="359.0419999999999" y="611.212" type="line"/>
      <point x="725.14" y="611.212" type="line"/>
      <point x="734.03" y="659.5600000000001" type="line"/>
      <point x="367.93199999999996" y="659.5600000000001" type="line"/>
    </contour>
    <component base="d"/>
  </outline>
</glyph>
<glyph name="Hbar" format="2">
  <advance width="870.426"/>
  <unicode hex="0126"/>
  <outline>
    <contour>
      <point x="61.021" y="497.779" type="line"/>
      <point x="881.188" y="497.779" type="line"/>
      <point x="891.1419999999998" y="561.322" type="line"/>
      <point x="70.975" y="561.322" type="line"/>
    </contour>
    <component base="H" xOffset="1.3720000000000003"/>
  </outline>
</glyph>
<glyph name="hbar" format="2">
  <advance width="675.74"/>
  <unicode hex="0127"/>
  <outline>
    <contour>
      <point x="46.72400000000001" y="611.212" type="line"/>
      <point x="412.926" y="611.212" type="line"/>
      <point x="421.506" y="659.5600000000001" type="line"/>
      <point x="55.30400000000001" y="659.5600000000001" type="line"/>
    </contour>
    <component base="h" xOffset="-0.6199999999999998"/>
  </outline>
</glyph>
<glyph name="Idotaccent" format="2">
  <advance width="280.249"/>
  <unicode hex="0130"/>
  <outline>
    <contour>
      <point x="237.617" y="886.1800000000001" type="curve" smooth="yes"/>
      <point x="193.441" y="886.1800000000001"/>
      <point x="174.689" y="870.0799999999999"/>
      <point x="173.58499999999998" y="827.475" type="curve" smooth="yes"/>
      <point x="173.378" y="804.923"/>
      <point x="189.49399999999997" y="794.427"/>
      <point x="220.927" y="794.427" type="curve" smooth="yes"/>
      <point x="261.535" y="794.427"/>
      <point x="284.121" y="807.6750000000001"/>
      <point x="285.708" y="853.9250000000001" type="curve" smooth="yes"/>
      <point x="285.915" y="875.777"/>
      <point x="271.155" y="886.1800000000001"/>
    </contour>
    <component base="I"/>
  </outline>
</glyph>
<glyph name="dotlessi" format="2">
  <advance width="258.279"/>
  <unicode hex="0131"/>
  <anchor x="84.93734799999999" y="0.0" name="bottom"/>
  <anchor x="130.305" y="0.0" name="ogonek"/>
  <anchor x="170.374652" y="536.2" name="top"/>
  <outline>
    <contour>
      <point x="130.305" y="0.0" type="line"/>
      <point x="215.018" y="536.2" type="line"/>
      <point x="125.43100000000001" y="536.2" type="line"/>
      <point x="40.491" y="0.217" type="line"/>
    </contour>
  </outline>
</glyph>
<glyph name="Ldot" format="2">
  <advance width="653.168"/>
  <unicode hex="013F"/>
  <outline>
    <contour>
      <point x="439.71781400000003" y="378.755466" type="curve" smooth="yes"/>
      <point x="438.8208139999999" y="355.050086"/>
      <point x="451.654566" y="344.80142699999993"/>
      <point x="481.87691499999994" y="344.80142699999993" type="curve" smooth="yes"/>
      <point x="520.240923" y="344.80142699999993"/>
      <point x="537.3916439999999" y="360.27718699999997"/>
      <point x="539.254644" y="398.25741200000004" type="curve" smooth="yes"/>
      <point x="540.1516439999999" y="422.06582299999997"/>
      <point x="527.524892" y="432.521482"/>
      <point x="497.581481" y="432.521482" type="curve" smooth="yes"/>
      <point x="459.496504" y="432.521482"/>
      <point x="441.5808139999999" y="415.867691"/>
    </contour>
    <component base="L"/>
  </outline>
</glyph>
<glyph name="ldot" format="2">
  <advance width="347.29600000000005"/>
  <unicode hex="0140"/>
  <outline>
    <contour>
      <point x="284.79387" y="365.432945" type="curve" smooth="yes"/>
      <point x="283.89687" y="346.048314"/>
      <point x="292.710108" y="338.27466400000003"/>
      <point x="314.417997" y="338.27466400000003" type="curve" smooth="yes"/>
      <point x="343.292471" y="338.27466400000003"/>
      <point x="354.00737499999997" y="350.79652699999997"/>
      <point x="355.870375" y="382.411708" type="curve" smooth="yes"/>
      <point x="356.76737499999996" y="401.761079"/>
      <point x="348.16113699999994" y="409.741729"/>
      <point x="326.638225" y="409.741729" type="curve" smooth="yes"/>
      <point x="297.948418" y="409.741729"/>
      <point x="286.65686999999997" y="396.46070699999996"/>
    </contour>
    <component base="l"/>
  </outline>
</glyph>
<glyph name="Lslash" format="2">
  <advance width="653.573"/>
  <unicode hex="0141"/>
  <outline>
    <contour>
      <point x="48.94" y="0.0" type="line"/>
      <point x="591.3779999999999" y="0.0" type="line"/>
      <point x="604.4529999999999" y="76.62899999999999" type="line"/>
      <point x="154.76399999999998" y="76.62899999999999" type="line"/>
      <point x="185.488" y="271.603" type="line"/>
      <point x="467.03599999999994" y="427.721" type="line"/>
      <point x="480.52199999999993" y="509.01500000000004" type="line"/>
      <point x="198.78799999999998" y="352.80400000000003" type="line"/>
      <point x="254.084" y="700.0" type="line"/>
      <point x="160.901" y="700.0" type="line"/>
      <point x="97.818" y="305.07899999999995" type="line"/>
      <point x="23.883999999999997" y="263.344" type="line"/>
      <point x="10.903999999999998" y="182.928" type="line"/>
      <point x="84.31099999999999" y="224.44600000000003" type="line"/>
    </contour>
  </outline>
</glyph>
<glyph name="lslash" format="2">
  <advance width="320.87"/>
  <unicode hex="0142"/>
  <outline>
    <contour>
      <point x="7.560999999999998" y="172.283" type="line"/>
      <point x="301.71500000000003" y="398.347" type="line"/>
      <point x="313.217" y="471.979" type="line"/>
      <point x="18.752999999999997" y="245.915" type="line"/>
    </contour>
    <component base="l" xOffset="1.8600000000000003"/>
  </outline>
</glyph>
<glyph name="Eng" format="2">
  <advance width="853.4599999999999"/>
  <unicode hex="014A"/>
  <outline>
    <contour>
      <point x="48.724999999999994" y="0.0" type="line"/>
      <point x="137.07999999999998" y="0.0" type="line"/>
      <point x="225.75500000000002" y="559.5449999999998" type="line"/>
      <point x="630.7199999999999" y="-1.1749999999999992" type="line"/>
      <point x="607.8299999999999" y="-99.3"/>
      <point x="535.51" y="-127.62000000000002"/>
      <point x="453.505" y="-127.62000000000002" type="curve" smooth="yes"/>
      <point x="415.47999999999996" y="-128.24"/>
      <point x="376.85" y="-122.90999999999997"/>
      <point x="339.4849999999999" y="-113.79" type="curve"/>
      <point x="324.59999999999997" y="-186.025" type="line"/>
      <point x="367.15" y="-196.23"/>
      <point x="417.835" y="-201.18"/>
      <point x="455.345" y="-201.18" type="curve" smooth="yes"/>
      <point x="600.7549999999999" y="-201.17999999999998"/>
      <point x="692.86" y="-139.24"/>
      <point x="717.48" y="13.994999999999997" type="curve" smooth="yes"/>
      <point x="827.925" y="700.0" type="line"/>
      <point x="739.7599999999999" y="700.0" type="line"/>
      <point x="649.8449999999999" y="131.6" type="line"/>
      <point x="244.825" y="704.83" type="line"/>
      <point x="161.5" y="704.83" type="line"/>
    </contour>
  </outline>
</glyph>
<glyph name="eng" format="2">
  <advance width="671.614"/>
  <unicode hex="014B"/>
  <outline>
    <contour>
      <point x="537.0189999999999" y="-33.846" type="curve" smooth="yes"/>
      <point x="555.792" y="86.43000000000004"/>
      <point x="608.349" y="395.42500000000007"/>
      <point x="608.349" y="417.23199999999997" type="curve" smooth="yes"/>
      <point x="608.349" y="495.92"/>
      <point x="555.567" y="546.2"/>
      <point x="452.102" y="546.2" type="curve" smooth="yes"/>
      <point x="360.115" y="546.2"/>
      <point x="289.913" y="515.9359999999999"/>
      <point x="195.992" y="469.0080000000001" type="curve"/>
      <point x="206.49300000000002" y="536.2" type="line"/>
      <point x="125.21400000000001" y="536.2" type="line"/>
      <point x="40.766999999999996" y="0.0" type="line"/>
      <point x="129.06199999999998" y="0.0" type="line"/>
      <point x="194.821" y="410.615" type="line"/>
      <point x="273.66999999999996" y="448.401"/>
      <point x="333.111" y="474.759"/>
      <point x="408.883" y="474.759" type="curve" smooth="yes"/>
      <point x="482.778" y="474.759"/>
      <point x="515.688" y="440.762"/>
      <point x="513.952" y="381.23199999999997" type="curve" smooth="yes"/>
      <point x="511.34799999999996" y="346.05400000000003"/>
      <point x="474.748" y="130.45600000000002"/>
      <point x="449.36199999999997" y="-29.43500000000001" type="curve" smooth="yes"/>
      <point x="437.02599999999995" y="-106.304"/>
      <point x="410.746" y="-147.24599999999998"/>
      <point x="355.296" y="-147.24599999999998" type="curve" smooth="yes"/>
      <point x="344.80299999999994" y="-147.24599999999998"/>
      <point x="331.271" y="-146.073"/>
      <point x="315.279" y="-140.16" type="curve"/>
      <point x="298.778" y="-214.26199999999997" type="line"/>
      <point x="317.496" y="-220.312"/>
      <point x="353.21099999999996" y="-222.898"/>
      <point x="373.73900000000003" y="-222.898" type="curve" smooth="yes"/>
      <point x="468.71999999999997" y="-222.898"/>
      <point x="517.617" y="-159.79500000000002"/>
    </contour>
  </outline>
</glyph>
